<mxfile host="65bd71144e">
    <diagram id="A3qWTJxBf30MFO97emnY" name="Page-1">
        <mxGraphModel dx="1377" dy="1045" grid="1" gridSize="10" guides="1" tooltips="1" connect="1" arrows="1" fold="1" page="1" pageScale="1" pageWidth="850" pageHeight="1100" math="0" shadow="0">
            <root>
                <mxCell id="0"/>
                <mxCell id="1" parent="0"/>
                <mxCell id="2" value="" style="strokeWidth=1;shadow=0;dashed=0;align=center;html=1;shape=mxgraph.mockup.containers.browserWindow;rSize=0;strokeColor=#666666;strokeColor2=#008cff;strokeColor3=#c4c4c4;mainText=,;recursiveResize=0;" parent="1" vertex="1">
                    <mxGeometry x="10" y="10" width="830" height="600" as="geometry"/>
                </mxCell>
                <mxCell id="3" value="aut.dig" style="strokeWidth=1;shadow=0;dashed=0;align=center;html=1;shape=mxgraph.mockup.containers.anchor;fontSize=17;fontColor=#666666;align=left;" parent="2" vertex="1">
                    <mxGeometry x="60" y="12" width="110" height="26" as="geometry"/>
                </mxCell>
                <mxCell id="4" value="https://autorizacao.digital/agreement" style="strokeWidth=1;shadow=0;dashed=0;align=center;html=1;shape=mxgraph.mockup.containers.anchor;rSize=0;fontSize=17;fontColor=#666666;align=left;" parent="2" vertex="1">
                    <mxGeometry x="130" y="60" width="250" height="26" as="geometry"/>
                </mxCell>
                <mxCell id="8" value="" style="shape=image;verticalLabelPosition=bottom;labelBackgroundColor=#ffffff;verticalAlign=top;aspect=fixed;imageAspect=0;image=data:image/png,iVBORw0KGgoAAAANSUhEUgAAAY8AAAI/CAYAAACPuFUPAAAgAElEQVR4Aey9B1iVWZrvW1Xec899esozqXTumenuOWX3nJnpORPvzHTPdFcnqyy1zCgISM4KKBlEEBAQzIogmDGLATMo5pwFAyiScw4b2Jud/N1nfUiQAnXbjaPW4nnW822+uML/e3/rXen76NmzZ8gg80BqQGpAakBqwBQNfGTKyfJcKS6pAakBqQGpAaEBCQ/peUnPU2pAakBqwGQNSHhI0ZgsGlnzlDVPqQGpAQkPCQ8JD6kBqQGpAZM1IOEhRWOyaGStU9Y6pQakBiQ8JDwkPKQGpAakBkzWgISHFI3JopG1TlnrlBqQGpDwkPCQ8JAakBqQGjBZAxIeUjQmi0bWOmWtU2pAakDCQ8JDwkNqQGpAasBkDUh4SNGYLBpZ65S1TqkBqQEJDwkPCQ+pAakBqQGTNSDhIUVjsmhkrVPWOqUGpAYkPCQ8JDykBqQGpAZM1oCEhxSNyaKRtU5Z65QakBqQ8JDwkPCQGpAakBowWQMSHlI0JotG1jplrVNqQGpAwkPCQ8JDakBqQGrAZA1IeEjRmCwaWeuUtU6pAakBCQ8JDwkPqQGpAakBkzUg4SFFY7JoZK1T1jqlBqQG3nt4dLS30dTYQH19vRIaGhppa+9Apze8llE0GnTo2xvJLyqjvqkV45DCxIhe10mjiGtdb3ybW1RodQaMxrclSCM6dRs11VXU1DWgNRgHzSutWkV9XR2VtY2DnjOYITHqNTTWlrB10y6aWlSo1R20NDX2Kasmpaz0L3n+YPd+F/c315RyOX07t/Nr6NTqTc6vdzFNMk5v6518/57zVuBhNBrp7OykqamJqqoqKioqqKysVIxIR0cH4vibijTv6gmS165m1ao1rEtKYu2atWzYlMqps9eoaWx95b0NOg2t+Rfw9F1I5rXHr4aHQUd9XQ0P84rRmxpvo562pjKSlyxh9ao1rF2bROLaRBKTUtibnkFBeS0d2teD3pvm17NnRgx6LQ8uZ7B0xUpSD19Aox88/6uL7rFycQxL1mWge/bs1fnTB76qxirO7VyFuX0QJTWNVBZmszklieUrV5GUtE4pq01btpNx/jq1Te3oDUOd9qF9QesK77IsxI+wtftpau0wKa/evDyHNk0yXjJ/B9PAkMNDgEGj0VBaWsqNGze4dOkS165d48qVK0rIzc2lvb0dwxsajvM7F2NlNgkPnxCWxcUTGezDtHHjmW5hy46sm+j0L68BGjrbabx/gonTXdlz/BaGPsZvoEwzdrZy5ngaHoGbUBsMphkIo5a68hxm/MfPmGE/j4joOKIjI7CxnM7oL8cSmHiQ8sb2NwbpQPH91j6jAa26gTgPZ5wDV3Ilt+SlaXiafQYvl9k4u6bQYTQFHkaKci4R6GbPgoT9NDS38ejGMRxspjPVwYP4pfFEzPdn2sRJTJlhy7ajN2lXd/5+0v7WPLgXDUt7g4DlSr6a4ExeRT3al0D5W+XyCt3J81/Ma5kf//X5MeTw0Ol0PHz4kKtXr1JQUEBDQ4MSRDNTWVkZt2/fVqCiUqneyHBc2BnHbOfZHLuSq3gZRqOe7IuH8XCwwz52B5pO7Yv3NRgwGHozvj88Xmi2MhowGowvNCfpVNXs3bSaiS5rUOu/DQ+jcn/RBDVAbV7AoyIHi//4GYt2XqGiWYPBoEPVWE6E0zQcnUO48aisN75G4SXoXwpWo0EcNw4AACPPjCKtL9bmRTOdprmc1B3pPCqsQj+QoX3+XPGCGnRamkQzW7O6N17C0In0GYwv5OULL7RRy4WDqdhOm8TJvEbFo3p04zgeHo7EpB5GrelExCX36kl8rC0Z6xxLzfNmQ5F3g6ZbOSbSNVD+ijgZ0OsMPBsoXcJzEnF+mVEX6epbdoZnGAaBpmhmFOXdk26jjuK8a9iO+zmbT+fR2K7rPSbhIPPiA9PAkMJDGC7RRCU8jfz8fKWpqrq6mu4gmq6ERyKOP378GLW6n4F6jczugocHRy/n9ogz/+45QpwccFmyC41WR2d7E3cvZrLA04mpU6cy3cqWNdsOK81EfeGx9/gt9HotrY3V7N+yGlsba6ZNt8DDP4bL2U9pqXnK4R2JOFpM5ItfTyc6LpbkbYcoraqmoiiP9csWMn26GVOnzWBe+HIu5zxF19fw9INHZUunYuA7VI2sDbbFxS2cm3mVqNtbeXAtg/B5s5lhZoaFtQOrth6muaMTnbqZ3anrmBexlm0pcZibz2C6hRUrNqVTUdfltVQW57E1IZaZM80xs5jJ7OCl3Msvp7K6ilvnDuPpNIuvvx7LNHNXdh27RItayzN9Cys855GwdgPrV4Qzw9yCsCXryc2+wYZli1i1/wqiyauzrYGrmQcJcHdg6rRpmNs4seFAFmXVDT35L4ypvqOePZvXMs0uloZOg9LE1w2P6K2HnkPdSENJHltD3fhiegglpUVcyTpIwGxXpk6dxlQLB/advkVdc6uSJ/k5F1kwzxULC3NsnOawImkjO3fuJae8nse52WxPWISV+VSljD3Ckrn3pAKtpo3Kexl4BkWyZ8d6/NyssXF04cDtcto79Ri1Kq5k7cMlMI6NCVFYW5oza3Ywu4+fJn3LCiysZjDdyoo1245S2dilz8bKItK3rsFhpgVmZhZ4BMZwK7eYVrWWusoSlgS6Ep5wgvK61hfypAcyr6FreW5vBU/mxbuZF0MKD71ez/Xr17l79y6FhYUKKAQs+obi4mIePHigNGfV1dWZ/LIJeDhYWbNqcxqXL1/mTOYxYkN8cHCezYGL95Vmq9zL6QR4uePoHUnqjp2krIzByc6WuKQdVNQ19TRbCXg01Veyf+MyrB3msHLdZnbs2ELcAi+c3YLJL8znVPpWfJxmMnqKOzv27CEj6xKP7t9kTXQIM2e6sXb9FrZtTiHQ2w2n2UFcf1KLprvztA883GM2cvT0ec6fOUXq2uWYT5nKik3HqGpso621gc1L/Zkfs5xNm7eyOCIYC3ML9l8rpqWxinUrIxkzfhLhsfFs276DKH837Jw82HPuLjpVJUvDfLB3cGdJwnp27tzBsvilZNwpoujxXRZHLiAsZhXbt6US7OmC+5wgrjwowairx3/6DGZMmoarewCr1iSwK/00T+9eZvn8ucxLOo7wcm6f3Ia3myuegbFs27GDtfHh2FjbkLTrGHWqXi+vs6mc1MQ47CJ2on9uLAU83N0dWLT5IG1t7bSrmsi5fIJ5jlZ84xZLQe4Nli8OJzxuJVs2b2XBXFcsneeRdfsJlUWPiPV1ZM68GFJ3pZG4IgY7G2vmzo/l2tNKMlKTCQ8JZt36TWxOXsEMMwuWrN9PdV09xZd2MmbcBCysbFgQFUdSYhI3i1rQiEEKmiZOHkjmV6PHEhQeR+rWjfh4uTHFzApXrxA2bE0lwt8VR1dP0q88wKhTsXvpAma7eLI8cbOSvxGBc/BeuIw7TytorqtiV/x8/MKTeVpuup6loXw3DaUsl2+Xy5DDIzMzk+zsbIqKigYNwis5ffq0ctzUQhLwmGU+hZl2boTODyVgnifTJ0/CwTmA87efoNW1k+Rnj4NjAGfuFKDV6VDVl5EYOBsHN38u5RT2gcdNih7dxMduMo6eMVy4eovch/fIOrqdSf/5K9JvFFFV8pjNKxbwjctyWjo66NRquXpoE86zrIjbeELpKFW3NXP5yBZsZpqxYvtpWtqee1R94DHdwgEvvyACfH1xtLJg9BQLdp64RE1TG5qONvIf3Ka4rIKqqkqunzmMvflE4rffora6jMRlC5k83Zmb+eWoNRoe3ziOn5sjnit3UXPvKFOnmrE4eRcVdS3otFrqaqppa1fT1FhPQV4eBSVV1NVWk7UvCXtbZ/acuoNBW0eg2RSsZnqRceUhzS2tqNrU1Dy+xbIQb7zXHkWvUxHvYoaTWySXH5TQqe2ktbaIWKeZuPhEk13c63201xSwaVUUrsvTeyoEAh7OjlY4B0dz5PAR0tO2E+LrjrWNHWv3ZtFQU8aTJ/kUFJdRXV7K1fQkxkyxZ/ux6zy5dxFPs9Es33uDqvoWnmRfJNBhFnHJR5SRXFVFBTx+9Jgq4dmWPSHK/ht8Fq3lSWk1xRd38JvfjCUkYS9PiitQtapQa41dzVGaRjLTkvjtaDMuPaqgpaWJk9vXMGPyVJZtOUtTazsPLh9mrpMDkZuPoK66h/mkcfhHLufi9XvkPbrP8dTlmFs7su3EDVobaji+Joo5QZE8LKrsSbupupbnf9tYyTx5t/JkyOGRkZHxSngIryQrK4unT5+a/LIJeDja2JOUlsHj3Dxy79/h0PZ1OEyfwSznSOpV1QRZmhO2OImy5t6a8aWDa/Bw8SDt1I0+8LhB7o0zOH79M8ymW+A1dx6BgQF4zXFn4thxrMp8RGVZAdtXL2KC0yo6leHAek5tisfNwYGTOTV0ivb2Z88ofnQd/9kO+C7bQGPL8/6cPvCYu3gnF2/c5+H9+1w8nUGQ2zTMnX04ej0fvU5La0sjBY+yOXFoL/HRwVhMncCSrTeorRLwWISV7Xwadc+UDv6GwmxWh3rjtGgLj9KTmGrpRvr5nG/1g+g6NbQ01vPozg0Opu0iIsATWxtn9p681QOPxas3U63qHWTQUCBGEAl4HEavrmLON+OUGn1Va297flZqBO5uPmTe6i2/loo8EhaH4LA4radMBTxsLSfzHz//BaNHj2bsuPF4+oSQdjSL5nYtnSJ+TfXk3rtJ+u4tLI2Yy2/H27DzyHWKc28SaPcN3otWk537hNP7tuBhb0/yrquo2jroaFdRVfKUi6eOs21DEg5TvmJeVAJ5JVUUX9zFb8Y7c/7W4x4vqNsQGRV4pDBmrDNlrRqlmTH7zB48XR3ZeeopHRodJdnnCXJzxzV+Bw05R5k47mumWVrjExBIgL8f89zsmDTVjpTdl2htquNcciwegeHcLyzvSXv38+T23TKAsjzevDyGHB4CCt3NVgN5HwIceXl5iudRUlJi8ssm4OHu5Eb6xQeIZjK9Xkd7UwUHNi1mzNjJ5JSX4WdhTnh8IhWtvfC4nJ6Ih8ts0k72g8fNs7hN/jXRm87xML9Y6aepqChXOveb2jW015V8Gx4bBTwcyXxQ1wuP3Bv4zXYcFB5R2y5Q3tChxFndriL72DasZjmzZFcWNWWPme9mxwwbV0LCIgkL9mfmtIl94BGFlU1QDzwaC7NZs6AbHold8DjXHx56Hl87TZizBRbWrkRGLybUx/1b8IhP2Extx+DwmP3NOJZu3E+1qhcep7fH4OHmy8mbvfBQ1xWyJSEK+/i0nhFsSrOVmz0L1++lobGJtrY2xFBt4b2Jcit8cBl/dxcsbV2IjFpEzHwvfjNuFjuP3KC5uoz06ADGT5iAxcyZuLjNIW55ClUtnWjaG9i9cSkzLS3xCghj6dJVOEz+shcel3bzm4keXLqT/y2gdsEjmTFjHXrgkXM2DS9XJ3aezH8BHm7xO2i8L+Axg4RNByipqqSysgJFHxVVNLd20FJfw55lEfiGruRJaY3JepbG7M2Nmcy7t5t3QwoP0WF+7949pT9DDMkdCB5iBJYYiSVCc3OzyS9bNzwOXshRhgSLSYOFD64S62nLmInOFDc3keBlh4NLEKezC5U+kLaGUhL9PXBw8edydlEfz+MmJXl3CHKZjntgLLmF5bSrO2iqryX3/gNa29W01xezfVUk3zgtp7W9HbVGy+X0jTjPsmTxpuM0t6nRdLRy6eh2rGfOYMWOswM2W0Vuu0BJXatSY26oLiN1WShTrRxYf+gcxbeP8atf/Jq0czd4WlTM1ax0HM1fDQ+XuB3U3D3O5ClTiU3aTWWdCp1WQ1nRU+oaatm3IQFrs+kcvPyIktJSsvYmYz/rRc8jfu1m6gaEh2i2aiXeYRqOc6K5kluKVtdJW30hsfYWuHhHk1PU22ylb69l18YVmLkvRaXvGrEk4CFGWy3amv6tUXCiee3MvgScFaBfpKToKdcOJjFmoq0Cj6riXGJ87JjlOI8tqTs5ciyTG3fu09DaTktFDkGeHsz1S+RxUSllhY+JcfqmHzxmc/k5PDrVHZTlP+BpUTnNDRVkpg0Cj8wX4eG+bC+ddQ+xnDKZwMXreFxa3eUt1VdSVFxGXWML9dVlrAjzIDh6H8XVputZGsC3awBlfr95fg8pPMSQS9EJLjqyRXj06JEyXFd4GwIaYoSVGKorvBMBFjGR0NTCFPCwmTENr6AI1qxJYNXKlYTOc8fBwZXolKO0d2p5dPkQgV6uOM8LI2X9BlbFL8TB1o7F64SBbaLxQQYTZ7ghOsxbGqvJ2L4ay5mzCI9ZQnJKCgkrlhIcEM7jGhUdLVXsTYrk6wk2rFq9iq17jpF97wZJscFYWLiwMmEdyYkJ+Hm64+QRzI2ndQN2mM9yC2DxspWsXr2SuEULsJw5k8DYNeTkF1Gac4rRv/4l4XGr2LRpE4vDAphlNpUl229SW13e1WxlE/wtz8Nt2V60qiqWhs/DztaNmCVr2Lg+mYULgkk9eZ39GxOxmjyJiBXr2JC6iVBPZ5zt3dh78jYGbT3+4hn94NFYeI+l8+finXhMGVp7++R2vN1d8AyKImV9CssXBTPL2pakXSeo79NhbtR3cHr/FmaZz+RqQTNqrZ68G8eZ7eFE9EDw0Gm5eGQ99na2LIiKJ3VjMvHhfnw9wY49R69SnJ+Nn5sFFrMcmD1nLv6+gYSGhhO/citP8+8QNHc2NjbzSNmYyvqkBCymTcR3cTJ5pVUUX97Fbyb1wqOlsY51Ud74hcWQk5dH5r71jBnr+KLn4e7MztO9zVbB7h7MXn0Ao76dw0mLcHV0IDR6GRs2bGT10mjCFi3m9pMySvOz8TAfz5rDd6hr1ZisZ1P1L89/c+Mn8+53y7shhYcoHDHPQzRHnT9/nnPnzimeiIBITk6OMknw1KlT3L9/X5koOODciFcMa7yXsZm57g5YWlo+D7OYG7CQA5kXqaxXYRCz29sauXsxg2BPR2bOtMRylgOrUo9SWFGHmGHeUnwNT78ITl7NxaDXoWqq5ejOZFwc7bGcaYWjsze7Dp9TarlajYr7VzPwcLRVnhe/9SgllVVUFuWSEh/CLGsrZs60wi90CdfvP1XmUfTMHTHqaKnLJ9DGBpvn8bWyssbRw5OETXvJL61G3dlJY10lq6KCsZlljZ29I8vWbGB9VARbTjykuamevds2EhiSSIu+a9KeqqqAnatjWLTrnDInpbIwl41LwrGxssTKehYhMWt4VFDKk+xbrPR1VZp37Fxns3nndjatiCHrxhMM+haSfOaydfchWjS9cxdaqwvYlhhP3POhuhpVPVdPHsDPw6ErL22dWX/gHGU1jf2ahAw8vpGJt4MlSzaep7G1g/K868RFLmDz0fPKwIW+L6/BoKey6AGLFwRgPdMSe3t7UvelEz4nhFPnb3Pn4iHMJk8kJS2D8xcuc+rofpbMd+NnP/uSk/fyyDyYipO9HdbWdviHrebAznUsSz1IWW0jNQ+ycJobTfaTciWOAh4b4gMIiFhBbkEhV88cws19EdXtWqW8nt45S0xUBFnZVWi0BmoK7rIqMpK1R8Rw5WdKE9qxXSk42tlgaWmFk8dc9mXdoLikiFuZqYz9cjLXC2vp0A0wF+UVeu6bJ/L372bcZP4Nbf4NOTxEAWq1WmpqapSO87NnzyI60YW3IWaci6G6v+sSJa8rEgEnnVaHQXR0DzKJrO+9jKIPRaf71oS/7kls+gHWzzLodOh0+m9d0/e+r/tbr9UhntEDHxMMj4ijmCyne96B3/3MnjwYaJKdKfc39MnLQa5rqipk1/JAJlqGUFTT0NP30R2XgbZd8RZ9V72G16hp5tLRrYyeYMvlB0W0qNppqi0mc+cyfvHFJK4XVCtLrIjyEnk/0H377+uahPjshQmg/c95+f9GZeiyoqfnWqouuEd80GycwxKpb36zSa8vf+bQGgP5bJm/pmjgrcBDMVg6ndJBKmaYi6YsMcO8paVFAYs4bkqkf5dz3+azfpd4Kte+BuDe5Bm/tzx4Rfz0WjW15Q9ZFLuBmhbVG0FQSZ9BR+nj2yyc64zZ5AmMnzKZCVOmYesyh+TdR2lpE+ujPX/xu7eDAO1N8uul1/R5XkNlAZs2pJCVU6400730urcVP/mct2Zbvmvl/Vbg0Z2pwmiJTnQxKkpsReg+JrcfYq3HiLZTQ1VVHZ1a3ZvD45kRTYeKsqe5XD5/lpOnTpF19gK3c3Kpa2pVvLN3QT+dmg5aW5ppVeuU5tJ3IU4yDh/ie/VupOmtwkMK+d0o9Pe9HEQlpMfTkDVrWQGTGvgv0YCEhxTef4nw3neAyfjLitB3XQMSHhIeEh5SA1IDUgMma0DCQ4rGZNF812tcMv3S65AaeIaEh4SHhIfUgNSA1IDJGpDwkKIxWTSy1iVr3lIDUgMSHhIeEh5SA1IDUgMma0DCQ4rGZNHIWqesdUoNSA1IeEh4SHhIDUgNSA2YrAEJDykak0Uja52y1ik1IDUg4SHhIeEhNSA1IDVgsgbeCjy6lpMQS0q8v0HWtGRNS2pAakBqoFcDQw4Psfih+EJgZWWl8l0PsQT7+xRKS0uprq5GpVL9XpZZl+LrFZ/MC5kXUgPvrwaGFB7C0xDfqRbwaGpqorGxEbEk+/sURJxFEPFXq9VyJWDp3pvs3ksD+f4aSFl2g5fdkMOjtrZWAUjfZdi7l2N/X7biY1YCHgJ64rcU1OCCknkj80Zq4LuhgSGHR0VFhVJjH0xQvCN/g8VP7BcelGi2qqqqQqOR36V+WV7JY98NwyHLWZbzkMOjvLxc+cxstxF+3zrNRbyFhyThIV8WaTClBqQGejXw1uDxutAQhnqgcwfbL87tbv4a6Lrfxz5x/9bWVul5yP4O2WQpNSA18FwDbwUe7e3tChC6jXz/rTDwolM9KyuLnTt38vjxYzIzMykqKlK+dX7mzBmSk5PZsmULV69e5datWzx48EDxaM6ePcuGDRvYunUr9+/fV/pX7t69y7Vr1xDb7Oxs5VvpN27cYPv27Vy8eFEJu3fv5vr160ofRv/49P1fxE301wh4iBFjstmqt+Yha2EyL6QGvrsaeGvw6GuQ+/8WBloMiXVxceGf//mfSUtLw87OTgGIAIm7uzt//ud/zt/8zd8QHR1NbGysApL6+nq8vLz4/PPP+clPfqJApKamhpUrVyrnie3atWsRTWeLFy9W7h0SEsL8+fP56U9/qpzT0dHR47n0j1f3/wIeLS0tCjzEiCv5wnx3XxhZ9rLspQa6NDDk8CgrK+sZbSWM8EBBwKOwsBALCwt++MMfKl7E5MmTOXTokOJhWFlZMWzYMD777DMCAwNZsGABiYmJCFAIyPzBH/wBI0eOZPXq1YgO+piYGOU8AZmlS5cq80pCQ0OVe8+ZMwcRfvzjHxMcHPzKuIn46nQ6BR6v6vyXopKGRWpAauC7ooG3Cg9hhAcKooZfUFCgwOMv//IvSU1NZcqUKQo8RFOUtbX17xUenp6e/NVf/VUPPAaKU/e+vvAQzVbS85DG4btiHGQ6pdZfpoG3Ag8xUqnbGA+07YaHubk5Ah6i/+JV8BDNUa/jeSxZsuSVnsdAceq7T8zt6J4lL+EhX6iXvVDymNTHd0UD7wQ8RO3+6dOnvA48AgICEE1QA8Fj1apVSv9Gd7OV2Ap4iI73wZqtXgU2AREJD2kQvisGQaZTav11NfBW4CFGKgkDPFgQBrovPMSoKtHnkZ6eroyg6tvn0Q2PhIQEZc2pvn0e/eEhOtdfBx6Dxat7f2dnpzLDXPZ5yBfrdV8seZ7UyoeugSGHhxhFJeAhDPBgQcAjPz9f8TxEh/mbwkOMrhIjq4THISAj4BEfH694HmKElbj37NmzldDdYS48j8Hi1b1fDM8V61uJe8tmK2kUPnSjINMnNf46GhhyeIjRVt3wEEa4fxAGWtTwnzx50gOPzZs393geOTk5WFpa9nSY+/v7K0NtB/I83hQe/ePU938RP/G/hId8oV7nhZLnSJ18VzQw5PAQnoeYI9HXIPf/3Q2PGTNmKN7B7woP4XF0ex5xcXGDeh5BQUHKsiP949P/f+FtiEURpechDcN3xTDIdEqtv0oDbwUeYqRSf4Pc939RuxeeR394HDx4kME8jzVr1ijLhfTt81ixYgXC0zEFHsIr6huXgX5LeMgX6VUvkjwuNfJd08CQw6OkpEQZ5ioM8GBBGGwxk1zA4wc/+AGbNm1Smq1eBx62trbKJMERI0bQDY9Fixa94HmICYh9+zw8PDyUSYJiwqHwigaLV/d+MQtdeh7SOHzXjINMr9T8yzTwVuAhvoUhDPBgoRse06dP74HHpEmTEPAQa1P17/MQS4x0ex6DwUP0jQiIiGYrAQ9xjegwF+DoD4/B4tW9X6zNJZZCEV6NAMrLMlQeky+c1IDUwHdBA+8EPIRBzsvLoz88Dhw4YBI8li9frhh4AQ0/Pz+ioqKUNa1eBg/RpNYNicG2Eh7SGHwXjIFMo9S5KRp4K/AQI5WEYRZGeKDQHx4bN25k4sSJdMNj5syZPaOtBBTEmlRiHSuxXIiNjU3P2lbLli1TFlgU0DAFHgPFqe8+8Snduro66XnI5bil1yk1IDXwtpZkF30eAh59jXH/3wIsubm5iufRvTCiWH/q1KlTikciRk790z/9Ez//+c8R3oXo2xDLq1dXVyt9GT/72c/45S9/qSxrIoCybt065bykpCRlpV3R3CQmEH755ZdKU5ZYGPFHP/qR0i8iPI/+8en/v4SHrJGZUiOT50q9fBc0MOSeR3FxsdLZLAzwYEHA49GjRwo8xNpW+/fvV77ZIUZgiaVFRL+HAMnJkye5d++eMutcfKtDNEeJ73rcvHlT+X6HOE8MDRb3EsfFuaIjXgBMnCO+5SEWWpw7d24PPER/zGDx6t4vJhKKb7HLPg9pFL4LRkGmUer8dTTw1uAhDPBgQdT0+8NDfOiBO9MAACAASURBVAxKrK4rgoCG8CLCwsIQH3Hau3ev0pchZo+LjzyJZUMuXLigNGXt2LFDgY/4QJRY/+r8+fPKPURTlvjQlFi9V8Bj1KhRiE514RUNFq/u/WI4r4SHfKFe54WS50idfFc08FbgIUYqdRvigbaihi/gYWZmpqyqKz4GJYbr7tq1SwGAaIYSM8oXLlzIvn37uH37trJcu/jd7VkIoIjmLPENENGkJZY4OXr0qOJtpKSkKJ3nYvLhw4cPX4CHGII7UJz67pPwkAbhu2IQZDql1l9XA28NHsIADxYEPIRR7wuPbdu2sX79egUY4oNOojNcdJTv2bNHacY6fPgwly5dUvo9xKKKAhBiTavufg7hoQiAiOXdRX+HGKorPmUrwOPt7d3jeQh4DBav7v1iLohY/l02W8kX63VfLHme1MqHroEhh4fosxAjlboN8UBbUcsX8BCTBEVzkujzEH0cYp6HWK9KNE8JEAjPQUBBNGOJFXfF7HPR7CT6VURzlYCNaKoSo7UyMjKUa8Q8j+7vn4tzRL/HvHnzlI9BiY7414WH6JyX8JAG4UM3CDJ9UuOvq4EhhYf4yJPo1BbwELX3wYIAihht5eTkxL/9278hvIqzZ88qQBAG/8SJEwoIBBiOHTum9GMIr0OsNSVGS1VVVZGVlaWMsBKQEc1ZoulKnC+awES/ifBIBIwEpMRs83//938nIiJCgcdg8ereL54h4CE640Xn/utmrjxPvohSA1IDH6oG3go8RGezMMAvC+IcMVrqypUripEWYBDgEZ6L+C06usXoK1H7F8NxRRBeg7in8D7EOWKiobhGjK7qPl8YfLFPXCv2C5AJgIjnCGCJ0VYvi5c4Js4RgBLXS3hIY/ChGgOZLqltUzTwzsBDGGgBAxHEbxEEFAYK3cfFttu4D3Z+//3i/+7niHt33+NlABHnSHjIF8uUF0ueK/XyoWtgSOFhNBqV/gjR2SwM8PsaBGQEPIR3I9e2kkbhQzcKMn1S46+jgSGHhwCHaGISzUWixi+G7b5PQcRZxF3MJRHxFt8eeZ2MlefIF1BqQGrgQ9bAkMJDZJyoqQuAiL4LMaRWfG72fQqi70T0dQhwiO+OCG/qQxaETJs0eFIDUgOvo4Ehh4cwtuIb5cLwdn/SdaAPLr2r+0Schbeh1+slOOSieLLiIDUgNfA2FkZ8HXrJc2QtR2pAakBq4P3TwJB7HlIU758oZJnJMpMakBp4lQYkPKQbLt1wqQGpAakBkzUg4SFFY7JoXlUjkcdlrVVq4MPXgISHhIeEh9SA1IDUgMkakPCQojFZNLJW+eHXKmUZyzJ+lQYkPCQ8JDykBqQGpAZM1oCEhxSNyaJ5VY1EHpe1VqmBD18DEh4SHhIeUgNSA1IDJmtAwkOKxmTRyFrlh1+rlGUsy/hVGpDwkPCQ8JAakBqQGjBZAxIeUjQmi+ZVNRJ5XNZapQY+fA1IeEh4SHhIDUgNSA2YrAEJDykak0Uja5Uffq1SlrEs41dpQMJDwkPCQ2pAakBqwGQNSHhI0ZgsmlfVSORxWWuVGvjwNSDhIeEh4SE1IDUgNWCyBiQ8pGhMFo2sVX74tUpZxrKMX6UBCQ8JDwkPqQGpAakBkzUg4SFFY7JoXlUjkcdlrVVq4MPXgISHhIeEh9SA1IDUgMkakPCQojFZNLJW+eHXKmUZyzJ+lQYkPCQ8JDykBqQGpAZM1oCEhxSNyaJ5VY1EHpe1VqmBD18DEh4SHhIeUgNSA1IDJmtAwkOKxmTRyFrlh1+rlGUsy/hVGpDwkPCQ8JAakBqQGjBZA28FHgaDgfb2doqLi7l9+zZXr17lxo0bPH78mKamJsTxV1HuVccNeh3trU2Ul5VSXFxCVU09HRodxiEQhV6nQ6PuQKc30tnZiV6v/x3jb8So66DgaTFl5bXo3yDORoMedUcbVRVlFBUVU15ZQ4uq3aT0N9fXUlFRSW1D84DpMRqNVJU8pbK6mtaOTjrV7RQ8zqOpRYXOYBzwmleVW//jlYU5HN61nSeldRj0nTTU11NTXUNNTS21tfW0tLaj0/2u+f0O1CqNBoyaJg5vWMvp6w/QGd+BOL2B7vqXn/z/u1OOQw4PAYb6+nru37/PvXv3ePToEXl5eeTm5pKTk8Pdu3cpLy9XjPAbCc+go76qmFP7N7N4UQTBQUH4+wUwPzSMVYkp3Msvp0PT+UaGra2pnvzcx5TXtfRcr2tvIvvKKVasWMGGrTvYvjGJq3ceoP9dXn6jAUNbBRELwlmTchi1wTQBtjbWcvNcBquXLCY4KJCAAH8Cg+YTvyyRUxeyUXe+HKJGg47O1gq2LF9MTPRabj6p7Ulv3zIRZZm1NYLohN0UlNVS9egMHk4OJB+/TUObFnVbK/k51ymuaUGjM7VCYMSoVXEoaTH+gQu5V1yLvqWYuJhowhdGELs4jsWxi4mJiWPDzqPkl9Vi+F3y/L/aUBqNGDUNLA2YR2RcEmV1qgHzvG/+y9+mvRcyv4Y2v4YUHqKmqlKpuHXrlgKJ0tJSysrKKCwspKSkBPG/AMmlS5doaGh4oxp8a30FaeuXYj5tEmYW1swPi2PV0iX4ejgwy9KSpVvSaVR19L6YwuC8yug8P16We4WlEfGcu1/Sc31ncxUH1y4iICwMDxcXHJ1mc/z8HbSvuudLjJXwGgytRcxxdSN88Qba9K9Z6EYjOnUrl49uxcHGkilTZ+DpF8TqhJUE+3pha+OAs2cMNW2dGPo+v19c9Vo15XeP4ubozvptmdQ0tPekt+cFND7DoNdzYIUXc+cnkp1bSsX9k9jZ2hB34Bo1rRrqygtYEerCritFtHTovn2PvnHo91vkQWvFQwK9PAiLSaG+rQN9w0OmTv4GSxdP1qxLJnH1MlxmzWTSZAuWJB6gsb3PM0Sa+qWrN+6v8IqMLzk+2D37xb/nWSbt13M5bTVz3Hw5frvApPx6s+e9pq5MSoO853e1LIYUHqKmKpqmbt68SUFBgRLS09NZt24du3fv7gGKgMudO3doa2sz8QUycu3QOmxnTGXGvGhyiurQaLuaNNqbG3h07TJ3HlfRodGi02lRd3TQ2tKqBLVGNDcZEIDTdXai0WiU4+2qVtpUbYonlH1uLz6ewRy7+hC1Wo3eIM5V01xXS21VDVXFBRQWV9Daru5qHhL3Up7TTlurilZVOx1qzfPnvPiSCWPZqVEjntfS3ERb7WM8nF164WEUTWIaOtraaGtto62tg06tTolvt1iNeh01uZdws5mBucNsTlx9gP6516Lv7KC44Amnrt1Hq9Oj04o0qpV0qFpbaW1TK/sFENpbm8m7dpaTmdcpqWhAq+02yka02k4lDq3NrbS0qNizfA7e8xO5X9iATqulrLCYtg6Nck3hwzv4WH3NupMPqWxoU/Yp+Svu0S7SoUKlaket0Sh52bdJUa/Tcj9rDx4eXmzPusMzQyf6xi54RCdvp15tQHhIqprHzLexwM49jDuFjYjrRLmqWlpRtahQqzUYFBgYnx9r7yrz1nY6OtRoOjvR6kQ+GujUaGhvUynH29ralfwQ8RX3FGWj0XQqWmhVdaDp7M6TZ8/zUqPcr13VRptKpehHo1bT3tbeVe5CX8+bY40G8SxR1u2oWlV0tHeX5TOqnlxnUZAnPonHTWpi7NaA3L74Xsn8eHv5MaTwEH0BZ8+eJTs7m4cPHyrA8Pb2Zs6cOXh5eREfH680XYkmLHFeRUXF68NDtBl31hHu6YKljTdn7pWgVWDQlXnihRXGTaszoO9s4+7lk4T7uPPll1/x5ZcTCF26kYdFVXS0NnNm82rmBcWzJCaMaZMmMmHCDHak7WTeHBvGjBmHnas3oeHRPKhq4mnuHTasiGTS+HGMHv1bptp4c+pqNhq9EW2nmrvnDhPiYcf4r8cw7puJzFu4lHsFVXR0vthO31JVwt51y5gycTxjxozB0d2TMV9N7IKHVk+nqo60zauZZTmdr8Z9w/RZHuw9dZ2m1l6vQNup4diWKMytbVi5+wwdndre/BNGUK9H06nFaHzGlf2rCQ0PZ0PKaswnjWGcjRfn7j2hqiiX1OVhTP7613z569E4eoRy/Gw2OqMRg7aNrEPbcLOfzpivxzLVxhVny3E4+qzmfkEtTTVPcB07lRM387l19gwxPh6M/o+fMcVmDr5+Uew/egOVqpnLx3biZWfOuDFjmDh1BuHLU3hS1fxC05aA29Et0XiFJnP7ae0L8Fi0bht1HSL/jBj1GraGOODkFsSFu4VkXz5BiJcz48eNZfwEM4Ji1lHW2IFWqyH76inC5joz9puJjJ1gRsjCaBI2bCP92kPa6orZnrQEq+lT+fKrr5k805XDF+/S0tZB7tVj+Hu7sG7zVhwtvmH8DFtWH7zcY9xvnNyKf1gUsTELmTZhDF9NtmLd9jRSVscxddI3jJkwFp/YzeSV1GI06mipL2NXQiwzJ01izJjxzHT2YW/WLaU5UauqJXXtcma6LqPN8OxFD1F6AL16lnnxzuXFkMMjIyNDAYTwLgQs3NzccHV1VcL8+fM5f/48+fn5ZGVlKZ7Ja9ccjHq0zQXMdp7FnJAYntb1aZrqJzS9uoUD25IIDFvO4YxTSjOXjZU9K9YfobGpkROJMUyeOBUrW08SUraxdcsuHuQ9ZP3KAKysbFm6bgfnz52nsrmDWxmbiYyKIDXtCKePH8Te3Ayf2GQel1RT9eAs9paWuAbGk348kxMHduBpM505C5bwsLj6ufEx8syoJWNDOE52dgQt38i5s2fZmbSESWMnK/CobWriSOoK7Bxns3LjHs6cPcW2hHAszZ24kVusgErkU6emg22xztg5+nDu7pOXiutsahRW5lMwn+VI4sZtbNmVTnb2PdLWLWTWLBt2pWdw/kwWMQuC8fQJ4/rjarLPHMLd0Za5QQvIOH2WjMM7mTH5axx9VnG/oIb6ygdY/OfP2XvhPkVP8zmybR1mv/xPQlZs41DGee7fe0T+tUPMmDwN74i1HMs8xb4tibjaWOK/ZAPltU09cRYg3L3Uk4jkgxTUtL8Aj6jEVCXv21XNPM2+iJvVVJx8o7ibX86e9fGExSRy5HgmqYlLsZ1pQfLuK1Q8fcjKiAAcXSM4df4imYe24WBtxbz50Vx/XE5lTgYhoQtYv2M/Rw/uI3COC2azI3laUUv22TTsLSYwccYsoleksGX7Hq49KuuJ68XDa7G1scFjbiQnMo4TGzKbadMscPYKYc/ho+xKjmLiJDO2n7hERWU5x5NisTB3YNPuw5w5ncX6lVHY2Dtxo6ieDnULhzYnYT3dmyq18XfrO+un+9d+l+R1PWUr8+z1PZchh0dmZqbieYiO8VWrVvXAQ0AkPDycK1eu8OTJEwUeoi/kdQtPNPto6vJwc7DEM2wxFaoXa/Z972PQdlBVUUF+YQnVNdU8uXUaR2sbQqPXU9vYBY+pZlZsSsuisqZRaVoQTRvXT25m9mwfpdlK29mpjAprqCmnqLCA8soqqsqLWB/ugOPceC7dziVjXTTjpjpz6vpDWts1qBqqObkhlvFT7Tl0/m7XiBqjHmN7BXOsZuC5IJ5HpTVKM0lD4R1cbO0JX7ye0spSwh3HY241l4PHs7h18xpnMvcy7Wc/J/HQDRqet/V3atpJCZ6Bi5sXFx8UvzTvBDxsrW1YsuMU9U2tyqil/Nsn8HKyxswvjivXb3Hr1k32bFiiAHPzoetsXzIPO/s5HLmYg7pTS2d7MxsjHXAPSHgOj/vM/M//YO+FHJo6NBTkXMP9my9IPvmQ6uYOGisL2bHIj99Ons2dJ2W0qTXKvr3xQfx2siu3Hpf0GEutpoONC2wIX3eAonr1C/CY5ebN2pSNrF+XQKiPK9azbNmw5zjVTSoqiwsoLq2ksqKCW5cycLU1J2LFPp7eOccCTxfmLd9PS3sHzeX38bV3ImLxJppE81VrDY/zCykvr6T4yUOOrI/gZ+PnkPO0nHtn03CymoZ39CaKK2ppbm1Do+n16gQ8nJy8OHj2Hm1tKh6e3sX0qRbErk2nrrmZ5qpsbMeMJmZDOjdvXCbA1RJzFx9Onj7PrZvXOZK2FcsJo0k8nE1jayundqRgP92cx41atL+nUWt99S9/v75BlHn1+nk15PC4cOGC0mEumq2EdxEUFISvry+BgYFs2rRJ6TAXo65Es1VVVdVLDeALBWvUo28uwdPFBq+QRRTUDt5fou/U0FhXQ969mxzcs43lMWFM/mYqoYuSqW3ogoejpx/XHxW98Pzbp1Px9g4k8/rzWr3RQGtzI8VP8zhz7DDrk5Zhaz4RR+94zl66R+qiEOz9FvGktFq5j17TRu2DE4wbY8a2w+e7RlEZtOgbczE3m8HylL20aoUn0rfDfD1FJU/xHvevTDebgZvHHPz9/Zg31wvzKVOISrtKjarLkIlmsh1xzjg6+XDmTn5Ps8oL+fS8Ving4eUbwbWHvXl8//IBbGaZM8bMCn8/P/z9A5jt5oSbmzub9p8mMcQKr/ANPCqqU9LT3WE+b37St+DRotFT/OgWXlO+YOPpPBradNQU57LK1wun8ARqng//FaPV8i/u5Bf/OZlTd56ged4hLbyo5PnWhCft+5bn8evfjmbCpCmYmZnhFxLJ8fO3qK5vQifKtaaS3Ds32L97GxHzA7GeMZWI5XspeXSHuPlzsHL04Gr2I64f34mLjQsrk47QodOjbm+lrKSAiydPsCEhjnkejvz069k8yC9XPA9PF0e2n8ilXd3b19GdrwIeXt4LOH+3CINOQ/OT88yy8yBh+zmlmUrTVobH2DEEr9xDVlYGs63HM37aTOZ4euMf4I/nHHfsLC1YueU6Dc2tZG1Pxsl8BrkNEh7deSy3r2/E/6vyakjhITrMhVdx7tw5penq6dOnyvyOY8eOIaAiOtPFvtOnTyud56Z1mBt5pm1mma8zMywcSDv/6FvGU3R+ik7Z5vInrAzyZsK4aUQsXsb6NfGYTTZ7AR7O3v7cyB0MHo+V9vZnujZ2rluG+VQzXH0XkLQumQCX6V3wuHiPrYtCsPWL5HFJl4EW8KjJEfCYzvbDF3rh0ZSHudlMlqXsQ6UTo4T06FuLmePqrngeRaUFzJ3wbwStOsajwiqlaU00rzU2NtKm0T7vEH6mdPRnbluiNJnEphxE3a/WqqT/+UgiAY+5vlHczO0dhnv/ykE8PFxYsTuDxoYGmsQzmhppbmmmsbGBjRE2eAen8LCooQce+1d5MTc08TXgoVXgsdLPC/uwVb3w6Gjiybkd/OLnU8gS8HjewS9AuCvOmdB1aeTXvths1dvn0feFMlBf/oR4t5lMmWxNWGQcyxZHYWc5XYFHXX09h9bEMflXX2BhZYWdsysJG/dQUNmAuq2FSye2M3X8RFw8A1i+fBmxIZ4vwMPL1YmdmfnKXKH+L2cXPEI5f7cQg66TlicXmWUr4HH2W/A4ffoEPo5mRC0/QGFJRU9ZNjU3KWAy6NpJ35yMtZk7VepnPZ5Y/2fK//uWvfz9LuhhSOEhjJcAgujvEF6HaLoSQ3O7g/A4RJ+H8Dpqa2tNH6prNPDgwh4craczcZotx69kU1PfRGtzEwW5OexKSeLQ2Rvcu3AUH3cPYnecVOacFNw6g5OVzavhkZWKp2cAhy/moGpuRttcRojvbLwDI3hSXkN9dSnrw+xx9o7j6q1cLm6MZ/Q4K/afu01jm5rmmnL2RPvxzQwXMq487OoMFV5GWwVOFtNx9Y8m+2k5neo2ci6mYzV9htLnUV5dyXJ/S2bZe3Dhtqj9qmltqufujRvUNTb3TCgTTXf1xXfxdZ7FpG+s2ZiWRUVtM2I0VXnRE04f2cf6TQdoVXdyeuu34VGVf52Fc5yZ5LWY4pomOtRqqitKeJybS2l1AzuW+2Bl7cj+0/eUSZ51pQ8Isx+Hs8/KQeHhOfkLkk4+oKSmmbqypxyKC+I/v7Th3IMCWjrUClDW+bnxlflc7j8t7+kgFh3mJ7bGMi88kbsFVS80Ww0ID6OW0ryrTP/lF6zPuENxeRV3L57EzdqcyOV7qSrJZ3m4D5MmzmL7voMcOnyCqzfuUl5dT2NDLcnx/rh4BnEt+xFlBbkcS17Iz8b2eh594WHobKf0aR7Xrt+mXWvk/CHhebwePG7cukGEjxNmLgE8yC+lvUNNY10VD+7epr5VTXtzJZvWLmWGzRKlw7zvCLR3wUDIOEhQDaaBIYWHeGjfSYICFCIIr6P7t5hpLuZ+iKGyg0XyZftbG6s5tX89jrZWWNna4x8QTEhQEN5zPHB1m8Pes7d5cu8iwS5OWDnNJjp+ETELQzGbOI1Fi1OUZqvjiTG4DOB55F1Lx9XJHnu3eYSFRXL5wSPmB87F3GImYZHRLIlZhP2MKbj5Led2bjkNxQ9YOM8JR3cvQsPCCZsfhJ3FDELX7qW4urtz2IjR0Mmp1GXYWVvhOseXqMgIQvznMGHMZKIWb6RBpSLn/AGc7e3w8JpHeEQkCxeEMm9uANeeVKLtmURoVEaS3T55gPnuDljMsMTTJ5D5ISH4zvXC2cWDZet20qrRcnZbBHP9o7iZ1+t5qFvrOXdoEw6zLPH2CyYyIoLQ+cEERcRxq7CW3OvHme1ki529OxGRUYTND8Bs0lic/J/3eVQ8wPx5n4dotqrIzybI6itmuc0jKHQRaemnKX50jXnO1jjN8SFs4UJC/H2ws55F/PZMapt6J8aJ4bEPz+3F08Ob1JN3MIjmvYZczCZ/Q8y6bdQro636vMhGHZWFd3H+ejQu3oGEL44lNMAbJ2sLIpen8fThbeIj/ZkweTrzfP3w9Qlgrrc3UYvXcvHOA3asi1LK0S8gmPiocLw93Pli/GwePS0n+9wevNyc2Xmyy/PobKlmz9oo7BxcuF3RzumDAh5hvZ5H/iVsHeaQsOMcBqOO7markNV7eVJaRc7pvdjPNMfLN0iZ8LgwbD5+AYFcL2ykOPcm0QE++K091gPSl+ldHuujAdnR/0Y28/eloSGHh4ioGDLa0tKiQEJ4G92TBsXcDzH7XKsVw0lfMlHrpSIx0tpUR861UyxdtAB/X198fHwIj4zh2Nnr1KvUtNRVc2ZfKkH+vvgF+JO84xB7N6xk/8HTtLS1kZ2xn7Upm5SRNn0zVngWuzcn4OfnT+ii5TwsrebGpVNEhYYo+2KWrOHUiYNs2nqEkhqVMv6/8MF11i2LUuIREBDEms37KK1pRP18/kn3/cW9D2xeR4CPL/4Boew9dooNi1eQtv8sGr0BnUbFrfPHiY0Mx9fHl8CgcHYfPkt1Q0uP59F9L01bEwX3b7Jl9XJ8fXyU9AcFL2LHgVMUVdQo8w1yLx8kZcseCqpa+wjOQHN9JReP7iTcTxhYX8Kil3Li/G3qWtV0tjdx6UQaC4MD8Q8MYvWmNI4cSCVh2wnKaltQNZazIiiIq49K6NAZUDXWcCp1FUH+/gSHxnLm+gPaOlTk3TrLsqj5+Pn6EBgSxua0TKqa2ujU985CF15Uc2k2QXNnsyB6E3Ut7RjbKlkes4j9medQdfae25VuI6rGOjI2ryE4wB//oBCStuwkY08Cew5f496FNDzneLJk4z7u3rnL9csXSIj1ZaaVDYnplyl9fJOYsAX4+fgSFR1HxunTxC1KpqKmkdLc66QkJXAxp4pOrQGtqp7Th1JZGLmEgkYtOTdPkpyyi0fFdcrck/bqx6xak0zm9TwMz0TZ1ZMcsZB9p67R2NZJR2sjVzP2syAkCB8fX+aHR7I/8xL1za2c2b2G2XN8OHorv0+5SAPZrW25fXe18FbgIQQg4KATa0JpND3hd4PGAJmqTPDSKWsfGQZo/zfoDcqEPVMEKeaLiI5iY5/7id96nV6ZPzHQvURaBTBFGOh49z5xnhKnPvfuPta9Hej53ce+tVXup1fyuX/6v3VuPyCL53RPmnzxXOEpvTotfa/R6wyI5/dtgunOE5Hevuf2/jbyzKDmYFI4Xp5BXH9cN2j+9l7TpQFRFga98YXz757ajKe3DxvTz1FTU0dNdTl7k6Nw85jH0Wu5Shy64tQV1/737P+/UlYvKaf+5w/0f1c+Grr6rERZqetZ6OtOWOwKShrUg+TLADrvV3YDPUvuk/k21Bp4a/AY6oTI+38IL4uR2pJHHE0/Rl5lywvwMbV8m6vyWb9kAdMnj+MXv/0tv/jVb5lp787mtCM0m7h0iqnPfq3zBTw6W9iVtp/Td/J7BkG81rUSHhK074AGJDzegUKQBqMXfFqNWlm+Q91vRr6peaTvVNNQV01B/hPuP3jA/Qe5FBaX0tjS2rOEi6n3/L2fb9TT2tZOu/rN+vt+7/GR74KEkgkakPAwIbPky9pr5N+nvBBNTmKJlvcpzjKusrzedQ1IeEh4SKMqNSA1IDVgsgYkPKRoTBbNu14jkvGTtXapgaHXgISHhIeEh9SA1IDUgMkakPCQojFZNLJWN/S1OpnHMo/fdQ1IeEh4SHhIDUgNSA2YrAEJDykak0XzrteIZPxkrV1qYOg1IOEh4SHhITUgNSA1YLIGJDykaEwWjazVDX2tTuaxzON3XQMSHhIeEh5SA1IDUgMma0DCQ4rGZNG86zUiGT9Za5caGHoNDDk8dAYjKo2OhvZOalWartCmofaF0Elt2+uGPtd232/QrZpalZra1tcILWpqWzq+FepaOmhUaWjX6ND3WylWfKtELH3xPgu1a7XYF9Mh9nXq9DS3qalrbqemqY2axvcr1Da30yg+ttTn2+Ndy5SIpUre7zLr1l3fdHSnTRx7n0N3OrrfKfG/WH27tbVV+ZJmQ0OD8hkH8SmH9yWIODc1NaFSqd577XWXi9gOKTwMRiP5dSoiMh/xi4Rz/Cg2g89FWJzJ53En+Tz+FJ/HZ/H5UhFO8/my7nCmz+/TXceXZHWdG3eq63pxj9gMRsVkMCr6BKMWHWdU5DFGRRxl1MIjjAo/zKiwQ4wKS2dU6EFGzT/Ik99o+QAAIABJREFUqJADjArez6jAfYwK2Mco/zRG+e1hlO9uRvnsYtTcnYzy3sEoz+1dYc42/sZ7O2OjDpGSeZ/qRhW658usi+XWxdcPxZcSxcv6Pv4JAYgl8oW4m5ublXSIfR0aLdcelWG7OJ2/tU/k/zVbxp9Ne7/Cj2etYUrYblYfuN4D946ODuUlFtv38U+UjdCdKC9hTIVRFftEUKvVShmKY3V1dYo2hT7flyDi3K1DoUnxTol0dXZ2cvPmTUJDQ5k0aRK/+tWv+OKLL96b8Mtf/pIvv/wSS0tLIiIi3vijd93l/C5thxQe4mM/sVm5/MuyLD4LO8pnC48yIuIYIyKPMyLqBCOiRchkREwmI2JPPg+nGBHbHZ7vE8fFedEZjFh0ouvayGNd9wo/ysiwI4xccJiRoYcZOf8QI0PSGRl8kJFB+xkZsJ+R/mmM9N3LSJ89jJy3h5FzdzPSexcjvXYy0nMHI+dsZ6THNka6pzLSbSsjXbYw0nkTf+a0kZH2G/gLp038NuwAO7LuUdPQoohavMRVVVXKS9u3BvguFe7rxEUYIFEr6vsZ4MLKJvwTT/IPjuv4fOYqfmi+gh/OeH/CD2as4AfmK/iR5WpsYg72GFgBSPFRMvFdmff1T2hN1GCFoRUQ7C5jYXwFUETaBgpCr+9KGCx+QouijETaur8sKtIUFhbGb37zG/7pn/6Jv//7v3/vwj/8wz/wL//yL3z99dfK55y7y+x93w4pPDq0esYlX1SM+x+GHuZPFx7ls4hjfBZ5nM+iTvBZdAafxWTyWcxJPos9yWeLT3WFuCw+WyzC8//FMXGeOH/Ria5rxT0WHuOz8KOMCDvCiAWHGRF6iBHz0xkRfJARQQcYEbifEf77GeGXxgjfvYzw2cOIebsZ4b2bEV47GeG5gxFztjNi9jZGuG9jhFsqI1y3MsJ5MyOcNjHCcSOf2W3gT2zW833HjXgnHOFJSXUPPMrLy1+o/b2PYhAGRbywlZWVitERabj9uIKfuqXwfbNl/MBsGT+c/rphOT+cvpwfDBDE/lfex2w5PxgkvNb1feL5F9OWMmJiHBODdvQYWNHMIQyvSOP7+ifiLryMmpqanrSIfaL82tvbe9Iq9vUN3ekVSRcrDIsmWNGk3D/ojc+U76h0n4+4j2ieFR9EE163CLrnQW8AgxFxjvh7hrjWiN5oQGfUo+8TDEa98pXFvnHq/1uAUXjyIi3dYGxsbMTMzEwxvn/3d3/H+xyEFyLS1z/d7+v/QwqP9k49/xB/kk+D0/le8CE+DT3MpwuO8GnYET5deIxPI47zaeQJPo3K4NNFGXwancmnMSd7g/hfBHFMnCfOF9eJEHaUT0OP8On8w3wacojhwekMDzrI8IADDPffx3C/NIb7pDF83l6Gz93DcO/dDPfcxfA5Oxk+ewfD3bcx3C2V4a5bGe68heFOmxnusInh9hsZbreB4TbrGT5rPcOtk/nUch1/ZLUO88id5DwtUwpf1J7Et9f7Nh28jyIQ8BCehwChSJNIw+WcEn44bSmffRPLZ9/EvFYYOT6avxgXxedfL+R/j1nA3zwPfz1mAaO+Duf746L4s/HRjBjkfiMnxPDnkxbxv6ZE8lfTFvLXZmFK+N9m4YyaGsH3J0fxZxMGv75/PEd8E8sfj43mG//UnpdVeFeiJivS+L7+ibiLWnl1dXVPWsQ+UX4vg4c4R0CjXa2lvLaVB0X13C2s544IRQ3cKWnibmkLD6tUyseyRJOzgIWmqZmWohIaHz2mJSeXjuzHaO51hc77+ehKq3mm1SnQUGk7KG2t4WFdAdl1eTyof0he4yOeNOXytDmPMlUxbVoVBuPAX5PshkdFRUVPWoQXImrs//iP/zik4PjJT34ypPcX0JPw6FejEaIcLAh4/CQug/8ecIBP/A/wScBBPglK55OQQ3wScphPQo/wyYKjfBJ+jE8WHueTiBN8EpHBJ5HPg/h/4Qk+CT/OJ2HH+GTBET6Zf6Tr2uBDfBKY3nVPcW/f/Qzz2cewuXsZ5r2HYV67Gea5i2GzdzLMYwfD3LczzHUbw1xSGea8lWGOWxjmsIlhdhsZZruBYTbrGWadwjCrZIbNXMcwiySGmScybPpa/i+zBIZbJGIWsZ2c/BfhIdpkhejf1yCA0R8el7KL+YtJcfzhV5H8jy9fHv5wdAR/Mnohf/mrYL74qTsu/8eMyB9/yYrPv2Dl578g9ke/wftvJ/HVvzrx4y8CGPHbcP5odETPff/wqwj+dMxCvj8+lJ9beuHgMYsFgVNYsmA8y8LGERUyCQ+vmYyxcedHE4P5bEw4f/RV7/Uvi9/w0RGM993ao88PHR6iVju4Dp/R3qHl2v0ylu68im3cMabGnGBK3EmmLj3DlJWXmbb2Bu477nO1sBG1Rouqqpr8Iye4unAxF938uGU7lyeWvpSY+1E+w49Km/k0J+1BX99Mi6aNc6V3ib2aiv3xCKyO+eKU6cm8s57Mv+jNwivzSMlZQl5DDhqdZsB4in4O4Rn+V8DjbXg0Eh4vgUV/iHTBI5P/2/8AH/kd4COxDTjIR0GH+Cj4MB/NP8JHoUf4aMExPgo/zkcLT/BRRAYfRWZ2bcVvsU8cE+eIc0MO81HwIT4KSu+6l7in734+8tnHx/PS+HjuXj722s3Hnrv4ePZOPvbYwcfu2/nYdRsfu6TysdNWPnbcwsf2m/nYbiMf227g41nr+dg6hY8tk/l45jo+tkji4xmJfDw9kY/NEvhk2ho+NV/7Uni8jyNchKEZFB4TFvM/fhvJ8N8sHDT80a/D+fwXAVj/vQXrvv9Tzv3JKHI/HUnF//OH1P+3P6D+v32Pqv8+nPzv/SlX/vAv2fY//5nZfzuZv/uPefzJr8P449Hh/HhCAOZOdiRFjCZz1b9yN+UnFGz9MeXbP6dix/+iOHUU9zf+DWcT/pnUmF/iNmcm/2eKD3/6Zdig8eob5/E+W75z8Pi2FsWIJT2XbxVgG7qXH05czh98vZTvTUzge9PX8z3rbXzPPo1PXQ7z12EX2H+3muqiMm5t3kbq2Cls/dt/J+3z/48T3/9XLv7Zv3Hnj/+dvOE/pfDPfkOt+yJUxWUce3qZaQeC+YuEb/ijVb/if/7/7L0FdBVX17hPgFKnUKG4QwhSHIq1WA0o7u5enALFirsEDxojSowQJZ4QF5IQhxAhEFeSQJDnv/aECwFCW/r7+v3ffm+y1l5zM3fu3DN3zuznbDn7nOyD+tledNHtwbdGXRls1oVlrmPwuevM/YelkCvbTumLfwUeYiH8T0nbtm3p0aMHo0ePZvLkyUpAvkuXLooF8j/1HWXPI4H+CrfVXwSIwKPNbgc+FJfSb1bU2GhNjU3WfLzpCtV/t6HGVjtqbLPnk+0OvLfVnne22vP+Dkdq7HWmxh6Rq9TYdZUaOx2pscOBGtvtqbHVlhpbbKjx+xXlXDU2XqbGBitq/GbJR2vMqf6rOTV+NaPGalM+XmHMB0uNqL7MiJoiSw2pucSAmosvUnORPtXFdTVXm5rzdKg5V5sasy9QfcY5Ppp2hpozzlJz2hmqTz7F++OOv9HyUGWG/KcEI9+mHfKwittN/Movua2u36b+4J180m8z1ftuek0+6buJun3W8m3n2Rxq2ItrNRpy792PKazyDiWVq/BYrTJPKqkp8lhNjRK1yhRXrqoAJfjjupyv15nRXSfy85iZ7Fr3Ey5HOpCo24Qso/rkmdSlwLQO903rUPhsm29Sl2yjeqToN8LvZFtO/d6fEdNm0PDHNXzS7/X2lW3zoGXn/2vgIaP2sgpZ9bqk5BEZWQVsPnQF9SF7qdZ7K2oD9lBp8GEqjdSi0gQdKk01ososS5pucMPYL5nrlnYYjJ/GoZYdONekPSYNOmBbuyPun3UksHonIt7rzO2a35I2awvRN0L4xXY/9Q8P5Z09fXjvYG9qHe9J89M96Kjdnd4GnfnxUgeWuI7CO+VqqeuqnJRi6bviVizrglO5rSToXFYR/0+8FlfY2LFjMTY2xsPDg+PHjysuMrFC/ifO/+o5KuDxF8EhVsj9h4/osM+Rr/ZdZeh5byYaBDD+oj8j9PyYYBTIZJNgxhsHMcEkmN7nfGh51J3e532ZaB6qyCSzUCabXWeiaQjjVccaBTJJPmsUyIRn5xuv78d4XV+Gn/NinLY3k3V9mKTjzZiznvx8wpXRWh5MPOvJ5LOeTD3nyaTT7kzUcmPUUWdGHnFi6ilXJh53ZtIxZ8YccmTYPjsmH73KlCNXGbLTGo1f9Phk/HFG/67/ktsqMTFR8T+/jcL+Tzu2XHiE3KbBoB2IZVH9241U/0Ylm/jkm4007LWan9tPRrtOR+68W50HlavytJIaVKr0hyLHCFwyPvwQxy6tsF7RiahTLcgzqkvRpdp/SQQsSbpNuLTna6bOmUTTH1dTs++GMm1UtbV0O3jpfw88RPGW17/EBRUVe5dR807zeZ/fqSLw+G4vlYZoUmmUFpUm6lBpujFV5ljSbJM7+h63cNA8xeEe/djfpC1nm3bApGEn7Op2wuOLTgTV6ELk+11J+LQf92b+jouvE/0vLOajnf1R292H9w71ofbxXrQ405NOOl/zjWEXfjLrxFLX0XinOFHwIJ9Hjx6/1laxgv8n4VHWFfWqIpf/JXtr5syZ+Pj4KEF6CwsLxfr4M3i0+ZvWTwU83gIekm317VFXVlqFYhCcxMWQJPSCk3CKS8c7MZsr0WloByVjHJ7CqYBEFttEcMwvAYuoNHSu38EiKhXb2HSMw+9yPiiJC0FJ6IckcznyHvYxaVwMTkI7IIEL/gnoBCRgFprMtfgMbCJSuBx+B4+baThE3sU0KJGLfvGYByfiFHkXk4Db6HvfxDI4AY+YVNyj7qLvFYuxz01sQhJxDr+D/fVEbIITuOASybj9dnw64cR/BDxkFCkPmUh5iuJt90nM5jXLIySehj9tp+a3G6nRZwOfPJeN1Oq1jp/aT8OwVjtyqr7H0z8BxmtAUavE048q87jruzycUZ3iXZ9RpPflXwJHWcCkGzTk6uFOjJs+lQYDf6XmN+vLtPNFm4csOfdfYXlI8sab4FFwvwjfwJv0G3eIT3puouo3216HxzQVPDzQcYrCcucB9nTqwf6m7TjbtCMmjcrA45POz+FxZ8YmLntcoevJmby3va8Cj/dfgkf3Z/Do+AweVykoLh9y/xPwEFeUWBRdu3ZVXFLilurevbuSrSVpvmXBIPCYNWsWfn5+SgKClZUVw4YNe+kYFXQ0NNRp21adTp3U6d5Nne7d1enSRZ327VvRpk0rNDRa/am1UgGPt4BHccljJun6oOOfwC7naH4868XA0554xGcQlV7AdpdY+pz2YoxhIA5x6VxLysYmJo3ZlmH0OevDCvtI9nvFM9k0hN6nr9HvrDcj9P3Z7hLDEa9bDL3gQ9+THvQ74Ubf466M1fbmcngK2+xvsPFKGK6xaex1jGDYCVcGHXFmpUkgmlcjGXXclf577NhnG0ZKTiEWgbf5YY8NQ/fbccopgjtZ9zluH85W0wDOOUcy74Qzn004wditBoTFJSvKSDq6WB6SNqlS5i+2ouAfU/KojMj/ZRS/HCuK/vHjZ6Lk4Ze8+P/xIx6VydlXjn30iMKiB+TdL+J+UbHyftlj5JyPy55TzvHoBWxetO/FXACBh7gGXnJbCTx+3EbNPhuo0Xv9cxGIdOm8gDN1OpP+zod/aGW8Bg0VZCpXgnfVePpFFZ7Ur8qj7z7gwd7PKDL9a5ZHWYBkGdbH5kAX+o+Zy5d91z5vZ9k2D/nl7H8FPOT+CTzKu8cFBYV4+8fRd+xBPumxsXx4PLc8PNC5GonFjv3s7vS1Ao9zTTti+hwenV+yPO5M38Rl98t0PTVDgUfl3X0ohUdvWp7pSefnlscLeOQXl861ebWtYgXLPJy/67YSMAgohgwZwrx581i3bh0bNmxg2bJljB8/Xsl2UmVtqSyPP4eHBgo42jSi77cNmDSxIUuXNGTF8vrMm9uAYUMb0a1bEzQ0WqChofGHAKmAx1vA4+Gjx5zwjEM3IIHZJkFM0Pej2xFXdrrEKJbDMutwNA650PKgC0e84/FOyuaEfwJ9z/lQd58z44yDWWUfyYDzPqyxj8I4LAW7mDTc4zM57HmTH854sdslBsOQJFZfDqX9HgcOu8Uwz9CfiReusdU2nO80nVlrEaxYHZevJ7PcyJ/Rx134bq890864Yx+WzHn3aDpvMKPlCkPGH7mKdVACG4x8WXDalaO2ocw5XgqP6fssiUxIfQkeko8uD8HDhyWUPHxIyYP7lORH8yjdnsd3zvM4+SSP72jxKO0yJQW3KHlYrBwvAPCLvYeeWwxnrkbiFJpERFImtoEJnHK4gY5rNIlpuRQVPyArr5DAuDT03WM4aB3KTrMgDlhdR9c1mlv3cigsfqCcM7+wGP+YVOWcWo4RGHvFEZGYyQNpl9LGh0qMQx5SEdlXLjyC42n0/VY+7b2emr1+U+TTnr/R4OtVLGk2iIgPvuCRWuW3hsfTjyvzuMO7lIz9iJKpH1My/WMeLq1B8dEvKDJ5e3hIXOSufiO2rfqJDoN/4dNnbVW1WbY/Lz7zRnjIbyAuCz09PXR1dbGzs1MUl8x7CQ8PV/zgMkBwcXFRjhG3RkJCgjJgiImJwdzcnJMnT3Lp0iVu375NSV4GJIfC9csQdgVu+1GclkBcbCz29vbK3Az5TpnQ5+npqZz36tWrXLx4kQsXLnD58mUCAwMxMTFBW1tb+V++R9JyJQ1XgsriDn5Tqq4KHqr7q7rH+X8ED4l5jNeh0pTSmEezTR5oO0VisXM/uzt+zf4mbTjbqB3G9b7CptZXuNf8ioCPOhJRrTMJNftxZ/pGrNwv0/nEdN7b1ge1nb1490AvPj/Wg6anv6aDdjf6GHTmJ7PX4fFqO+X/vwsPsSp+/PFHfvvtN+V+XL9+XbmXMmckNjYWZ2dnjhw5wtSpU+nVqxdiofwVy+Orr9Tp17cxy5Z+wbmz1XF3+4jIiA+Ji/2A8LAPsblSnZ07PmPUqPp06NBMsUA0NMoP6lfA4y3gIRORPG9lsMU+gqHnrrHRPoLhOr4M1fbhpE88v1iF8c1pL/qe8WbapRCO+d5moXU408yu0+aIG2ONglhuG0Gf09cYrO3HQstQ1jtEohOYyF63WHodc2OOSRDrbcMZfcGbbgeucs7nFnMN/Bl52oMFhv70O3gVw4Db3M4s4EpoMoMPX2WBrjfztL0YfMCB3y2COOZ4g4G7rjB4r50S71h83pP5p92YdcIZzSvXFXh8PuEEC47ZE5eS9Ro8pNM/eCDygIfF+ZTk3qDknjklt7ZSGDySEv8uPA4byaN7xjwsylIgI2D43SiAr9dZ0G2NOUdtwrgScJuZx91ou9yUn7bb4h9zj6T0XCx8bzHvlDs9f7NS3mu91ISvVpQe4xaeTH5hEfcLi4lMzOBXHR+6r7WgzTITvttyBT23aAqLinn48IHSPmmjSqTdoohk8py4PQQmopy8guNp/N0WPuv5G5/2WEfNHuuo9fUaenaYg/Wn6oq76o2WhcrCKGf7tGZlHvd+j5IpH1Myo1Qezq7Ow+UCkM8pMqr91hZIgUkdPI+0Y/SkKdTuvUZpr7RZJT8vejM8JMC8Z88eZRLaL7/8wvLlyzl8+LCi1E+dOqWMXM+fP8/KlSuR9zU1NQkODiYoKIiDBw+ycOFC5b3tO3bg5+pAcZAVWG4Ag8VgvhYc9lHoY4yLuR4L5s/D0dFR+a2l3IaMhnfv3s2aNWuYMmWKovTOnj2rgET+nz59OkuXLlWOiYiIUFJY/wgecv9E8ZZVyKrXefmFXHvF8qj83V7UBmvywbizfD7LkC8XWfLlUltab/NCV+CxYx97OvfkcJuu6HXpy+XuP+Dc9Sd8vvqJ0ObfEfVZHxK+GEjKjM3YXbPlO+2FNDw4hLqag2l4cgga5wbRRfcHel3sRz+j7krAXGIe1+5cJa8op9x2Sr8UcL+t5SEQ+Omnn5R7EhAQoFRLEJDKuSQNXX4X2cbHx2Ntba389lLmRGZ9/5Hl0aaNBl27tmDBgno4O1UnMbEa6envkHq3GvdSqpGZ/g7pae8QG/MexsY1mDatLl27qgDyuhVSAY+3hMe1+EzGavvQ/bAzUwz8GXT2Gu0PObPI4jpTjIIYpuvLescoBpzzZoiuH8P0/Djud1txUU0wDmK5zQ16a3kxSNtXgccGh0guBCSyxzWG7kdcGaPjyzyTQH4U5XrICV3/28w3VMHDj/6HrirxjpCkLPbZ30Bjg7lieYw+7kyPrZcZqXmV1Qa+DNlnx++XAlhr4EPvTeb03HCJyUcc0bxSankIPBadvMrNu9nP4SGjUBkRqpRx6baIB0V5PLh/j7z0QMJ8thNu15dsr+6U3NzMw4IExZrwikhh+G57as/So8OqS5j53FQUvSj8L2bo8sM2G7wjU3AMSWDqERcazTeg+SIjBQgj9zowYo8D04+6cC0yhfz7RaRl56PvFq2A44uZunwy5QLNFxmy3TSQjJwCiotfQKNse8XtpoKHKJtSeNyi8cAtfC5K+Ou1fPb1Whp3Xc60liNIfPcTHld9B6pVK5XKleHdd+Gdd0BelwMNZV/lSgg8nrR6h8ed331JHvV5j4fLalCsI7GPehSZNywVszp/EguR9+tx72ITNiz5GY2BS5X2SptVMnThaeWa5LpenechymXt2rWK8hbLQ0amkra5efNmRZnPmDGDVatWKfukLpGDgwOiyPfv36+4RY4dO4a3tzcenp7EXTXkocFSOPYzmK4Cp8Ngu5MHlr8TpLuDmTOmKyAICQlRADFmzBjFuliwYIEyGhbrx83NDR0dHaUOkoygBVoyu1pGzuJ+lGsQKc/yEHjI9ZS9t6rXeXn3ueYX+8xtVRrzEHhUHqRJq4WGjD3kxkKdIKadD+bH40EYukVjr3mKC2OnYLFgGV5b9hCy9wg39hwlbvMhkpftImnkcpI7TSJ17jauh/iw2+scC+12M8tmB3PstrPcZScbPPewxn0Ds+wnMdKqlxLzuHbHkdzC8tsp1yVKXq5FNeFRXKrff/89b8q2Eoujf//+yiBA7o2AQvqz/M5i7V25ckWx8m7duqUAWN6T+7h48WKlPpbAw9fX9/WYh4YGbVtr0L1rS+bPb4iDYw1iYt4nwP8DzE1qYKT/Kc4On3Ar7n3y8t4hLfVdLpnWZML4+rRr24yWLdVfc2FVwOMt4CFuqzPetxh4wp1h57xYbB7C/EvBisXQT8uTAae9mGgYgE1UKqP0A2hzyIUpJkFcS8xiuJ4fU02DWW17g4FnrzHzUrBibWj5xmMensIBt1iGnL3GMa+b2ETeZY9TFN9oOnPMPVaBx6QL19hhd4PvNZ2Yr+/LBosQJdbRa6eNYnks1vNm2GFHem214vvdNgzea4uuRwyWAfEM3n2Fz2eeZcIhB46VcVvN1bQhNjlDeYBllF4+PF4o6bTsXEw8Qlh/Yg9XzUeTE/oLxTk3yMq9j6Z1KF1+NafhvIsKBILi7nHCLpyev1lSb44+c0664Rt9l70WwXRabcbnM3QUcBh4xBB0MxW/mLu4hiaRnJ5LQWERNxLSWX7+Gl/O1KXJAgPqzNZTgLPotAfRyZncLywqV7GI203cKPLAPodH0C2a9N/M5wKO7mv4ovuvtO+4gL31epL1zvs8+fxznmi05mnz5jyu+SlP230FzZvD++9D1apQpQqoqZXCpGpVnlZ9hyfV3+dJ6w943PtDHn3zAY++fbaV199/yMNFNSnSbkDhla4UOf1AkUNfiiybUmRWjyKzuhQpIKlTun32utCsAYXWHcmz6oze9gEMHD6TT7uvUdos7RYZukDrudItDx5ScE+sAHFTSckP8ZWLa0OycAQehw4dUl7PmTMHLS0txf0h72/dulWJeZXGlB7x2PMcT48MhhMjwPFAqevK6zxPzNaSarCOfXt2I6A4ceKEUuRPrAqxQGQ7fPhwtm3bpqSMivtKALZo0SKlXXPnzlVcYmJ1KCVA3gAPca+9CR65eQXlwqPqT4cZtsMe66BkEjILCUnM4VeLaKx84ol2uUacjQPpUTFkRcdx18uXJCs77hlfIcfSmVwDW9JnbSVjyT4KbiWSWpBBYGoUptEuXAi7gn28FzHZ8dzMiccm3pJf3Wew1HUUXskCj+xy++LfgYfEOMQCDA0NVYAjLj4Bxq+//qqk4Y4YMQK5d2I1RkZGKuCV/m5kZMS4ceOeZ1tJnbqyAfOv1FvRrbk6PVu1olf3FixcVIddO79g5fI6DBnUhO8HNmfKpCYc1azN9ZCPKLxflYz09zh86DO+/aYBLVo0r4CHarTzd7ZSGFGC12suh6IfmIBRSBKW4Snsd4tlimEgo/X8WO8QQXhqHqf8brPIKpQLgYncyy9mrX0EW5yiOXrtFvPMQxir7890kyCWWoVy0vsW5/ziWWcTjmNMKn6JWRgGJbLINBCDwAR2OUSw3e4GHnFpHHeLYa6uDxNOuzP9vCfHnKMwD0rAIiiBc+4xLNL2Ysh+OxZd8MQ+NIm4e3mcc4nk+61WbDDwRdslkrnHnfhs/HFm7LMkqkzMQ/zcMulHOn15kpN/H+/IOwzYZMrMXTtwddxEblogt+5mMumQE43mX6TDykucd4okLiWTTYb+tF1mSuP5BmwzCSA0Po0dl4IUF9Vn03Xo/ZsVR66EIqDJyMlXgFBUVIx8j5l3HN9vvULNqdqM2edYCqG5+oqF4hmRTF7BfR6U087y4HFN4NFvE190+5XPuq6mVtdV9G47A6tPW5L84Wck/zyagiPHyduyg7jhEyk+r83j9et50rYtT1u0hLp14YMPoGZNnrZsycN2X5E1ZRKFm8ZSsrodJUsbU/Jbe0oW1SuVVS0p3tiaJINxZIecJC/WkrxwLQUixY7fUGzTkWKr5hRfaUvR5TYUW7WhCQznAAAgAElEQVSgwLIN98x6k+qxgfxrC/E4/QOTJk3g066lbZZ2iwydf+pP4bFixQqio6OVUasobYGDuI1mz56tjGCdnJzYtGkTP//8szJila0oe1E4z/88z8DBAXBoIFisBw8tsN8NBososvwdJwd7RVFJMFeCt6ampty4cUNxlZWFh8Q6evfurQRfZaRqaWmpjJhV3/Mmy0PgIaP28vrhG+Hx42HG7bvKteg0Hjx6QmpeMVts4rC/kUZOTgEP8wsozsgk+oIBrhPmKm4r33Y/Ev7NROKH/8KdvrPJXLJPKVEiiRqX47wZZb6BNloTmGmzCb97IeQ/zOdmThQnr+9ghdtYvJIdyL2fzYPiB6+1VazgN1keYmFIQPpVkTiHuBZVLioBgNy7zp07KzGNbt26KZbLkiVLlBiWWDQySJKYiFidMki4du2aci/ls1K5t42GBv0bt2RJvTb8Vv8rBjdRp3ObJnTq2JSOHVrQtq1kWGkomVb9+zdj06YviYp4n+KiKlx1/IApkz+nWbNGr7VV7mvFJMG/aH1I0TWrsDtcup7EMc84xlzwZr5pEIbByRiHJCuptpYRd7GPScUuOpVL4SmYhacQkJyDVeRdrkSl4hCTpuzXkzTdoCSMQpKxjbqHU2wql2+kcDUmFZOQJAUe5qHJuMamYnsjhSvhd3COuoeB/220r8Wh630TQ794RRbqXmP6GXc0HW5gHnAbXc8YzPzjcQhNxjYkEROfm+i6R2MdeBtd1yjG77fls3HHmXP4CjFlLI8/gkdRcTH59wuJu5PJqH0OdFlxltUnzxAQ7oe1Xwzd15orloEoer/oFBJSs5l/yl3Z12yRIWcdbyj7rP1vMf7gVcUaERdXl9XmLDztgalXLElpORQWFhF/N4vNhn60WGyE+i9GaFpfV6yZ+nP1le8x944jK7d8yJUPj5s07beRWt1W80WXVdTuvJKBGpPx/qgeUbWb4bNmF/eCbpDi4o3bMSPSQqNJs7QjcdMu0g8co3jnbu7PmM399ZvJ1TzO3fVbuWnlQJqNBWkH15Knt4cCSy1yDv9K4s5lpGvvJVN7N7e9rLgZYEW4w0FCrDYQ77aX1ODzZIcc457rSnKC9nL/xknuemwmPeAw6WEGZCYEURi8mRt6/Zk/fRSfdSlts7RbZPi8k38ID1EgMrtYgtaihKR0tlRxlVjEtGnTlEC5KHB5T46bP38+oojEIjh37pwS4BYLItlZn4da42FLWzgyCM5PBa0xoDOLR776JCcmKK4w8bPLeW/evKkAS1xTosAk+C7nEbeVasazQEVgIq4bgYb8/R145OSWsTyepeqK26rqj4cZv+8q3jFplJSBh0NEBvlFj3hUWESqdwBOE+diodETu/qd8fiyC4Gfdyfq017crvMdGXN38Cg5VSme6J50naWOhxlivJwNbpqEZUSRVZyFd4obG68tYKmLWB4O5NzPeg0cAj2Bh6SNl+e2Kg8e4sqS31KSD+TzYn3IfZN4Rs+ePRWXn1ggEktyd3dXXFMCJwGtJEeI6+pVeAwbOpS2LdWZWlcdszrdCaj3LQfqdWRA01a0aaX+LCD+AmLt2rVk2NCGXNSrQVZmVaKi3mP9+ppoaDSogMffsThUn5FU3cUmgYw+56XEI75cb0mjLVcYpOXJGG0fxuj4MFrHR4mDjNTxYZSuLz9f8Fa2Y/X9eC56fozW8VWOlRjHWB1fxun4ME7bh5FnvfjhhBs/nXBj7FkvxslEwbOejD3jwfATrvyk6cSwo86MPuHCmBMuDDroSNNVxjRcbkivrZcZe+QqYw47MvawIyP22/GTBM53XmHMfjvG7rfl+98tUF+oQ81xx5iy6xIR8XeVB1jcVgIPCbpKpy9PCu4XkpKRw2/6vrRbbkTPtYZoWrqz/Jw7LRYZ0n7FJfaYB5GUmq24w0bvc6DWTF0l2G3le5OMnDwSU7Mx9IhWYNBplRkN5l1UYh/Ddtlhei2Wuxm52ATEM2qvg+KqGrnHHoeg22y46EurJcY0W2jIKftw7mXmlttGGYmJO0ceKJXb6lrgTZp9u4EvRQF3XkWdTiv4UX0iwe9/SWSLjjjtPE1kQBTJobH4u13npn8Etw0sCN2nxQ0TO+54+JNgYEGaixfJJpcJWbuLW94B3HSyJ9rMnCRfb8LdvUlwcSfAzI4oN28CjE25G3OdZLetROsPIPDMAK7b7ifM24HbkQFE+lwmJTaAW2EexIe5ERtgS4CHI8kJCRT7LydOvxu/zBzO551K2yztFhk+90S58JA+Kvdu3759TJw4UXFzSMB8165dik9cXFQCFnFbSbqnxD4EHAIR8ZmL5SFB9C1btnDgwAF8r16m2P0snBkHB/uXAuTcZHDW5GlqLA8fPMDQwEBRVkePHlWsHHF7StBc3Co7d+7EwMAAQ0NDxa115swZJbYi8RcBjfS35/AoKlIUYV5u6fIAci0qy6O8fpiTk4+XbyzfjDnAx89SdVXwUFkeD8vCIzKD/OJHlBTc57a1PVb9h3OpYUds63RQJgkGfizZVh25VeMbMmZtK4XHk8dEZyViFHmVw/6GmETZk5h3h7sFKdjcsmSF6wyWu45R4JFdkFVuX5SBjMBDrkU1QlfFPF6FR6tWrZBSImI1SqxD4CEZVXJPBPISo5KsNclek0C5nDMqKkqBhsS2xNUlVovAQzLuxN2luK2GDqV9i5asqNMa39q9Sas7EL26XRnUtDVtW72AxgsLqBVfd2/Kls2fk5QggfT3OHbkM7p1lfTdl4+vsDz+otUhHfr+gxLabLPhXaXelBFqS0SMqbzMpFSWmyoFDauuMqPWZmsa77Cj2W77l2WXvbL/sw2XqbHOkrqbrWm23Zbm20RsaL7VhmZbrtBogxUNfrOgyUYrmm20pLnIBguarjOnwUoTGq0yodmaSzT/1ZQWq01osdqY5iuNaLbckEaL9Wm0SI+mv+jTfIk+zRfr03i+Ng1nn6PxnPO0WKBNu8U6zNlrQsStO8/hIZ1Ssjqk05cn9+8XkpWbz0W3KCWQ3XShASN229Fp1SXFkhi8wxa7oHhy8grwj07h+2fB8p7rLHAPT1Q+m5dfwL2MXHwi77DdJEBxR4kFInGN5ee98Iu+wxYjf8W1JeCZoumMrkskK857KRCSYzcb+itwkva82k55SMuDR/Nv1vNl55XU6rSSuh2X80PLifh9UIeozt/itF8bf0d/7kbfJtr/BjEeQcSfNyRK8yxeZ8255RtGsJEtodZu3DaywnflDlJ8fLhxSYdwVzeuewdgY2xPsMs1/F18Cba/itH+I9yNCaTQazaZlzoQof8z4VeP4mprSfj1UIL9/ImLiuCqlRGJ0UHEeJ7H/LwmN0JvUOg5jegL7Vk8fTifdyhts7RbZMScF/CQmIYEVJ8PboqLcXV1RTKrTp8+rbiIJLAqQVXJ2pGAq0wgk9H/3r17FT+5jIoFOhIjkSC7KH2JU8TGRPMwK4Wn0a5KoBzrLTwNNOVpRjxPH5UmIoiSk3OKu0pALaNgUXgCCtX3iyKTrCw5RpSd+OZlK5bsU6XSbQnFuZmkJsSRl11qkajgIYr31fsr/ws8ZJ7HgAma1Oi1mWrfbKPqwL28O+gwUw+74BeXwYOSxyRlFbL+cgz2YnkIPO4XkuTkhs2wiZg164ptnY64f9GJwBqdifywO/Gf9ydjzvbnlodPyg02epxhgtUGVrvuxys5kIyiTCKzwtEKO8BvnjOVmEdWQelaJK+2VQYyAou/Cg9xSclcDkkokOQAuWdyr8SKk99agCCuRXktcRABtVgqEmAXt5ZYgQKPlwLmQ4fSsYU66+q0Ibh2b1Lr9kerTke+a6pBm3LgoUCsc1N+W1uL27eqkXHvPS6c+ZJv+7SsgIfqQfs7W4FH621XqCbQWGyI2i/PACIwkSKGApEVplRfa6EE08/738YgJElxZ8mMdJXILPJ5pkEMP3eNrQ4RGAQlcTEwkYsBiRgEJKIvs8x94tHyikPPLx6DgNtc9I9Xsqz0fW9x3CWaMx6xGPvd5qLPLS763MTA5yaGsvWO47xrNGddotDziMHAKxZDr1guuERx0j6cC86RXHSP5qJbJMaOviTdTfvL8JCHo+D+fXyj7jB4h40SzK4/Rx+JXzReYMBaPW8iEtIUeIil0Xt9abBcsrD8Y1IUhR93J4PktGzFwohKTGfJWU9aLjai3lx9phx2UsA0cq+9YrHUnKatuL1aLzWmyUIDJWtLgDLzmIvSBgHRqw/sG+HR+zdqd1xJrQ7LqdN+Gf3UJ3O5ejOu9x+G92Edgk0dSI2II8zEjps+oURe9eFWYCQeZq5kBEcQtucEnieMiA2KJuyKBxnhN4gyNCDM3pVwZ3+8jurif+oCUVY2xJ44jvbcVdwO8acg9AgpTsvwsjxKzI0wXF18uHEjDn/fEEL8/dA7dZy4MB/Sb1wi1M2AW5FB5DmPw/9kZ2ZOHMUX7VcobZZ2i4yYffw5LAQe4huX4LOI1H6SEasoLRF5raoHJcpd/petvCfAkN9OAuTyWbEE5H+Bkbwv/z9R1r14yJPifJ4U5fHkYRFPHpceL5+Rc4mSk2Ple+Rcqu+X+yDnk/dlnxyj+o6Hz45/ItVos5J5GOZIZoANBamJz69NFO6b4JGbm094ZDILNxrRbtQhvvxxD18MOkDDSWfYaRZC3L18BRa+t7KYa3AD67A08u4X86iomNyEJPx2HsS273Dsm/bAq0FPJVX3ZocxJLUdS+aCXZQk3VOu/XKsFyPMVtP4xGC+0Z+KUaQNWUU55D/Mw/OOM7v81uKV5EhWfsZr/VCuXX7Ht4GHAEASDgTk8lvKPRLwi8i9lrRqAby4riRwLrPNxdUlFoEofZkwKPBQzTAX96TEPL5q3pIldTTwrd2TjLr90avTkZ8aq9NWXWaSv2xNtG7dim+/ac7+vV9yJ+k9UpLe5/iRL/m6e+mkwbLHV1geb2l5tN5qTTWpcrvI4BlADEstEAGIlE9fbsoXv1lyzCMOw+BE1lqHMcc4kPkmQcwzCWLxpWB2XY3CJuIuzrFpSirueusw5hr6M9vAX5nTIam5ay1CsAhJ4nJoMluuhDJXz5v5ej7M0/Vmk2UItmF3sAxKYOZZD+ae92TBBU82mwViEXAbx9BkfjP0ZcEZdxaf82CfVTAu4cmccghj5XkP5h13ZuFJZ3brORIn6xc8fao82GJ5qJSHdPw3SXRSGvNPuSmB8BpTtRElL3M7DN2jyMjOJS0rjxO2YXReZUbTBQbMPelGyM27HL1ynXV63uy6FMgJ21D2mgcxYLO1YrVIbENcU+sv+tLlVzMFTLJPsrUEQhJTkRjI5zN0lSwtm4BbZOXkvdZGeeDkQRPlI8pNrs07II4WvdZRp/1yvvxqGXW+WkrXVjPYU6s7Nv3H4bTuAG6bNAnStcJq1T7ctC9jcdwMJ1NX7M9dJsTaA5eDOrieNMHD+CoWO88RbOeB78lzWGmew+WiDX5HzuOx/wihuudJ2rGQqzO/w/LsBXxcnbh21RK98wZcdfDgiqUDbs6eWFvY4WV9HrMjC7A2McDVyR0PFw/CPS+RYjMWs139GD5sIl9+VdpmabfIiFnHnitYFTxUilsUjohKUav+f3X7R++X/55UD/jr5WPKP0dp25S2CDxy7vEkyoWnFut5tK8feWZbuJ8c/fza5P6J4i2vDxYU3CcruwD/0ER0bULYpefFVh0PTtuFcf12JinZhQQmZLPRKoo+B/0w9IrndmgUqWE3uH/3Hhk3orhpZk3k4dPc2n2S9BOG5Jy3JGPmVjJ/2UdRfDJ5xQWEpt/EMPIqR4KMMYy0ITIrlvSiDG7mxGAQdZr1XrPxSnIohcf9UliUba8A9K/CQ5SyuLIkRiUTLQW40pfFcrS1tVUsRXEHylogqvIkMh9EZparFHrZSYIymVCSGAYNGkTrli2ZWL8VdnW/Jq/eQELq9GZRXQ26NW2hQKeVwEeRVrTRaEX3bi2YM7cBly1rYm9bgxXLv6R16wq31fPO+bctjy3WVFOVRy8LkGdWSJVlxsqysUfdY9nrHMX3J92ZZRjA73Y3FCtjpeV1pdjhJtsbymz1BcaBSuHDIafc6afpzHKzINZbXWf8OU+mXbjGOotghh5zYZyWO9usQ5l1wYsB++zZdjmEndbX6bzJkgUXvNhsHsRRh3AlWL5S0nb32bLwrDsbjfzQunqD884RjN1nw5i9V1h13oP1ul4cNXHl9p0XM8z/GjwKuJOWxT6LINqLlTXlAl/O0mXOCVd8o5LJl5XTMrIVSKgvMUJkk4Ef0YlprLrgRfc15krsQib9aTyLYXRebcaMoy7oOEcqwXTJzhJrY9lZT8USESvptEM4UzSdqDNbX/mcrnMEaVmlo+SyD+yb4NGy51rqtl9GnXZLFWnVeh5zG/6EZ7Mu3Ojan+gufYkdOIyADn0J7z8M/z4/EzR0CiGDJxA9fDIBgycSPnIakUPG4dexH5GjJhM3ejDeE3/Ed/kMIlZPJ2LJcG6tGEbWqs4k/94M10M/43txEaGXFuKiNRG/iwvx1Z/LdeM5+OvPJMZ4BNEXuuF5ZjS+BgsJMFxInNk4kk16sXf5IL7+dha12y2jdrulz2XkzKPP+7C4McRVVBYYKsX9H7kVKyUvnUcxHjy238dTzZ94uqYRj1bXI8/oV+4nRT6/NomfvAkeYnnE3LzHCW13tmk5s0fPC03zQE473OCcUxQ7LcKYcMKHVuudaLXFEx3nKFzO6GL1y0qu7ThA+AUDYi9eIl7bmKST+qQeOM+9lfu5238+qXN3EHvjOrqhduz1ucg27wts8z7DgcAznA7T43TYGXb6bmae4ziWu43FM8mezPyMN0CuQLEa/orbSgAgIBgwYIAyx0OSDcRdtWPHDiXFWiwNeU8C57KE7aRJk5TYkrxWWR8CD8mok89K+q7EssSt1b1bN35o0YbD9ToSX7cvOXUHYFm7K/Pqa9CnaUs6t2xFR3UNejRvxeAmrRjSQp1vuzVj+tTGzJvbkB++b4S6evPnkFLBqsLyeFvL4/fLVBNoLLhYur6GvF4k622IG8tQWbhJ1hvXdIthi90Nehx0YqqeL5ttw9nvHI2O32022YTT/6grvQ85MVnHh0Mu0cy+6EffQ07stL+hpOOOP+NJ7732TL9wjb77HBiv5c5xlyhlTkeX361YZeTHJrMgmq82ZvZZD8XqOGIfjpZzJFOOOzFgmxW/nPNgt3kQBp4xitXRb8Mlhu2w4jddL/aY+qN75RoJKS/cVjLKETeIjJj+SDJzcnEMimeJBPF32zHp0FVMPKNJuJupfC41I4fDl4MVZT/7uAumXjEKcE7ZhSkup5932vLj1isM3m6juKp2mgbgEBSPe1giq3WuMf6AIyvOe2IfcIt7GTncy8jm1p0M9FwjlePHHXDE0ieW9KzX2yoxG1GqonzKWh7qPdZQV8DRtlQatVnMoGbj8PykMdnvfcyDdz/gwfsfUvTu+xS99wFF739I4QcfU/RhdYo/rE7hR58oUvzhxxS+8x5FH35Eca2PKGxbnbyvP6ew9+cU9fyU4t41eDC8BoWHviBTvyHphs3JNG5OtnETsoybkW3SjByTpuSaNCHPpBH5JvXINm5ElnFTZX+OSWPCTrVm7oSRNO+88Hl7Ve0eNeNleIhrR0Ah1/ofKVKloOi+Ej8pifPhsbsWT7TG8XRDS/jlY5hbmUfLPyfPcPVr8BB3TXn9MCs7VymMOGruaTqOOUSX6Vr0XKxHr5UmdFlpRoslZnw6z5xqc6yUqrraVyOx3Lmfg92/QatbPy59NwLHIZO4NngqwQMnE9ljHLEthpDYYBB3Z/6Ok48jIw1/pf2JibQ9PZGO2hPpZTCe70zGMvjSUAab9WOQWVdlnoeHwCMvvdx2SttFiUtflNcyYBUgyiTBVwPmKoUsrivJSlu9erUCiJEjRypzdSQWpZpoKbEOKS0jsSRJuR44cKBS/FAgIlCRVF0ZVEhigr6+vuIK+65HL2Y2aI1Nne7k1B1Icp2+2NXtzu567VnYsA2zG7VlY4P2nKvXhWP1OjO+cRt6tG9Jl87qtPtKXbFQVG1UbSvg8bbw2GxFtUUXUZuvX7owkyzQpIhAxEBZ8a/WGjM0XQUe4XTd58CPJ9yYoe/Lr5bXsQ5Pwfx6Mp322PPlr5dYYRaEc3QqK82CabftCiNPuTP1wjWGHHVhrp4Pa82C+HavPT122jDtrCcD9trTa8cVpQjizssh1F96kZ8P2DNTy431xv7oesRy0vEG06Qku6YjEw85sOi0K+ecIlij48XkA3ZM2GfLmJ3WbNS6QmzCi2wrgYd0Ohm9/5Hk5eeTlplN/J10ZZ5ITGIaqRnZ5OTmKZ/Lzc0j8W4mMUlp3ExO5256FrmyrkFalrIvOC4FrxtJ+EfdUT6fnJpFRlaOAgM5Xs53OyWD9MwXcJDPC0TknDI35W66lGko/b6ybRW322vw8I9Dvfsa6gk42ixRpH7rxbRTn82+L7qT9E51Za2ON84mf9Ms8yqVeFqjMk/aVlOq6kpl3ce93uPRuI8o1vqCItOy1XXl9atStv7VlxSa1ibbsC7a63owYMAU6rX55Xl7Ve0eNf3I89G5XKcoI9XM6/+YbXExD4qKeHA/jwdZKTyMD+KR5wUen5nE03WNYfGHMK8yzKlUCo9l5cNDFG/Ze6t6nZGZg6dvDH1GH+Cj7huo3GsLav33UOmnw1QacYpK47VLa1vNlpLsUlW3tDDirg7d2de4DWee17Zqj3vN9gRKbat3O5FQs++z2lZWdD4xjfe29UZtZ0/ePdCztLaVVnfaX+hKb4NOz2tbeSbakZGbVm47pb1vCw+xPgQCAhERiWGIBSLPpiQdyExz1XMqAz1xccms8o4dOyr1rSR4LllZqjXgJcBubmHBqJEj+aaZBivrtcGrbk8y6g0gq05/Ymv3wat2D5xrf01ond7cqduPmLp9OVyvE982aoFGCwHHy3GRCni8BTRULi4lYC7wWKiP2jy90hX9FIioAHKRKosMqLX6Epou0WyxDeebQ1dZbRHCee9bGAYmYByUyGrzEMVF1XO/IxPPeynHLjDwo+suO2S7zzGCC943CUzI5IxHDIMOXVXW7DjrEcta00C+F7eVZTA7rIJpt+4SG6Rarms0VoG3CUnIJCYlF3PfWxyzDWOqpiOdVxly0j5MKVYoabJbDHwYsM6UcZv1uB5TGqSU0auqU6oe0j/bFuTno5Lyjn3Te3l5+Yriz817HVJv+ozq/H/2vsBDHpiyloePfxytuv1K/TZLqKux+LnUa72YnxuPxv7jphRWfufNpUj+CB5SSXfUR5Qs+kSpafVg+6cUn6n1twoj5hnXIeSYOlNGjEK947zn7Szb5tHTNJ/DQ65TlJP4x8tLaf3f3ic1x6SoZdF9mYx3hwc3fSlxOsrjo0N5uro+LHwf5qrBXIGGSirzaNln5Bmses3yeDM8shV49B17gOo9/2JV3Z0H2P2sJLtSVfel9TzKlGR/qarut6iq6n55vFe5VXU9/gAeYgVL5p9q/tRfsTxUilkC4F9//bViWUigXALwcp9lgCD3VcAhWVkyw1/KrgtwVOAR4MiCUOKGFutN5vxI4LydhgY9mrRgft1WXK7bjcS6fSmoO5CCOgMpqD2A+3UGKAF1v7q92Fy3LT0aNkOjxetZVqo2VlgebwERBR4bLaimWgZ2nu4rENFX1hivtcqUIy7Ryqzwbnvs+fbQVcac8WTsWU+GnnJj6Ek3jrrFcCk4icVGAQw+5kLPPfaK1aHjc4sL1+LYZn0d6+tJnHKLZuxJV3bbhBGZkqPMJh9zzIk1xv5sNguiwZKLDNxxRZnbsVTHCy2nCE46hjP1yFVG7LFh4O8WjNprw0m7UFZf8GDSfluGbLGgz2ojlhwyIzL+RaquCh7S6f+tIg/V6/CIRaPrKhq0Xkw9jUXUa7WodKuxCI2Wc1hU93u8P6jHQ7UqbwcQtUpQTY2ntarwpHU1Hg/+gAdbP6XIoKzFUda6ePPrPOO63DjZgg2zvqdTt5k0bL3wRVulvc9k9NTDz+Eho0tRsKJY/v+VIgrv36cwO52ipBs8CLGmxHIzT/b34+nqeqXuqflVywGHyvJ4HR6icOXayuuH6Rkv4PHGkuwvredR6rba/awku7KeR3nwkKq6MzZy2cP6eUl2WQzqzet5jMEj0Z70nDTy8/Jfa6sMZP4IHgKIPxIBgszgl/k5MtlSJgKKpWFmZqbM15HqARJAlxRdUehyLtnK2h8SI5G5PDJnR+Iekgas0UqDNi3V6dqsJcMbtWJ1vTacrNMR8zrdsK7TnYt1u7Kldlsm1m5B70bNadOiJa3US11W5bVTqvmq3HGqAfa/eVvpn2y8Ao8NFlQTaMj64XN0S9cSV0Fknh5VFujzxQpjNJ2jMAtOYq9jJBsvh7LFJkyRbbbhHHePQdv7Fhf9bnPu2k32O0ayzSaMs15xXApKZIG+Dx02W7Hl8nUsgxM57xnLldAkPKLvcTkkiXNu0ZgF3MYyMIF1Rn5sNg1gq1kgR+zCsPC7hanPTXaaB7DVxI/d5oHoukbiHJqkZDjtMPZju5Ev+80C0JGYR5mAufhIxYde3gP7b9n3ZnispIHGIuqrL3xJGqgvoFuzqays3Q/PD+pTUPkdHldS+8uLQj1RU6P4narc+qwmET/XJ/VgPQrfohx74aXa5BjWw09Tg53z+9Or11Qat55P/VYvt1PV7jFTDr0ED1FOkjBQXmzgH9unfF/pd97PSqMwKZKicCceuJyiRHcej3f34unaMu6p51aGytoouy21PHJfsTwEHnJt5fW7vwqPqnMsabvNE2O3aKx3ieXxNfubPVsM6jV4dCGh1kDuLNiOta/9M3i8sDxerCSoWgyqE6vdJ+OT7EpGTvmQexM8vvvuO8XFVJ5CLrtPQCBBcCnrIkGP92QAACAASURBVJaDZGJJTEOKS8o5BBJSil0FDtVn5X9J25XgusRD5DhZG0T1vgChbfOWdG/cnO8atWRkYw3GNm7D0Cat6dO4Be0ai8XR4g/BIeeqgMfbWh4bzKk2Vwe12dqozRaAPJO5pSCpPE+P6r8YMFPHm/2OERx2ilLgIIAQOXg1kn0OEUw446HENdaYBaHpFMVBxwg0nSJZZxZE123WVJ+vp5Rb33UllKNXIzjscIP1pgGKHLIL57jjDUUO2IRy4Mp1Dlhf57BNKEftwpQ1Ow5aB7PPMoidpv7sMPHj2JXrHLYK5oBFIAfMA9gj+0xciE9+kaor8BAfunT6f6tIzEZG5KJ8VAFzH/9YNLqspEGr1+EhSrlhywV0bjaNBXW/w+6jpiS8U12BiKzxUd5ytLLaoLxXpFaVu1U/xPPD+uyp252NgwZgtqEzMWeakWVQD1mrXOIYsuBT8TOR17JPSq/nGNUj4XxjnPe0Y/2M7+nZcyoNWy14CW4qaKi2r8JD0nUFEiq33j+2zcsjPy+X/Nxs8jNTKUiOoTDWlyJfEx6ab+CR5mCebFDn6fLPYEG1Mm6psqAo73VZeEQ8B2NZeLzaF9PTs/D0iX4xw7zPVtQGyhrmmlQaeUpZw1xtmjEfzb/MiJOBuAbewnbPAZSYhyxDW3YN889L1zCP/KALSV+N5d6+81iHudHlpKzn8Q1qu3o/W8O817M1zLvRx7Azwyx6sD9gLVFpYWTnZr3xeZH7I9eiGqGrAuai9J8r8z+xQOQ4AYK4pURehcXbnEd1rLq6Oi1btqSlQKJlSzRaqtOqpTrqsu8PrA3V52VbAY+3hcd6yeLQQW3mBdRmXXgGEQGJ9nOQVJ2nS60VJjRZZ06z9RYvy2/mNFhziQ8WXeSdeXrUWm5Ms3VmpbLWjPorTfhogR5VZl2g5iJ9Gq80ptlqE5quNKb+UgPqL7lI0+WGNFtuQLNlIhdptkSfZr/o02yxHs0W6dJsoY4ijeac54spWtSYcIIms8/RbM45ms06S+Ppp6k/6QRjNui8FPOIi4tT4CGj93+riOV0586dt4KHAhD1BbRsMYdBjUZz8LMuuH3YgFvVapBb+V2K1aryQK2KIvJarJOkdz7G9/06nK35FZPrD6FNi1m0ajeHIQPHs3tBP5z2fEXEqebc021IrlFdBRYCjHzjOqRfrE/smaZ4HWiD1spejB88iq86zaLBn4BD2lkWHnKdEjQvb3T+/74vFykXkpebQ15OFnnpd8m/c5OCW8EUBlnzwGorJUd+5snGVjxd/jlPBRhz1J4FwcuDxJv2lYXHi1Rd8der5rG82hfT0jPx8IlS4FH9641U67OVdwbuoeogTaqO0KLaeB0+nmlK2w1OnHZP4PbtuzjuO8SuDl+z7xk8jBt0wKZ2Bzw+K4VHdIMBpC3eRda1IC7HeNHt1FQ+2vYN7+zqzfsHe/PF8Z40P/M1HXW6McCkJ4udJuOceIWM/HRy83Lf+LzI/ZFr+X+FR1ml/Z/yugIebwmPNr+ZUU1AMeN8qaggMusZQBSLRJvKc3QUqTJXl5eldL/anNLjK8/WporILJELVJbzybmnn6PyM6ky7SyVp56h8pQzVJ58miqTtagySYsqE09RZcJJqow/QZVxx6ky9jhVRh+jyqijVBl5hCojNKk8/DCVhx2iytCDVPn5AFWGHKDq4P18POwQo9Zd4Hr0i4D5fzM8RDE3UF9Io5bzadN8lgKRVbX7cbbGV1hWb4HDR01w/Kgx1h83Q7dGGzbV6s3oBsPp0GwGTVrOR9xfDVotpLHGAjTaz+GH/hNZNmkQx5b3wXRTF65s74jN9g6Y/96ZM6t7KpbGqB/HKNBo2nr+n1oc5VkeAg+J78jI/FUF+1b/y+cVySMnL1+R3KxM8u4lkZcYSUH0NQq99HhgtIpHB7/nyW/NebqiFk8XfQBKLKPyG+IZbwJG2f2SqvsFOYZrKEiKem55SPxNFG9515GekUVQaDzTVujQY9IxOk09Rfs52rRdZEC7JcZ0X3eZ8Ue90HK9qZQoKcjMxu+8DhdGTkTnh+Fc+nEUl78fhVu/0VzvM47YH2aT+vtxinxCKcjNwTUhmLGma+h4ejLtzkymk/YUvjUax2CzkUy2mcRW7w04Jlwh90E2RcVFCrzLa6dYwSp4iEX4asD8PwUCf7cdFfB4S3h022LFB3O1FeUuCv4liDwHyTOrRCwTgcpLUva9C6UWzMxnIHoGDeW8086iJjL1DGpTzqA2+TRqk7RQm6iF2oRTqE04idr4k6iNO4Ha2OOojTmG2uhjqI06itqII6gN16TysMNUHnqIyj8fpPKQA1QefIDKg/ZTddB+ao44zOQt+oSXWcNcRkgSpJROX97D8G/YJ24BUaqyeptkkMkDK26rNt1WvdFtpVLMqm1D9QU0azmP1s1n0anZdLo3nULfJhPo12QCPZpOVlxcbZvPpHmLuYrLS/U51VYsiKZt5tO6/Rw6dJ5J9+7T+bb3FPr1mczXX0+nU5eZtOkwm+Zt5/1laKjOXdbyEHCIqO6XbN9KZGU6kaxMctLukJsUQ+7NYPIi3CnwMabo8nYenp3Ko929eLK+BU9X1eGpzM2Y/05pqq0qc0pJuS0LhLd4Pa8KJWubkm2rSUFa0nN4iKvnTZZHdnYOaRk5eAbcxMYjksseUVh5x2HhG4+FXzz215MJuFU60/xhyWMeFj8gIzaOmy7uxDk6E+/oQoKDC3ftXMm29yDfM5Dim0k8yr/Pw5KH3CvIxC0hEKsYDyyi3bGK9cD2liuOt53wvnONmKxosooyefSktBzLm+At90LgIZMEJS4lfVEsY5m7IbGMv6u0/1M+VwGPt4BH0cNHTDnlRq3F+qhNO/cCINPLKH8ByNuIAoxSS6MUGudehsbbgmPkEdRGaKL2zOJQ4DHk4HNwVP5pH+8OOUDTqafYfNaeW8mlkwRllrI8rKKMZCvBStn+m0TaLA+rSqFK2Q55YIOvx/Ptj1to3HrxH8YTVApata2nvhAR+V+xLNRL4xFl96uOLW+rHNfy2edbLXgOinotFyJS3mf+bF9ZeIhrSnV/VPdLrv/PJPXePdJSkklPjCPzZhjZEdfI9TUn3+EI941/pej0JB4c+J6H27tSsr4lj1bW5tHSz3m09DMeLf30f06WfUHJ2iY80JpEQaSnMi9E7peIXJfcRxnMqOo7qbYyQMjKziYtPYt7aZncfSYp6VmIyBykrByJ25VmDSrKXT6TmkbmvVRFsu6lkn0vlZzUdHIzs8jLyVUsCJlPlJ2bQ1pWOncz00jJTFO2dzNTuZd1j4zsDHJycxRXlfz+Aghpj6ptZbfSdom/yb2RNFu5LrFApHKxama4BLL/baJaL10yvVRQVN23f/P2H822kpUETzhF8tM+OzpsMH8mFnTYWEY2WdLhbUT12Q0WL8653pwO683o8JvIJTqsEzGlw1pTOqwxocMaYzr8akyH1cZ0WGVUKisN6bDCgA7LL9JhmX6pLNWjwxI9OvyiS4dFOqWyUJuuv+gybrslVh7hZOaUmtNS6E7yx6XDy8hdqq3KiOnfJNJmUZzyUIvVIdcknfl2QjrrNhsyaNRuvh+242/Jd8N2IPJ3Py+f+3/9vJxjxTpd5ZrkugT4cq1yzar7JfNb/kwSExJIjo3gXogrmZ6G5NofJd9yBwUma7mv9wv3z82g8PQUCrUml8rpyRT+E3J2BvdN11MU6cajgiylGKFK+UjqsShluTaByNtLiqK4RXmn/MHn5T1F5Lhncjflz7/v+bF/cG4BoFyDPFeqgYzM05DyIaqyI7L6379NpOS/rCIp5f5VUFTdt3/z9h+Fx7/5h6loe+mItuJ3qPgdKvpARR8orw9UwOMt3HDl/YAV+yoerIo+UNEH/hv7QAU8KuDx3K3z3/gAVFxzheKv6AN/rw9UwKMCHhXwqOgDFX2gog+8dR+ogEdFp3nrTlMxUvt7I7WK363id/u/1Acq4FEBjwp4VPSBij5Q0Qfeug/84/CQFFDJG5c0PEnXk7TWf5Oocucl31zSB1XprIUPnmIT+JQfNkPrxaC+8N8pHZfDYq2nhMUXU/ywNFX3/9LoqOJaKkb7FX3gn+kD/yg8RNHKpCCBh9Sq+V+vZvonK/xJm/5MVG2W61DNh5DOmJbzlPH74fMpUHk4VBr275R3R8NXix9z0PguWXmlM8wrHrZ/5mGr+F0rftf/S33gH4eHjNxFAatG7G/z4z158pSSR48pKi6hsPghxQ9KFLlf+ICs3EKSU3O5lZzNzeRsZRt/R1bre12S7uWSkV2onOfJ3zBPxeJQWU+qST4JaU/5ZCJUGfHvhIYKdmrDoPqYEsZvjiIl/cFbm65vcz8rjq1QnhV94P9OH/jH4SEuKpkx+rad5vHjJ4qyT8ssIOZ2OtG3UolPTic+KY2wmDvYuEex+5wHC3faMHOzFbN/v8zcrdavyfztV1h90JEzl4IIirxL/v0HPHr8hLeBiIBP3FZlryU+9SlVR/67waEAZCh8MLKE4esiSE4rLQnxtveq4vj/Owqh4l5W3Mu/2gf+cXhIwT0pnSAKuKyoGlh2n+r1o8ePyc4rIvZ2BuHRKcTG3+XO3XRS0zIUuZOSTmRcMpbOYSzeaU3Hsaeo1W8/9b47SIMfDtHg+xfS8IdDNBl0mE7jtJj8mzkXbcO4m55PScmjl9qj+u7y2iWWx/86PIaC2pCnqA0ulUo/P/1nXGMV8HjrgY2qj1RsKxTtf3Mf+P8NHipl/epWlHpmTiHhsfeIvCl1dDKUirWyVoLEHbKyssmROEpONmkZmQRHJrLvggc9ppzls2/3UXvAAeoOFDn4ktT//iDNhhxh4FxdTpkGcPtONg/fAJBX2yTwkHjHP215qA17SpWhj3l36EM+GnmfRlPu0G5WLOrT46k1PpMPhhdT7ecSKg998j8Hkgp4VMDjb7hy/5uVZsW1lw4a/lfgoYp5iBIWEeWsel12K+DIySsi4mYaEXF3uJuaTnZWNndTM0hITiU9I1MBiFggiXekiFoWefm5RN5MYb+2J10maFH3u1JoiBVSVmR/nQEHlH2DFl3EyD6ctKyCctvxahtVBfX+MXgMharDHlNjXB4d50Yydq0tS3fpsPvYAU6e3YKm1k42HDzJ/C1G/LDMk6bTkvhgVDECG1Xs4m9vK+BRAY//j73zAI/qONt2vtQv1Ymd+if50py4xSmObYwLzaaDEF10JFTpvSM6AlEkeu8geu9VgAoS6r33Lq20u2rb9/6vOdKCwAQjBylYjK5rdM6ePWdmzjPPvs+8886ZI8VDcuBLcKDJxUOsXirEQxhkYYRFarhvOya2IhCekVdOVGKeMjylUatJTs9n96l7HLoQoQiIRqsmLiWXnSdCOXszjryCErSVWpIzCpjpc5nX7TconkdD4Wi4/8sOq/ltpzWMWXaBkNg8DAbj/Xo1rEvDOtqmG4shOFv85lnFPL5uZ+U79gb+MDyPAXMusmH7IkIvDiA/qA0V91pRFf4vKsPepTTkQzJvf8aF426KkLQdf49XBqgV0fmPRESKhzQcX8JwyN63HLJrFvEQ02EbGubH7QsjXqyqJC61kMzcYqortWTlFuGzN4CPh25nyorzJKXno63Scjssjf5TDtN99H6OX4lWPJKqSi23Q1PpOfYAv+viw68/e9jzaCggL3/iTRvHPew8FYlaW/OFdWsy8egJ/9tLz1+d0ljou47IK/ZUR/wTa+wbWONeB5Fi31CS+GyNew1z7BuUhLTm3DE3hsw5yy8HlvFNOzNfs/uSwXspHlI8pHhIDnwJDjSreAgj/O9STa2erPxyEtIKKFOpqNSqOXIpik5ue/lV+1VM8b5AckY+ldVa7oSl0WvcQX7efiWO804QEJ5GbU0lhUWlzPK9zFt9NvKLDnUB9IaiYdsX1/2l1wZmrr1OWk7Zv62Tra4Gg0GJuzxTz8OuTjj+OSqJtVuXkBPUBl30X7HEvAkxbz0hvYk55k20kX8n9Io9LgsP85tBRXy955eMg0jxkIbjSxgO6XlIz6NZxEPMVLIZ4sdtDeIpdG0NadmlpGUVodWoyckrZvqay7zac50iBFNXXSQlM58qIR7hafSe4MdLHy3nnYFb2Hr0rhILEQKy62QoH43cyc/areI3j8Q9bOLxq89WK4F1MfvqXlz+E+sm6tsU4iGC3n9xzGT++nVkhrTFmPAm1oS3QKT4vz4h1Z1jSXiT6vi3uHF+CPYzrvLjfpVfzvuQ4iHFQ4qH5MCX4ECziocwwo9LeoOBsooqUrNKyMkroapSQ2R8FoNmHFWC3CLY3VA8hKfRZ+IhfvLJCmWIat6Gq+QVlWIy1nDpTjxdx+xXxMMmFo9uxUysl9t403P8IW6EZCji8bh62Y6Jt5mJmV62acei1/U0MY+v97LwjV5mvtnLxLd7GfhOLz3/20vH93rV8Eq/CoZ6niLooj2m8D9B6GsQ8kYj0utYw19DHfk3Nu6az/vuMXzXrlbJX5TzrV5Gpdyv9zI/ObAuxUMaji9hOKTnIT2PZhEPMc1VGGJhhB+XdHo9peWViniIALgQj+DINHpP9OMX7Vchptk+TjyEAPy642qmrblEZl4xJlMNN0NS6DXBr048/k3cwyYeYtbVpYDUJ9ZN1Fc8VS7EQwT/xTMrDcVDmV7by6wYa2G0hQH/nl0NP+qh5afdS/m/rjm82jWNtzvF8H7HUD78LJDPOlzDwe4Yh2e7oNr8Z1j7C1j9m6dLaxqct/63mP1+TcLGdixyW067z/z54LNg3ukUzhtdEvlD10z+X7cCXuqh5vt21XzXrkYRFyFk37QzIcTtf+ysfK+vkV7yIUEpIlJEJAcawYEmFw/xTm8hHo8TDdsxYZzLKurEQ0zJFeIRk5TDsNnH6z2P1Y8RDz/F8/h9V18Wbr6uTOc1Gas55x9HZ499/Kzdyn87bCWeAxHCYzfhMDdCMzAYHi9qDetXXl7+GPGw8t2etfyyWxGvd0ri/U9D+KzdVfp8fIKRrXYz4V8+LPrbXHzemsC+vwzl7B97cO33nxL+/94h5bevofnLK1he/zb86Vt16Y/fgqdN4po/fwve/DbGt75H/p9+y93ffsCl33fh+J/6sPV1F1a8PY3Z/1iCy/vbGPDRYbq3OU+b9rf4e8co/tA5kx93r1BEpE48EsmVT5hL49EI4yG9jxfb+2gW8RDrQtl68EIoHpfU2mpSs0tIzSpEo1FTVFLG4i03eMNuAz9ru5Kpqx/EPMSwlfBKftTai9ZDt7P/bLgiODVVWjYfDqbV0O38XIl5+Dz0rIdt+OqXn65S4ijD554kIiH/C+sm6vuoeJTlaxn54T4mvbMa77ensee14Zz/QzdCfvs+ib96ncxf/IG8n/+Gkp/+HNVPX0b78o+o+skPqPnx99D/6DsYf/QtLD/8Bvzwf+AHXzLVX2v94dcx/eib6F76X6p/8n0qf/ID1C//mNKf/pTCn/6S7J//jtRfvErU//s7/r9ry7FX+7LpDXc8/74A13e3MLDNcWZMOk1psVYaT2k8JQckB56KA80mHo8TjIbHqqpqyMwrIy41n5JSFZWVaq4HJzFkxlH+8NlqJi8/VzfbqqputpXd2IP8vrMP01ZdIjIhm5pqLZk5RYzzOsdrvTYoAXGbWDy6/Wlbb97qs4mFW/zJLih/rJg1rJt4tkOlUj3keehyCoj/7d8VkSj82a9QvfIKlS//EN2P/xfjS9/E/NI3sLz0daw/+h8l8aOvwUv1Sew/mn74NWhsEnnYrrHl16AMUbZFpJe+jumlb2B46dvU/OR7irCU/PRn5P7sNyT/4jXu/vEjLjhNo7Kw5KlII3ucL3aPU7a/bH/BgSYXj+zsbGWaa0Nj/Lj9mppaCkvUxCYXkKZ4HxWK93HkYhRDJx9m0YarpGYWUFmlJTgyHdf5pxjleUoRGFV5OSKduBpD+1G7+U0nH+VJ80dFQ3wWQ1ZiHazuY/04ciUOjbb6C8VDxDkeFQ9rdibWl7/1QBBsRltsbYb8321tBv9Zb/9deQ2PN6znS19ThE33sx+SMKQ/uoJ8KR6y1yk5IDnwVBxoNvEQvXdhhJ+U1Joq0nNKCY/LJTe/hEqthuISFbdCUrgSkKA8TS6GtFIy8pVFEUNjMpW1rsR5IdEZOM47yR+6rb2/DMmj4iGEQwTgX++1Ac9NN4lJLnhifWx1FU/Il5WVIeI34pjS88rOhFe++UA8hIG2GWabKPzga/B9W6ofmvr+/4BIYsjpR/Xpx/8Dr3wdXvkG/PQp08tfh5ca5GEb+hJ5i/375X4NRD1EnWx1tG3rhc74s++RPLgP+vy8pyKN7HnKnqfkgORAs4iHmKlkM8RP2lZX11CuriQxvVhZoiQ7rwSxRIl42lzkIZJYFFFshYjoddVUV1dyLzaLqasu8WqPtYh4hpja++tOIt5hS2uU4z9rvxKxyu7Ieae4fjdNKetJ9bF992/F4+Vv1hnm730NvtsgCWMtDLsQgl9+A/5PBMK/Da9/B97+Lvzju/Dx96Dt96Hd96HLD2Dgj2HwT2DIU6Z+L8Fn36/LQ+TT6nvwt+/CW/8Lf/4O/OHb8Otvws+/AUJohHg0rKfYrxcVKR7SEEgxkBxoLAeaVTyEEf6iVFlVTalKQ3JmnYCkpBdQVFxGRUW5spKuWE1XpPKKCtKzCzl6ORoXz1O81mMdP/54OS+3WcErbbx5pa23shWzqsRyJGL21Rv2G3HyPMM5/yTyCsupqnpQHyEUT6rbYz0PIR6/+Ab8/lvwxnfgne/Bx9+Hrj+E/j8Gl1dg/M9g7q9gyf8D39/C1t/Bjt/BgT/AwT+A3x/g2B/h7Ktw/inShVdBpDN/gsN/rMtD5LPn97D9d7D5/8D7N7DgVzD9FzD6pzD0J9DzR9D+B/D+9+tE5tV6cXn56xhf/h7JDtLzaOyPR54vDe6LzIFmEQ8xU+nfGWax7pWYjSWSmNIrnkavrKqipExNalYxcSkFytLsGTlFysKIYiqvWAQxMCKdXSfDcF98lg5Ou3lnwBb+OXCL8t4O8e4Okf4xYAv/GLCVD4buoPfEI8zf5M/VoFTyClVotJUP1anh62gfrav47nPiUZwNPX4Cw35SJxCev4I1v4Udvwe/P8LJP8GFP8PVv8Cd1yH4dYioX3ok9i1omOL+CnFvNS41vN62L5Y1iX4LQt+AwNfB/zW4/Bc48yoc+SPs/T1s+j/w+jVM+wU4vwJ9XsLY8aekTB6EvkTGPF5kYyDvXYphYzjQ5OKRlZWlTHN91CCLz0IoSktLSUxMVFJaWhoFBQXKsJQ4XlAgBKOE9JwykjKKlHWvxFsE70Zncep6PGsPBLNk222Wbb/Nil0BrNh1h+Ui7byD147bLNnqz9y1l/HacgW/s8GERSeTnp6uJBEAtwmGEC1Rz4yMDKU+4njD+orPoj4PxTyqcuHca3XicPs1uPsGRL4JQgjuLy/ScKkRsf9mfXqMUNgEoLHbx4pOwzrU7yeIbf2aWeFv1onLjb8oXozxyOukHXZFrymUMQ8ZLJUckBx4Kg40i3jYDLXiVQjPorJSMdwidpGcnMy2bds4c+YMV65c4fLlyyQkJJCUlERUVCQ5OdmIoSxVhYai0goKisvJLSgjM7eU7PwyCovLKS6tUL4T3xeV1CWxNlZkVCxXrlwlOCiQgDv+XLl8gUN+fpw5fRoxC8xWn5KSEi5cuMC5c+dISUm5f9z2vRAXcY64RgxvKepsyIP4vz3sQTzO8AtvIPYNLLFvYIx5E1Psm8qquXzhAohPWhyxkd89rl7iWL3HY4z5J+mB49DXFD0VaRrTO5Hnyt6s5EDL5ECziYfNEDfcCoMcEBDAwoULuXPnDqGhoWzdupXdu3dz48YNbt26RXh4OMIjiY2LU4x3UVERWVnZxMTEEhcfr2wjIiKJjIoiISGRzKxMCosKFeHZs2c3Z8+eJj0tlZSUZPz9/ZX8/fz8iIqKUp7bKC4uVryeXbt2KSIm6pOZmakMo9nqKsRDnPeQeOjzIPZvT1j9Vhh44Ym8jj76ryTf7Ir/mREEnh9MRdh7mJWVcxusoBsrvJLX6pLYt62sK5Zkj/9L3fLsihCJPMV5f6lLCa/Wfa5ful05nvBnEMdFiv9z/bUN8rTlXV8HY/Q/pHjI3qbsOEgONIoDzSIeIl4gDLEwwiLZhovEWlHCkK9cuZLY2FhFJLZv346npycbNmzgyJEj7N27lxMnTnDgwAEuXbrErVv+nD9/nv3797Njxw62bNnC5s2b2bRpE0ePHiUyMoL4+HiOHz/O2rW+ymdRvhCqkJAQ5Xxx3bFjx7h9+zbBwcHKub6+vop4iLLEtYWF4kl3zf16fxnxsMa+iT72DYIv9mfh2nWM8zrAhOX7OOw3mZLQ1lgaGHFj9NtUhL+DOuIdjFFvK+JhjXmLmsi/Uxb+L9Th72CJ+SuG6LdRR/6T0rD3yAtpTVJAe4pCP6A26m/oot+m+F4r0oLaKMeTA9uRffcjaqLffsJS728ixaNl9gxlj1+2a1NyoNnEwyYcYiuGfoSAiPiDMPz79u0jNTVVGa4SojFnzhyWLFnCxo0bWbZsmSIgYn/dunWsX7+ePXv2KMZfnOPt7a14KqtWrVJESAiEEAQhKuIa20OKQjyE5yFExlamEIqdO3eydu1a5XwhTqdOnUIIie06UV8hIo0VDyEcwpjH+3dhyoqdDF9wEq/NK5ixeivDPM9y6aQLqnsfIM4TIlJe/4KnqydHUXr3I2WoyxT3Gok3u3DMbzy3zw6lJupvlIa05tIJZw4emMzJI2PYs286gecdyLj9KVFXe3HhhCuHDk3gwMHJ7N0/jf0HpnLt9EiKgj/BFPU4T0mKR1P+wGTe0oC3VA40uXiIISARbH5UPIRBFkNHa9asUeINImh+/fp1RRx8fHwUg7569WrFA7l27ZridNzZqAAAIABJREFUZQiPZNGiRUpsQoiNMPKnT58mJiaGixcvKoIjhrrCwsIQHowQBRFTEcIhhr7EuUJ8RBL7wrMRQ2aivJMnTxIZGankI7whEbhXq9VKvb+MeBii/0pmYHuWrVtDa48oFm1Yza1rdlw+O4zOUwIYtfA4/meGUR31d0xxr5Pm3xmPJYeZ7r2TpBs9lKEmXcKrnDnqiuOsk3ivW0lZxD9J9u/M2IUH6D7pFlt3zePUMXfCrvTmxpkRrNm8HO9NK9mzdyYHD0xhx+45TPXeRZ8ZVzl9eCyV9957MBx23+uR4tFSf9zyvqRwNSUHmlQ8xHvAbTOYhAEWxlgkMYQlDPrNmzfx8vJSAuUi5iEMugiaC0MuDL8YzhKBdCEGwiNZsWKFclwE1YVgCA9ExEmio6OV68Rn4XmIWVEiZiKuEYFwIVKBgYHKUJfIVwiWGLYSw1yifHHs7NmzSvxFCFhcXFzdA4lqteJ1iDrXxVqylFlYSoM8IeZhjn6L7IAObNkxn/dcYukw8S7TVm5n5RYvlm1cxcDZF/jANZoxS/YTdKU3tXGvkXSzK0Pmncdt8VFirtorr6Gtjf8zB/dPoM+EqyxcuY6SiHeIu94dp9kn6TPtCqH+3dAm/BlN9NsEnB/M0vW+zPPZxMpN3qzZ4sWKTSsZNv80v3YownejF2XBH9XFYe4LR11cRg5bSSPTlEZG5t0y+dXk4iGGpoRQ2IRDbIWQiBlYwisQAiKC4sLAi8+ixy9mW4l4RFBQkDK0JcRAGH8hIrY4hZgVJYy8eEGT8EKEiIg88vPzlWcyRDxFHBOeiDguzrGJiBAq4WUI0RH7ohxRB+H9iLJEjKRhfcWsMBEDEV6UmML7RPGIfZPSux+yb98Mek6/wfile7l9wUERh1T/riTf7Eb0VXu27fDEYeYFpq3cSsytTqQHtGPCij04LjzJ4YNTiLpqT8T1HizxXUMX9wCWrV6jeB7x17vj7nkER8/jJAa2xZDwKmWhrdi2ax6D5p5nge96Du6fyvFDExTvY6r3Tv48PJvVG7wpCmqD9XOzvKTnIY1byzRusl2btl2bVDwsFoticG3iIYxwwySGs4RRFr16EVMQRls8UGg7bjsmhMZ2jjhfJHGOSOI7sRXfi3LE9aIMsRXXCzERW3GO+N52vdgXSVxnS7b8hHDY6mnbF9eJZ0HuT9VVPI+/f34YKPZNCoPasGvvTBau9yH4vAOVEe8ogW5D1N+pS2+Tdfszdu2exeJ1awi62J+yiHe4dMoJ321LWLdjEX5+kzh1zION2+czb+UGTvqNUd5bnhvYli3bPdm0fT4Foa0wx71GdcQ/Fc9j1RYv1mxdyu59M9h/YAr7Dkxl/Y6FjPXay7FD45VYyuPEwxT9T9KDxsupunK2TaNm20jj3LTG+XnHt8nFQ3gAwjjbjLrNKH+VtqLuQoREEgs8Ko1qKILEDhD7eQGpjniHvLsfkRP8MbqovyNmTT14rkNMmX0TU/TfKAn9gMygTxTPwRj9VzTh/yL37kekBrQnI7AtOcGfkBnURkmloR9giv4rtZH/oDCkNfl3P0Qf9TclbzELSwiUKDM9sB0Z9ddkBbVBpJSA9kpZusjP11VMNzbFtyU7fDGGWpU0HlJAJAckB56KA00uHqJ3L4aihIfQcCjoq7QvPCIxPCbuQbxOVxEPkxoKlkNSR4hv/Uj6ABLfr0sJHzzyne1c2znvQUKrunPENvE9SHy3fivyEJ/FOe/X52O7TnxukLcoRymz/nzbdWKbJPJ75HxbnRM/xZI1hYr8IOUd8M97b0fW78Xu7cr2f37av0nFQzS0CJrbkhjG+qomcQ+i7g/Ia8ZqrsZq0mA1qbGaKr6iSdS/CovZgPWh+3t+SPoAc1kniYXkwPPCgSYXj+flRmU95I9OckByQHLg2XFAiocc32zgTT07YskfqcRScqBlc0CKhxQPKR6SA5IDkgON5oAUD0maRpNG9ihbdo9Stq9s36fhgBQPKR5SPCQHJAckBxrNASkekjSNJs3T9ErkObL3KjnQsjkgxUOKhxQPyQHJAcmBRnNAiockTaNJI3uULbtHKdtXtu/TcECKhxQPKR6SA5IDkgON5oAUD0maRpPmaXol8hzZe5UcaNkckOIhxUOKh+SA5IDkQKM5IMVDkqbRpJE9ypbdo5TtK9v3aTggxUOKhxQPyQHJAcmBRnNAiockTaNJ8zS9EnmO7L1KDrRsDkjxkOIhxUNyQHJAcqDRHJDiIUnTaNLIHmXL7lHK9pXt+zQcaBbxqNJqKCspVt4lLt4nXlJSSrlaQ02tvtkMl0lfi7a8jJzcQnQGI5bnQTQsFsxmEwajCYvlSxLWaMRqbviSqi+Zz/OAh6xDs/0ensY4yHPkb+lJHGgG8TBz028z08e54+7ugYeHBxMmTcPbdwsBUSmYmuntddr8VA7OceHjT4aSWKzG8GWN9TM0cGajHnVpIRm5JZjM5sYbDnFNUT5WbZV8C+AzbJcn/WDkd9KgSg7UcaBZxOPMmhn07/4ZfQcNZ9rUqbiNGIJd964Mdh7H7bh8DMYvYTgbaSzqxMOZjz8ZQGJRxXMhHqrcNHbNn8HIpXuorK5tnHhUarGGhsJSF9i4E2tMCtYaU+PyaCSG8kcjDafkgOSAjQPNIh6nVk5hQM8uLNx+nJzsbJKiQ5g7zpnu3Xux/ugNKrUVZKWncDcokDsBQcQmZ1OjM6Cr1JCXlUlMUgb5OWncDQoiNSuP6lodWlURcVERhIWEEhWbSEGJShmKqq0sJzstkbtBAdwNDScrr5hanZ4H4tGfxMIKavW1lBTmERYSzK1btwiLTqG0XIvJqKeqvJCo6BhSU1OIiQonJCya/CIVuZlpRN67S0hYFFn5JZgVr8mCpqKM9KQ4AgPuEHIvksLScnQGA9WVFcREhJOWnU1CfAzBwUFExiehrTFQWa4i8tZZRjoMoOeYhdwLi6BYpaZWr0dTXkp0RDh3AgIIjYwlt6gU46OeUkkB1umj4fVfQKvWMGk+VlWNFA8piJIDkgPNwoFmE49BfXqy+tgNzGYz+spidi2bRbfO3Vi07SiRt08xffIERjmNwnmUM0PcZ3IrLofCzBT2Lp7JkDELWLRgJiNHOrLF7wSZWSnsWzOfUU7OuLm6MXbcBNbuOY62WsOd0weYMWksLq6ueHi4M3n2EmLT8ynOTOLgHOF51IlHXkY0W30W4+g4CjcXZ4aOdGPbyVsUlZSQFXSIYcOGMX3ObNzdXHF1cWbpqk14z52Mh4sTTqOcmbp8G7kVtahKC7h0ZDuj3Vxxc/fA2cmJJev2EZ+RS1FOFB4ODnjMXsikSeNwcXbC0WkUx25GkJUcwfxxrnTu9Bkfd7LDY8xYzt2NJTMjkYOblzF8xEhc3VxxGuXCzOVbiE4venhoS1WEdf8qePsdeP2fsP001qrmiyHZeh9yK3uikgMvJgeaTTwG2nVlya7TFBcWkhh8kXEjBtK1Z3+2HLnKia0LGOU4Dp/1W9i4Yi4ftmrFuAW7iQwJZN3EwbzfqjXt7QczY+Zcjp8+y0W/VXRo1ZqhTtPYf+AgG1YuZu7KTWTE3mJAl0506++M79ZdbF0zn9at3meqzxkSY6I5OPeBeMQGnWKiqytzlvhwZM9mOrZvywDH6dyKSCDl+k4+/uhDeti7s3bdOma59OLd996j54DhbNi4jknOA/msUzf23cok+PJuhvSzo0dvJ3Yd8GP5zDF06mLPyi1HSE0Mote779KhS2+W+m5lw8oF9OzcgYETlxATHcmhjUvp3LEDH/cZy8Gjx0hMSeLIrlV0+exjhoyeypFjh5nj5kTXzna4L/dTvLH7gX5tBdYLB2DLGZjvBaeCmqW3IQ3Fi2koZLvLdn+UA80mHt0/eZf3W7Xiww8/pHXrD/i4bQfGzVtORlk1ep2OGq2avMw0bl06zbD2rRg3xYfwAH/WTRzKp516cy4mF3VVLUXp0awZO5w2bbtxPaEAba0eg8GApqyYm7u86dS+LSPGTGHjlu1sXr+G/u1bMdzZk4Dbdx4SDzHjSldVSVlBHomx4Xg6dGHY4DFcD4y4Lx7bL4ZQXFpM+MVttPqgNQsOBZNfXMSFgxvo8mln1h6OYvOMYXTr0pH+Y+ewc/s21q2cS9fOHZi22IvwqADs33+fSctPkllQQWbiPSZ5DKW7+3wy84qJvOrH0IH2DJi9GZVaizo3EZ+ZjnTpbsfV+BIqa/Qkh13DzWEgnbu6kavVYbINX4khM5MRq5htpTdgNcp4x6Pklp+lwZMcaDoONJt49OnSnqHjprFt82Z27/XDPziMvKISqqqrib55ggnuzsqw1Mjhw+j44fuMmbymXjxG0LmrE5kaHQazhcLkCOaOHErbdgNIKNKgN9eBU61WcXbjEj5r14H+A4cwbfJUpkyehIerM/MW7iMuMqyBeJQrw0YbFk1n6JCheIwZQ48ObXFwEOIRfl88dl0NpVxbQdztg3zQ+kN8zsdSqlFz8+RuenXozNpDkax060XPbh3pO3goM2eJMscrQ10bd+8lPi4Q+/dbMXXFBXJLqshLj2HaBEe6uc0nM7+EqOuHGO7Qm4GzN6OprKY8KxqvcQ50s7MnokiPzmQhLyWSpe5D6Nh5JNma2s/HPuT4rvS4JAckB/4LHGg28RjYqxte+8+iKitDrdGi0xuwWExUVeQxd4Q9fQe4sWrdDo4c3Eufdg+LR5duzhRUG5Ved3luMpsmj+KjT7pw6FYsRaWlFObnERcbz91jG+n06WeM81zNzcAQoqMiuXH1MtFJWWQmxtaLRz8SCwrYs3wmA/s4MG3+Gi6cP8uEvh1wGPR58agQ4nHHTxGPtRfiKNNq8T+1h96KeESxb5k79nbdGLNsOyERUUSG3eXm9VskJCYpw1aKeCy/WCceGTFMm+hEN+F51IvHMAd7+kz1JSM7n7LcRNZ7uvFZ524cuJVASZmKcP/jjOzXj272kymsauB5/BfIIntxTdeLk9hKbL9qHGge8Vg1lcF9e7Lm2LX6GUr1RLEY0Zal49KtI/36T2G330l2rp5Lj08/YexUX8ID/Vk3aSRdurncFw+9tpTg0xvp2bUjQ1wnsefAPlZ5LWTa9BVkJofiNLQ//RyGMG/1do767WaSuwdehwJIT45/4Hnk57Jq2gT69BysxCYuntjHwF5dGTJ0vDJslXp9B5989CHC8/iceFTWiYf9p11YeySa0JsncB85BHuHEfhs92PvltVMmTSDA8dukJ4UVO95NBSPUXR3X0BWQQmp4VdxHj6ANr2dWeWzjuCYGE4d2kLvXnb0dZ+Jn98BJo11oVdfB2ZtPEWN/jl5uFEKl+zpSg688BxoFvE4v2UBTsMc2HT6FpaHHgq0UFtVwdEV0+ndtSMdOnZRBGGqhyPT5m0n+l4wW+eNo0+/SRTV1HkeVquF8qIsjmyYT4+On9K2TRt6O4xgy4GzaPRGom6fYbrHUDq0a0P7Dp8ywGk8p25EkZ2ayNFFY+ncxYmU4nKCz+zBvX932rXvgJ2DI56zJzBmtCe3Q2PJDDxI504d8bsZgaZSTWLwMT79rCPbbiRTXlXFnXOHcOjZm00XElGVq/A/74fHsD60adOGNm064D5pIdcCw8lMDWVw+w7MWXeVgrJqCrISmDtjNA5TvMgtKkNVkMbONXNo07YtbTr2YPPZIFLSUzmxZw19u39Ku3Zt6dS1Pwt895JepMUsnyR/4X+wX7Xeqaxvy/WomkE8rNTWVFGp1SrPZzxKJovFTG2VFlVpGSWlKirUGrRaDVXVteh1tdRUV6HRVD7ksZhNRmqrKykvK6O4uJSKCjXVNbXKEh8GsQyJRk1pcSklJSpliKxWb8BoMKCrrqKiQoPRZEZXW4OmvJwiYcQrNGg0GqqqqtHp9JgMOioqxLMgBmVqsUFv+2ysm2qsq0UjllfRG5XpszpdDRp1BSVFRZSVlKHRVqLT6zEaxDMb5VTX6DGZLJiMBqqrK1FXVmM0mTCZjNRUV1JWWkpZqUpZrsVgNCp4qVVlFIn8VBVUVddgNMklSB7ljvzccg2TbNvnv22bRTyehghibadGr+9ksTziyTwA/KnyU8p8dkZZ8aoe8qwe1OeJGIhrbLOoGgwHiPwajUmD659YpjxPejGSA5ID/wEHnhvxkIbuKYXmP2hsibHEWHJAcuBZcUCKhzTGsvclOSA5IDnQaA5I8ZCkaTRpnlXPReYje8GSA19dDkjxkOIhxUNyQHJAcqDRHJDiIUnTaNLI3uJXt7co20623bPiQLOJh7KarlhuXKNBpVJRWloqk8RAckByQHLgGXBA2FRhW3U6nfI4wbMSiCfl0yziIYSjqqqKjIwMoqKiCA0N5e7duwQHB8skMZAckByQHPgPOCBsaUhICJGRkaSlpVFZWdksAtIs4lFeXk5sbCzR0dGUlJTcV0chKjJJDCQHJAckB/4zDgiPQ4zmxMTEKEl4Ik/yGp7Fd00qHuIht+rqahISEkhMTFS8D5Opbulw5J9EQCIgEZAIPBMEhBgIAa6pqSElJUXprIvRnoeXg3q28Z4mF4/8/Hzi4+OV5T7EDco/iYBEQCIgEWgaBISNVavVis3NycnB1ll/Fp7Go3k0qXgIJRTDVeImjEZj06Alc5UISAQkAhKB+wgIWys67SK+LPYfNfrP6nOTiodQPRHIEXEOUWH5JxGQCEgEJAJNi4CwtWJhVzEhSbxl9VmJxaP5NLl4iBsoKytrWrRk7hIBiYBEQCJwHwExbTcwMFCKx31EnrAj3vMhXDSLeOjvCec99VfPJJOnLk2eKBGQCEgEngoB4QGIkIDwKsT2cX8vlHiYjXrKSwqICg/h5s0b3Lp1m+j4FMoqtJi/wJBbLUYqy7I4f+48mWVVGL7ogsehXX/MajZSU17ArZs3ScgqokZvesLZ8iuJgERAItC8COj1epKTk7l586byYODjSn+hxENTmsvJPeuYOX0KEyZMYMLEicyet4gDx29SZXyyeliNVWTHXGDEiBFciiugyvDk8x8Htu2YWV9N9r1zjB09mtV7r1Gk0dm+kluJgERAIvBfRUBMvRXPcGzYsAFPT09lQpKILT/69wKJh4UbB9YyfdJ4vDft5l5MAsF3rrF+9Qo27D5Kaa3piUNRdeJx/pmIh8Wkozw7ii0bNnA+IB51teHRdpGfJQISAYnAfwUB8TBgUFAQI0eOZNiwYWzfvl0Rk0cr84KIhxXMGjYtW8DcJeuISS1EL14ZK14Tq9FQWVWNyVLnSZgMtRQX5pOcnEJKWjoVlTWYxHu9Fc/jEfGwWhHnF+RmkpqaQnpWLmXqqocw1tdWUZyfRXxcLMlpGajU4rF+E/oaDQkxsRSrNBhMVrBaMBt1dXmlJJOWkaV8Z5tAZtBVU6EqpaRcTWVFCRlpKSSnplFYWv6Q6Bl0NZQU5JCcmERqepZSXv2tPVQv+UEiIBGQCDwOgaSkJGbNmqUIhxCPsWPHcuHCBeV5jobnvzjiYalh38rFTJ06i52n/cktKlHeHy6C3+LPajah0xRz+fA+1vqsYcXK1axetRLfzXuJzSykulpDdkxD8TBRUZrPmaP7Wem9gtU+PqxatZotO/cTk16kvMNcXZLD1RN7WLl8KSu8vfFa5sXW3QeJSMpEWxjD8qVLuBmbTbXeiKa8mHPH9rDKezkrV3or569Zt4UroUlU1+qpKMrg0LaNrPTdwNZN61jl7cXiJUtYtX4b4SkF6I0mNKV53Dx9kFXeK/DxWcvy5d5s2eFHVEoBloatLvclAhIBicBjEBCCcPjwYUaPHs2oUaOU5OrqipeXF9nZ2Q89DvGCiIdAyULszWMsnjudSVOnscJnAxdv3CYhNQt1ZTV6XQ3R148ye8Z0VqzfwZ2Qe9y+fJxZUyezcs9F8ooKHxKPCo2a0OsnmDJxImu27SMkPJwrJ/ez1HMOXtvPoKnUcOfUDubOnM5Cr3X4B4Vw7fxxdu7aS2B0ImXpd3BxHsXRwASKVeVEXT/M2LGj8V63meu3A7h40o9Fs6Yzdt4a0gvKyc2IwXfBbEa5jmX1hm3cvH2LAzs3MGXqVFYduIhGq+bu+b14zp7FEp/dhEZEc/PiURZ6zmf5Gj8qdGakB/KYX4s8JBGQCNxHoKioiDNnzrBr166HkhAUsSiimIVl+3uBxAP01RXEhNxkvfcCxowZjauLC9PnLuH41XuUqsrYuWw80+csJigmWRnOKist4cx+XzyXeBMYk/iQeORlJ7N7+QI8Ji0hKb8UlVpDSW46Nw5twsVjDmlZiaxaOp+5S3yJyy6vx7tu+pvJUE1ZxgPxSEuNZ92y+bjOWE5uqUYZQjNUlZPof4iRI0aw/3oCyUmRrF2ygElLt1OqqcFstVKcncC6JZ6MX7qTktwkNq1exMwFywlLzqdCraairIBTOzcxe/YCovOqMP0HM8RshJFbiYBEQCIgEHihxKNu7rIJva4WVWEW5w9tZcaU8cxctIqAyERWjHPExckJZxcX3NzdcHV3x9nNhUlzFnIrMu4h8UhNjmDVvOkMHzECFw93XN3dcPNwxdVN7E8nMiqARfNm4LNtH6pHZmZZTTUPiUd8bCheS+exbPdptNW1CjOtFj1lhTGMHzGCLWciiY8LZ92yJczwOaIMY4mTyvJT2LJ8sSIeuYn3WLNklhLkcnVzwdXdFTc3N1ycXZg2ewFhGWqMZjl4JX/2EgGJwLNB4IUSj/uQWa1YzEaqNKUc27CSObOWcDUgipXjnZi7eCch4bFkZmbWpawscguK0KhLHxKP9KRIVi+cz/ilu0hOSyOjwflZWdmUZkawdP5MfLf5Ua5/4OqJOjwqHnFxoSxbMo/FO06hraqpq6YQj4JYxo4YwaYzEcTFhbPeawkzfI9So9Mr55QVpLJ1xZI68UgOZ82SOcxf5ktUSjoZmRn37yGvoJAqnVhp+D4CckciIBGQCHwOAbFe1cGDB/H19X0o7dixQ3k/kpjGa/t7IcTDarFg0JQSeOsW90S8oUKDXq+jrDCdbd4LmTffm5CYDPavnMXsuV4ERKZRozNgMhpQlRZSUqamurL8IfEoyM/k0DovRk9ZTHRGoXK+iJuoy1XkFhRTo8rCd/l85i5eTXR6oTIUpavWUlpSikpV+pDnkZGRyJYVixg905vk3GIlkF+tLiXs4j4cRzpz6E4KqclRTxSPkvx0tq31Ys78ZYQm56E3mjHqa6koK6WwqBS9yUxFaSGZ2XmUqzXUVmlISUpRZpNp1BXk52STX1KORQZGbL8NuZUIvHAIiJc8nThxgjFjxuDk5KQkETD39vYmLy/vxYt5iJlUFenRrFy8iNlz57Pr2BmCgwPZt2kFM2ZMZ/3Og+SXaYm+forZM2exzGcbweExxEXfY/+ODezce4780pL74nE5rkAJUEcFnGXa1MksXbeduxExRIUGcXDHJtbuvUhNbSW3jm1lzsyZzFu1h+iEFEJvX2LHtm1cCIp9SDxKylTEXD/ApPETWL1xP/ciogi4doal82YyeZY3WcXl5GXG1onH2geeh6oglW0rljJh2W4q1BWEXTqI5+yZzPHaSlh0PLERoRzYtY0dew5SUqUn4PQ2vFev5eKdKLLDzjJn9hwO+ycRF3KVdT6r8Tl4Q5kl9sL9YuQNSwQkAvcREG8KnD9/PsOHD1em606cOJFr1659bpmSF8LzEOM1FmMN925fYc3iebi5OOPq7IqbxwQ27ztJam6p8pyF1VjNrQtHmT9zCi7Orni4ujF17lIu3IqkrEJFbtxlXF3duJ5QSLXRSpW6lMDLx5kxaSyu7qNxdRvNjAXenL0Tjc5gpEqVz5Xje5g41gNnZ2dcPcaweusBopLTUWUGMXbMaE7dTabSYKFaU4b/qT3MmCQC+c64uY/Gc9laQuNz0OmNqPKS2b3GG8+tp6nV1T1UWFGUySHflczy9VNmjNVqSwm6fII5k8fh4eGCi6srsxcs58LNu2hrdFw+sIoZMz05fv4WqYFHcXFxYffZcIKvnWTh3FksXHccnfHJD0veZ5jckQhIBFokAuIhwbCwMMVmiQcF9+7dq6yg++jNvhjiIe7aasWg11FVqaWirAxVqQpVhZbqGh0mU/3CX1arEkyv1GpQlZVTXl6BtrJKMd5icTCTUa/MMDAY66a9WixmDPpatJoKVOUVD50vgvMW8TBgbQ1adQWlxaVUVGiorqnFIBZXNBnQarXoDWKhRRB5iWEvrVqNqqSMclW58vCiKEsJ9JuM6GprqarR3XcdzSaTcqyyurbubV5KfXSI+peXl1GmstXfoAxH6aq0qCu01NbqMOp1lJeqFCESD0tWqdVoK2vu5/0oUeRniYBE4MVAQNgb8Vpv8WT5okWLlDe0Pm5xxBdHPBq2u1gV9wtWxlW+f+oIs+3Viw0LabCvPEAu/jU49u92bXV76rIfn1Fd/R/5TuTZoA7inPt/Srn3P8kdiYBE4AVGQKymm5WVpbyvQ8RBHvf3YorH45CQxyQCEgGJgERAQUB0LOWS7JIMEgGJgERAIvDMEWgRnod8De0z54XMUCIgEZAI/FsEhGci4iJf6dfQCtcqLi5OWbRLjNPJP4mAREAiIBFoWgTEG1XFcx/R0dHK21XrYqy22O+z2zbpO8zFE4+FhYWKgIgXmDwUBG5a/GTuEgGJgETghUNA2NiKigrF5goBER34r6x41NbWItagT0hIUKbSKu8Zb/AY/QvXuvKGJQISAYnAM0ZACIR4o6B4xEC8ojY+Pp7q6uq6xwQazBJ9lkLSpJ6HraIieCPEIyoqioKCAuWmxDCWTBIDyQHJAcmB/5wDQijEku1iqEqECoT3YbO/TbVtFvEQw1c1NTVK7EMIyN27dwkMDCQgIEAmiYHkgOSA5MB/wAFhS0VwXLzTQzz/0dQeh02MmkU8RGG2ecnixoRrJbwRmSQGkgOSA5ID/zkHhE0VtlXNcYxVAAAgAElEQVR4cU0Z57AJh9g2m3g0LFTuP7sZDxJLiaXkgOTAf4MDUjyaKJj032hMWaY0IpIDkgPNxQEpHlI8mjyw1lxkluVIwyk50HwckOIhxUOKh+SA5IDkQKM5IMVDkqbRpJG9u+br3UmsJdbPKwekeEjxkOIhOSA5IDnQaA5I8ZCkaTRpnteekKyX7KVLDjQfB6R4SPGQ4iE5IDkgOdBoDkjxkKRpNGlk7675encSa4n188oBKR5SPKR4SA5IDkgONJoDzSAeFlRF+eRkZ6NSVz5UwZoqLdnpKeQXqdAZjPXfWbCYjeRmpBCfkEB2XhHm57hhK8uLiYuJIz41H0sj66mvraW8tJj0lGRiY2KIjYsnPSsXlVr7pe5ZrCFmMuoxGE2YzRYFT4vZTLVWreCfnZ1DYUE+BaXlGE2mh9riC3s3FgtWowGryYzVInuDX4hXI7kg85Oc+qpxoBnEw8zVXWuYMXkSBy6HotOb6pcJtpCdGMmCcaPw2XaSkvI6YRHCUavJZdEEN5yc3dl3LhDjc2ysUkMu4DTYEY+Ffo0y+EaDnpykaDYvW4T7KEccBgzAYfAQRk+YxubD16g0WjA38r5FngWZCSQmZ1FZo1fEwWjQEXXnHHNnz2TatFl4LVzEhmPXqKrRPb14CKGprsKamYQ1R4W1Sl8nItJAPj2GEiuJVQvjQLOIx+lV07Br15puPQZyLSyX6lrhZVhIiwxgdK92zFmyi4KSuiWEaysrCD+9mSHDRrL5yGVU2trnmnRJwecYOXAkHp6NE4/c5LvMGO9Im7Zt6dlvELPnejJz6jgG9umJXZ+RBOZUozPWeQ9P2yPRlJewcb4Tk6avIjm7RMFNV1vNxX1eLF6ymNmzZjFzpidn78RSqzM8Pa5lRVhPHII5ruDog/VIMNYC7dNf38J+NE/bHvI86U20ZA40i3icWjmF7h//iw8+bEMvlzkk5hRTazSRGnEH956fMGvRTmVYJTMlntB74eQV5JOcmkZM+D0iwyLIzi9Gpy4kIjyMiKhoIsPvcuXqDVKzCslMSyUs6BaXrtwgKimLGp3ocVuo0laQHh/FtcsXuXLdn5TMXKp0RkxGA8mRISQmpZKQkMj1a9e5F5emLBlfVpRLTOgdLl28wA3/ALLzS6jW2YbT6n4IZqOO4vxsbl+/wrkLVzl3cAsDezgwxtMPkxg20teQkZKI/7VrXLx4lbv3YqnQ1mCqH0ayWsxYjJXsnOtK967dGOw0jdC4FPILCynIyyEhJpq7EQlU6s1UV5aTlhSj3MOFi1cJj89AW11Llaac9OREwhPSSEuMxv/qVQKCQ4kKv42H/ccMGDSBUxcDSMsoQKerIS4igDMnDrFr525OnLlGUk4ZOoNJGR4sLykk+u5tLl08x3X/O2TkFFCjf2RIqzAdRg2B//sZ/Pav0G8y1pQyKR5SFCUHXmAONJt49O/eGYdBDnzYug1Tlm0mObuIpPA7uNWLR2ZyPPt85+I6eiwpFQaMZjPXt69kyuhxnLsdSUXybdxdnBjl6oaLiyvOI4cyetxMPKdPxNXZESfHEQx1m0Rwcj5FRfncOLkLt1GOuI8eg7OTIxOnL+BsUDw1tVVsmTQcV/dJTJw0gRGjXFm56zjJ0SFsWTYbxxHDcXVzZ/iwIYyb5cXNe0noTDYPwEJecjirFs1i4KCheIwey6C+vejY0Z7R8w5Sq6sm6Lwf493dGOk4CldXF4YOGs7ancfJKSpXYiIWswF9WRJD+/eiu/0I9l+NxGC23I+XiFiFeCOYxWLm7qkdTJ80hpFOTjiPGskQ5zFcvpdCRkocvjMmM9RjEtMnOjN8uDPz5y7Ec+YY2n/wLp279mSE8wQ27LhGaXYE86ZNVDBzcnRihKMzczeeoLyymvz0GLasXMiIoeJeRjNi+FAmzlrIpZDEh4cK1aVYLx+Af/0L3nsL69bjWMsejl+15B6WvDfpQUgOfJ4DzSYejsNGsf/kRUb37Eqnznb47DpF4M1LuNq1UTyP9PhI1i8Yg13f/sSX6TGYTZz1mYlj/4H4nQtEFXeFPj270L2XI9v2HWXn8gl89OEHdLEfwMZd+9myeDyt3nufWdv8Cbh2nFFDevNJh/7sPXGWg1u96dvdjhHuSyhUq1k+oiOd2rWh5yBHVm/YzOnroRxdMZF+PXoywmUmV/1vsd5rOp927MKUpZsoVNfFD6xmHSfWzKF39+70dlvE7aBgNiwcS8fOffCYs5eKoiTc7DrTw34AK7Yd5salk4xx6EjH7g6cuhmB3mxBeC6aVH/62Xejr8t8wlLqhpceJacQD/8j65k4Yz57jhxn/8b5fNSqFR4LjxIaHMRix8G81+ojBoxwZpm3L0dPXCboyn46vfsudn0G4XfyMrFxSZRn38N9pDtrtx3gyN5t9LXrSetPhxKfV8DxdZ707tEde6fZ3AgIYufyyfTs0ZNR4xdTVG16EHPRi3hHNOw8Bkc2QWg0Vn3TvRv5USzk58//cCUmEpP/NgeaTTxcHMdyJSiFxFvH6dWtE137ODJ36Sqc7ds3Sjzmr9tFsaaS0qQbdGjXhnG+J8gsVpETf4PP3nuPicvOsXPFXHp3bc+nA51ZtWoVK5bNY0j/HjgMdyQmv4ylwz+j3wAnjt2OwWI1YzVpmO1gx4D+TpwNSkB4B7XFcYwY3Jc+o2YTklKK1WLBUl3IvIlu2PUbxdmgFMwWCyl3z+M00BHX6VvIvHeYtm0+ZuyyI2QUVlKrVhG0awUd27XB58AZymvNmI21aNPqxcN5PmHJjxcPQQyTQU9VRRkZiTFcP+dHj9atcZ55gIBbt1nsNIKPOg8jLL0InVHMgDJQmBVJ73ffxdl9OYlZxcrwncVsQl9TRWFWBsGXz7DMyYHWre2JSYlj9iQP7Po4cuZOijI7S5sXy/zxQ7AfMoqAdA2G+x6X/KH+t3+osnzJweeNA80qHjfD89DXVnNtzwIG9upC6w8/pO0nnzB94U7uex59BhBbasRgerznMX/dDkq0lZRn3KFD+7ZM23yWHJWGvNRger33HpOXnWPrkhn07dYeu8EjWbJsPgsXejJnzmxW+a4jp6wCrxEdcRwxmeC4LKyKeKgYZ9+TgQM8uBGRhtViwlyZzfhhA+k/chahSSWIWIW5MofpE5zp6TCaaxG5deIRXC8e0zaTdmefIh7TN58nR1WLvqqCxEs76PRpO1btP4Wq1oTVbMCkTmGoGO7qPpBt5+/dH7JSyCGmxIq4iEnHncPbcB08gD79B+I0aiQfvf8+TjbxcB7Fx31mUFCmrvMQFPEIrxMPt6UkZhZj0lVRmBLCnDGO9O3TnyEOg+jfrRutW/ciOimaKRPc6OngztWwHOVedKXpeM3yoNdgJ26lqtFL8ZBj+i/wmP7zZqyft/o0q3j4RxRgsVipKM5k68LpdGz7Ma0/+oRpC3eSmRTN+oVj6NTNjhNBKeRlpbNjzhgG2j88bPVAPAIU8Zi++Ry5Ki15aXexrxeP4ztWM6hPN3p4LCAwPJroyDACbwdwLywOdaVGGbZydpxKaHyO0ju3WnT4jhlAH/t++B65RklZGYlB5xjQqxvDxy0iKV/MLLJg0ZXhNXU03bv1Y/PxW5SXl3L50EZ69BiI+6ydFCbdoGvbNgxyXkZQTBoFOensWDSZtu07s+X4NaoMQhjE8xLVHPQaj13XLvQePpqT1+6SlpFBUkIMR/fvwWvDYQryEnHq35uBrtPZffQ0l8/tp9MHrRh1Xzyc+bj3HIrLNXXiYzFSlBVJ3w/eZbjTfO5GJ5OfmcrRNfP59NM+rN1xiHOnT7LQsVed55GZzvJZE7HrYc9avyuo1BqSQi8xdlBvBozwIKawGqMtyC8NiBQRyQHJgUc40Hzi4TQW/8g68RA966yEe8weP4oO7dsxbeEusrPSObp1OT27dGbk+Nms8VrEEPse9O0zhIMi5hFfF/N4VDxmbDlHbnkleWkhiucxyes8oSGBrJg1nm529kyctxzfVV5MnTCRxV4HKdNqWe7YCWfHafXiIdxhC+FX9uI6YiAOw0aweu16pngMpU+//vjuOYGqqn7GlUXPtT2rcbC3o4edEz6+qxk+ZACfdu2Hx7z9aDVFrJrgRh/7AYyZ7InPyqVKT3+g41QCotMfCkLnJYfiNckNux7d6WHfjzHjJzBqxDD69h/E8NEziEuOxqFPL3oNH8PqDVvwnjuRTu0+wWWOH4G37rDY2SYe2nrPxYyqKJMp/drSy74v02Z4snPfKQ6smEfbT3qwcMVaNvp6MXxgfz5u3Ye43GKCz+/BfVB/7Ps44LNhE1Od+jGg3wAWrT5Ehc78IObxCGmetx6QrI8c0pEcaH4ONIt4XN25mGnTPJXhH+F5iIY2G2pIiQ5igttIlq09SYlKTXbcXZaPG0LPnj0ZNGIUS5fMxmPMFM76R6PJCMbFaTi+u49QUV2NJvcegxwG4H3Yn2JtDcW5sTjb9WLBnjvkl1aQkRDGitmjsbPrSY8edoyZNJ+rgdFoq6vYOseJqVNWEJsu4gJ19anVlnDrzH48RvSnR8+e9Og/mHX7z5NR8PCU1NK8NA6sXUKfnnb07DOMtTu2MWHCRGb7XkBvNJCTFsP6pTPp17sXdr3scRw9nVthqagrH3koz2IkNzWGgxuWM6hfb3r26IGdfV8mL/ThdngiBkM1p3esYXj/vvTuO4Ap81eyaPY4ZvicIyoinLVTp9LPYxUqTdX9Ya9qjYoL2+YxqH9v+vQbgs+Ww6RH3WTs4D706tmDUWMmsmXrWob0GUNKsRqNqpigi8dxG+qglG/fpz++O4+Snl96HxcbPnLb/D9OibnE/HnmQDOIh1WZdmo2m5Uhq4ZgiOU0xHEReBbHleU1TCZqa3XKEhsm8Z1yXd1wT8Nzhbdg+yyWBVHyMokZQhalHNtng06HQaevn/5aV45ynS3fBr1qMcPJaDRSW1uLQW+oL/sRAit1NiHyNRqMdXVQ6vngHsxmE0a9ntpaPUaTuG/bVN+H81LqaDZjMhiU50z0eiOmBueLpUUMBj36+rrcv19xj/XYNMRTwVBcozNgMBgR+IkyRD114piybEk9psp9C6zqpgbramswGOqWNbEJ/KN5y88Pt5/EQ+LxInOgWcSjsQD/O2Pb2HyU85UAdONIrpTfyKVBPlc3RcQeLxqfO7de/J6Z0X5M3b8o72eKeQNBfty9ymON46PES+L1PHLguRSP5xEoWSf5A5YckByQHHjAASkespcs4xuSA5IDkgON5oAUD0maRpNG9r4e9L4kFhKLF5UDUjykeEjxkByQHJAcaDQHpHhI0jSaNC9qT0vet/QyJAcecKBpxcNixlpSiPXebaw3z2O9cU4miYHkgOSA5EBTckDY2rv+WIvysDb2jaGN6Ew3rXgYjVhOH8Di64ll9Wwsq+fIJDGQHJAckBxoUg7MxuIzD8uxnVh1TfcyvaYVD70Oy9JJWMPugMmE/JMISAQkAhKBJkbAbMKaEIll/hisVU333p2mF49F47HGhoHV2sSIyewlAhIBiYBEQLG1GUlY5rljrWq610U3n3jINpUISAQkAhKB5kEgIxnLXCkezQO2LEUiIBGQCLQUBKR4tJSWlPchEZAISASaEQEpHs0ItixKIiARkAi0FASkeLSUlpT3IRGQCEgEmhEBKR7NCLYsSiIgEZAItBQEpHi0lJaU9yERkAhIBJoRASkezQi2LEoiIBGQCLQUBKR4tJSWlPchEZAISASaEQEpHs0ItixKIiARkAi0FASkeLSUlpT3IRGQCEgEmhEBKR7NCLYsSiIgEZAItBQEpHi0lJaU9yERkAhIBJoRASkezQi2LEoiIBGQCLQUBKR4tJSWlPchEZAISASaEQEpHs0ItixKIiARkAi0FASkeLSUlpT3IRGQCEgEmhEBKR7NCLYsSiIgEZAItBQEpHi0lJaU9yERkAhIBJoRASkezQi2LEoiIBGQCLQUBKR4tJSWlPchEZAISASaEQEpHs0ItixKIiARkAi0FASkeLSUlpT3IRGQCEgEmhEBKR7NCLYsSiIgEZAItBQEWoZ4TMAaEwoWS0tpFnkfEgGJgETg+UVA2Nr0RCzzPLBWabFarU2SvtZUGSv5GvRYfD2xXjsNhblQUiCTxEByQHJAcqApOVCYizXgChbvmVhrqppEOIR9b1rxMJmwhN7Gsno2lplOWGY4yiQxkByQHJAcaEoOCFu7YjqWwKtYDfqvqHhYLFh1tVi1aqwVZVjLZZIYPCUHBF+exJn/9Psvy8VHy33085fNV17XNPbh0fZ59HNT4f5oOV/0+T+tR8P8xb6mAmttDVZhg7+Sw1ZNVOmmAkPm2zRjoxJXiavkQMvjQNMOW0nxaDLVlz/GlvdjlG0q2/SrxAEpHlLgpMBJDkgOSA40mgNSPCRpGk2ar1LvSNZV9uYlB5qGA1I8pHhI8ZAckByQHGg0B6R4SNI0mjSyJ9c0PTmJq8T1q8QBKR5SPKR4SA5IDkgONJoDUjwkaRpNmq9S70jWVfbmJQeahgNSPKR4SPGQHJAckBxoNAekeEjSNJo0sifXND05iavE9avEgWYQDwv5GcnExsRRWKp+yFBVqlXEhoeSlJ5Hjc7w0HdfJRCtVgu6mioKc9IIDwnixvXr3PS/TVRsMsVlGowm05e6N4NBh95gwGh6sMRApbqMtKR4YuISSUtJJi2nkBrdl1i/Rq/HKuplkT/YrxbXZHvJ9no+ONAM4mHm0ualjB7lyMZj/mir9ZjMwhhayIoPY4bTQLzWHaa4vOmWDm5qstVUVpASdQvPKR4MHuRA/3796N9/ICMc3Vi78yzaqhosjfVwLBZyksMJjUhApdXdF5+UoBPMnDIBN/fRjJ80lVVb/CiqaMTKmUIwtBqsSTFYkzOwqquwGr6cuDU1rjL/58NIyHaQ7fA4DjSLeJxaOYXuH7/LZ516cfJmKpU1wsuwkBpxB/eenzBr0U7yiysUA2mxWDCbzfXJgvhcV/G6fbPFjMVS9734Tkn15z84VzR2/fmP/a6ODLZrxdZWpnKsgaFv+J3ZLPJ8hEgWM9GXD+PRsyOtPmhN7+ET8VrpwxLP2fTv1o2OA91JL1Jhqq9rw3JsDaKUqXxvu28zZpOerdP74jHZm6jUsnocTFze4cNqr2X4rvZmxow5nLmTgrq63mtrcB+iHJGvrYz7W40G6+HDMMsRXKbCwUNYC7TSA2nQ5vexksc+zx+JicSkngPNJh7dPv4X77f+iE8dxhKRlk+NwVQnHj0eiIe+RkNuWgznTx3n4EE/Lly7Q2p2IWaTEV15Dv43r3Przh38b1zm8NETRMVnkhQbyfWLpzl05AS3wxKpqhW9dAuailKi7t7m6CE/jhw7RURcCtrahkNjFopzMgi4cpHwsHiuXzrPkcNHuX4nlBJNLWaLBX2tlpS4KE6dOM5+v8NcuBFAbrEQggcCUlOahffccXTs2BU3zy1k5hVRoVZToVJRXJBLemYeeoORiuICIoNucejgQQ74HSEkMgWVuprqSjVxkUHcDY8kMvQ2546f5OSpO8QGnsW5SwfsBo5jz/ErhMVlYDLqSYq6y+nDe9m8aTN7/Y4Tn11Clc6E2WRAXVrAjUsXOXzgIMeOnyc8Ookag/lhr0etwrp6Nvzml/Cb30PvMVjjSpp09U1pjB/wRWIhsWgpHGg28RjYqyfOzk589MHHuE1dTHRqLonhd3CrF4/c3DzuXTnJJJdhDBo8HDdXZwYPGcr4Od6ExKdTkXyLUSOHMnjoCEY6jsJpuAPDRrgxxs0Fp5HDGDl8CH0HO3I1Opvc3ExO7/Jm2ODBuI0eg9OI4biOmcLuS/+fvfdwqird9z6n6p2q+Qdm6ta9defed2pq6t66U2+9VXNOn9PdntZusyKCgIgoOUkUMYsiJlSMYEAUc0BBwACCGDChgIASJOcgOYfNjp+pZyE2GLEVtfXZVYvF3it/n+/6fZ641mM0esOLYKonN+UqiyxnY23tjIvbImxtrFlg58Te87dQ9XWRcjEETzcHrBfa4OHuhuVcK1YEhpFT3vAy9/G8MI0ltmbMtrQlOauaAc3vVUAi56/V6tCru4k8spdFtgtxcHTGbv485s93JzYpg7rnNewNWsYCWxucbK1YYOOEi/8RDvm7Mu3XX5gy1ZiFzr5sPnWdxoJ0AlYsxs7eHidnR6zmzcV30wFKahqoLclhR8ByzC2scHF1w85mAQ6OHpy6ep9+teZ3gPS0Y0gMg18nwl9/hNVbMLSpZMlD5qhfevpbCW7yOsYW1J8NHo62LkRevsEam3lMmzaLjXtPcyvpKm6zxyvVVoU5Wexd48G0SdPZdTia9Ef3Wb/Ck1mmc1kREkNT7nXmGE9n7kIvIuOuEXXAn3+M+4lZ1i6ciorjbMgafvzhb6w8eItb8WextzJhwkxbzsZdJfLoHuaZmmDrGkBzvw6dUnLQk5l0Aeup4zC28iYu6TYXInZgbmqGkf1WGsuycLOzYI6lFfvPXSUz7Q6rHeZjNNuKHSeTFQgJc5alJeBoNosFTu4Ut2rQ6l5PML22l9tRJwjevoP4xOuc2RXApAmT2BB6nKKKMjatcuaXCZNwXORD+IlzxCU/pPDuBaZN/g0jM2+iEx+SV1xJe1U+u3fs4OCJC1xLiMPH3oIJxi7cevCY6xfCmT11CnZ+27idmsbFI1tZaDoLY6ulVLX3vjxfw0AfhqonEHMD4i5gSEnDoH39nOWNJzWRHpAeeJcHPhs8XBy8SH5YSuXjJCxNjTAytcZnzUbsTX5j1cajPEqOw3v+XEwt3Knp1qHRGXh6N5r58+Yx3S6I+pwkBR7rQ4/S2NlNS3EKE38dj+/+S1Q2tlFdcJdpP/yAb9BVjgStZs6M35hktoB1AevwX+XLfEsTbJzcKGlXo3nRYC/g4TB7Mhv3xdLW0UPVszSW2zsy0SKAvJtnmWcyHd+Ne6huH0CrUfPw6gksZpqyIuAA3S8CbnlGIq5mxsx3cCO/offFvkeaTq/T0tPdSV1NJen3bxNzLJgZUycSsPcw+aUlbFrtymRzJ+5kFaEW56YdQN2cw+xZ07Hy3ElOeZvSfqEdUNHe0kRJfg6JcdGsdXdk3DRHriUlc3z3UiZOncnplCq6etW0VuRzwHchv06czIOKNvo0b2j/kLltmduWHpAe+IMe+KzwuJ1Vh1ar5WHMHhaaTuGHH35g3LhfWL7hKPcSY1g01xKzuYtpGjAo7QpF6Yk4Wy9k+oJNw+ARQVNXN23l95j42wRWhF2hprWL2tJHmP7wA34KPFZhPvM3LJ292XdgDyEhe9mzZw8nz5yj9ZWSh4DHln1xCjxqC9Lxd3DiN/N1ZCcex3L2VFZsDaWhR4tOoyH3djQLTeawYt0+ul7Ao6Usi5Uulkwzmcup5Ez6BzQjzCga2dU9zZwN247pzGnMNJmDh7MV4//x80t4bF6zCCPHZWQWVg1uOxwe7jvIKWtFq1ZRl5PKKuf5TJs+EwtrW8xNZvH3yXYkJCRxLNiPSdONiM5spFulpau+lJObPPh14iTulbdIePzBG+RdOS+5bGQmSerxfenxWeGRklWv9FbqaW/gdHAg03/7hZ9ewCMv4z6bPBYwdaYpsQ+f8by+lthDmzE1nYPN6jCac4dKHkPwuP8CHldfg0fciRCsLWYxxWktD5/kk5ebTerdB2Rk5NOv/b3NY6jk8So8Js0LpCb3NjaWJpg4+HE7q5CWpjqO7VzKjJlmBGw7j+pFo7m6t41jOwOYMfk3Zs625kL8fXLz8snOuMvxnSvw3xbGswcJ+Nha4rBoKXfSM7kVHcq0yRNGwsNpOZmF1YPw0A2gbsljzqwZWDhv4N7jEmqr64g5vBFj83kER1wk7eE9Nng58PMUe5JTHhJzbAdTxk9kVXA0FdV1PLl7FQdzUybOsCK/oQf1G6rT5M3+fd3sMr1len9KD3w+eDh6kZI9CA+DQUddWR47AxYzeeJvrNh4nIrycpIuhGFtOQcrRzf816zA2mouNm4+xN/Ppu3ZdcyMZxAYOhIeKw9dpaatm9rSNGb/8ANLtsWTlZ1J2NbVGJuY4Oy9nDUrl+G5yJONQafp1gyDx/ULOJhOZcu+S7+XPBydmLxgM22t9ZwM3cC8eZbMc/ImwH85xsazsfFcz+3scnRDOVm9lsqCDHYGLMF45nRmz7bAzs6eBVZzsbScx5KAnTzLvM1SZyvmmM0jcMtWVi/3YtqkX9kYeoT80lI2+7tjJOBR9AIeei26/kZWWVlgPNMMN+/VBB24xKXj25ltMgcHdz+CNq7DxcaSn6c5cjM1h8LHd/Gwt2HGLCtWrvHHzc4GcwtrAg/E0dU/8KKdR948n/LmkfuSfvqePfBZ4HE/ah9BW3fztKz15TgJnaafyqKnbPRfzoFjSbR09NDWVMOduGN4uznh5OiI56pArt1/Qnt3Lz212axe4cex6Hg6+/rpfp6Dt7cn4fGPaOnpp6W+iFXOLuyNyaCxtZO6igKO7ArA2ckJR0dnAraEkp5TpuTABwfsiXEmd9i82o9TF1Pp7lXRUlPIoc1bWLztLD0DaprqK7h8Zj/urs44Ojrhu2IrqU/EuIqRI7p16n4aa8q4eHwfXi4uODo64urmxa4DZ8grr6W7vU5p0BY9w1xcF7H76Hn2rPbi1MV4qp8/53j4LpZv3U9xbdOLKi89ep2GtPizrPBwx81jKaEnk6gqyGTbymU4OzrhvXgFUdFncVsaRFZBNT3dHRQ9fUDgysW4ODnhusiDAycvU9XQ+WJQprzRv+cbXV679P+n9sBngMeHJ5pOq0MjupcqDdsfvv1wkURbhdjfGwfMDZUe3jUXg/e0OtTifIaN7xh+jOH/63U61BqN0kV3+O8GMYBPq3v993cdWwx0FIMctbqX7SiD3X+1b78evQ6tevD4Hzyq/Z3n8nHpMEILeZyX6Sl1kW1IoYQAACAASURBVL76s3rgq4TH1yimDMTyJv8afSnPSfryS3lAwkPmgmUuWHpAekB64IM9IOEhTfPBpvlSOR15XJnLlh74ejwg4SHhIeEhPSA9ID3wwR6Q8JCm+WDTyNzf15P7k2kh0+JLeUDCQ8JDwkN6QHpAeuCDPTC28NDpMNRVob8eiz4qAv2FI3KSGkgPSA9ID4ylB0SsvRaNoboMg3bk45I+ZSllbOGhUQ+aJHw7hpOhGE7uk9OfXgORju9Ky49d/j6PvG//b9v+j243tL+P3X5oP3I+ujjwvej9R6/zXduFoj8SjP70AQyqvg8uUYwWMGMLjwEV+s2+GLJSQadFfqQCUgGpgFRgjBUQNT5FOegDPDD0dP+J4bHRB0Pu4zFWS+5eKiAVkApIBV4qUF6Eft0iDD1dEh4vRZH/SAWkAlIBqcC7FRDwWCvh8W6R5FKpgFRAKiAVGKmAhMdIPeQ3qYBUQCogFRiFAhIeoxBJriIVkApIBaQCIxWQ8Biph/wmFZAKSAWkAqNQQMJjFCLJVaQCUgGpgFRgpAISHiP1kN+kAlIBqYBUYBQKSHiMQiS5ilRAKiAVkAqMVEDCY6Qe8ptUQCogFZAKjEIBCY9RiCRXkQpIBaQCUoGRCkh4jNRDfpMKSAWkAlKBUSgg4TEKkeQqUgGpgFRAKjBSAQmPkXrIb1IBqYBUQCowCgUkPEYhklxFKiAVkApIBUYqIOExUg/5TSogFZAKSAVGoYCExyhEkqtIBaQCUgGpwEgFJDxG6iG/SQWkAlIBqcAoFJDwGIVIchWpgFRAKiAVGKmAhMdIPeQ3qYBUQCogFRiFAhIeoxBJriIVkApIBaQCIxWQ8Biph/wmFZAKSAWkAqNQQMJjFCLJVaQCUgGpgFRgpAISHiP1kN+kAlIBqYBUYBQKSHiMQiS5ilRAKiAVkAqMVOCbgMemxRhy0kGvG3lx8ptUQCogFZAKfHoF9HoofYZ+nTuGni4MBsOYTP/LWO1Y2a96AH1YEIYrZzHkPcbwLFtOUgPpAekB6YGx9EBeJobEaPShgRj6escEHCK+jy08tFr0eZkKQPQbfdBv8JaT1EB6QHpAemAsPSBi7b4N6LMfYlAP/EnhIYpLWu3gBaj6MchJaiA9ID0gPTD2HhgYwKDVjBk4xr7kMUZ1bWNa1SbPeUwNJ9NubOqfpa5S18/tgbGttpKBWAZi6QHpAemBb9IDEh7S2N+ksT93LkweT+b8vzcPSHhIeEh4SA9ID0gPfLAHJDykaT7YNN9bDkteryxVSA+87gEJDwkPCQ/pAekB6YEP9oCEhzTNB5tG5sJez4VJTaQm35sHJDwkPCQ8pAekB6QHPtgDEh7SNB9smu8thyWvV5YqpAde94CEh4SHhIf0gPSA9MAHe+AzwENPWV4mN67FE391cEpISOJ+agYV1fX0q7Xo9a9T7TXS63X09fahGlCj/8MJrUOt6iAqLITTF+/R0Nb3XsHUfZ2UPn1EQvw1Citb6VONHPLfWF3A3Zu3eZRRgOYN56XX66grzOTYkZPE3cmjr6+HtGvnCTt0hmdl9a9dS1NNEedOhXMh6S49ff3vPb8hnQZ6Oih6EM+2bfupaO5AOxpNh85Xp8PQ24tBqxv18YaOK+ej8O6QznIu/fUNeeAzwEPHtQMbsZ1rgsXcedjb22NvZ4+tjT0+SzaQlPqEzr4BtDr9242l06Ltec6Vi3E8zilG/SGBcXhi6bX0dVbhNG0yTsvCKKhqf/sxX2w30NPK/QtbMTMxwX9HNLVNnYPb6PXotf1cCl2Bva0Tm3ZeZOAN56XTaXmafJ4Fc+1ZtTOOzo5mQpeaM9fSicgrj1+DR2F6Iovs5+C99QDN7S+ONfwa3vJ/b3MN8Tv9+OtfZ5BeWvfGc3ljoFepMNTXYYiPwlBSiaGzB4P2HWnxluO/cd9y3ff6S+om4ftn9cBngUfcjqWYT/8ND/+txF68SNS5k6z1cmTKpN+YZGpNfHYlPSo1Wq0Glaqfnp4eenp6lVKGVqtDo+qhKS8R01lz2B1+gbZeFWqNDhGYxfq9vYPr9/Wr0L0BQhqNmv7+Pnp7OmltLMRu8kQcfcMoqGxHr9ejHlDR19tLb28v/f0qNMNy4HrdAOXPUrGcMg6jhe48yC1Fpzeg16rpby7A3mQWs80cibqTp+xH7EOcvzgXzYtzVOBhYceqHXH0dHeQcHQTS1cEce9xCaJkotWoXx7/6d0ruCw0fQkPcY3i/AavsYd+lQqhiTCc2FYlrqu3l6aqImK2eCrwyBDw0BnQCT2V6+5R1hkQpbZXAVdZjGHrHpj0f4H/RriQhKF3ZOnqz2pued4yMEsPjJ0HPhs85s+ZxY7zyahUKgYGBuhoquDCvtVMGPcLjqv2UF7fTFN9JYmXowjdu5eQkP1cvZVBfXMbTeVPOLjZj4kTJuLms4ao2AQKylrobm/kxrXLHNwfyt6Q/ZyKvUVLVx+6V3K8NaW5XDx3ktC9ezgUForlP8YNwqOqHVVfLzkPb3Mi4hCh+w5wPi6R0obOYRDS09JQzc5VLkwYP42jcXfoGtCh6u3k8eX9GE2diGtACE9Lanhy9wYRYQfYuzeEs1EJFNe0KoDLESWPF/AQEMt+kMj52HieVTYoYKwrfMTJI+GEhu4jeHMA5nOMFHi0tHfS01pP2u0EwvaHsHtPKBcuX6f6eSsGvQ51bzs3LkZyMDSUkJ3BrHez4C8/ziCjTMBDS+vzCq7FnGZ/6B7Cwo9y79ETege0I3PDpTkYfKzhf/tf4d//b9h5FEPn6KvL5M05djen1FZq+zV74PPBw8yYXdE30OkHq0R0GhVF2XdxmjuFyQv8yM7JITJsE3PNLXF2XYSVpQVm853YdfY6pamR2FnO5pdx4zCZY84y/y3cTivnakQATg722NjY4Whvy9SZJmw694DG9sEXoOg0anpq81ji6YLZXCsW2jni6riQ8T//hK1vGNk5ZeRcP4m5qTH2Ti64ODlga7MQhxUhNPWoXrYbqHo6yLl2nMkTJ+Kw8gBFtS10tjYQstKWqdNMOXQmnrSUWOwsTLF3dMHO2hpLcyvcffbT2q8h+/rv8Oju7iQyfAMLF/kS/zCHqqLHLLE3w8x8Ls7OTlhbmjNt8uRBeLS1EBsRiqutNQvtnXCynY+ZmRl7jp2noraeuP1bMDc2xcbWAQc7W0xnTuMvP8xAlDyqy/IIWerNHPO5eHh5YWtjjZ2zO+duPRlZVfa8AsNSNzBzgP/vVziRjEEt2z6+5ptWnpuEytfggc8GD+tX4CEuvrrwMb620/hptjvpT3LJSr3FkfAz3L2fSuSB7RjPMMbPfw919dWc2LaGieMnsXZrKPkl5TQ0dZKfdoOzp85z42YKCdEnmfWPH3BfFkJJbauSux7o6yHjcgSzZ83GddkW7mc+Ie12DCYTxmPvG0ZKyj02etrxl79NIeRYJHHRkQT42PLb1Flcf9ZE74sgqtcO0N1Ugsc8I0wsHDh3PZ2aogfMnTwOswW+3H1STH1VISfDw7h28y63rkTivcCM2WbzKWzpJzMp8mXJo7OrnWN7VjB7oQuRCbe5fX4nv/3yM8u3hvHocTZxx0OZazJjsNqqrY2izPucOXma67fucSP2KEbTJ+O2dicPMjJZMn8Gphb2nL98i/S7N9i8yJq//mUGGSVV3IoMY96s6Zg6LyfuSjynwrZjaWKCjfduenSG3wHS04khLw3D4yK4fA1Def3IkskrpbivwbTyHGTwlB748h74YvDQ6zSU5z1ikdVUxlt4kZFXQlvzc4rynpB89QpHgvyZM9WIpWv20tTRyY2InUyfZMy+Y5foE/X5Oi2dzc8pfZbLnaREjoftxnzcD7j7BFNc1aQEwN7uDs6F+jN1hgUHI28xIBrMu6pwmTIJJ98wLsVG42xtxA8/T8PV3Qu/JYtxtLdRSjcX0mro6v+9ikejVhF3YDWzjUxZsmwH8eH+/PC3n/DZl0BNUzs9XR2UlxZyP+UGF04ewN3ODOM55uQ29vH4LfA4GXWJUwFO/OOXCcTn1NOl0lKYnsQiuxcN5m1ttLc2U1KQz63rCVw4vo9ZM6fhvHorCcnXMB33Ix5Ld1FW00RPYxUJ230G2zyKywjfup4Zv45nlrkVS3yX4O3qiJXFPBxd1tOqMbxWtSdvxi9/M8o0kGnwZ/LAZ4OHaPPYeeE6Go0GrVaLqqeVO7HhTPvHOKx8Anj69DEnd65h6sSJzDZfiI+LI1MmTP4dHkcFPIwIPRpLr0aHqq+buJCVmM6YyiwTSxYvXsy0n3/Azft3eIjG6VMhK5liZMXByDuotQP0tFfgPHmS0uZx5VIsLguM+GXWAvZHHOPUmTOcOnWKyPMXKHnexYDm915HovG58vENnK1MmDJpIvNmGPG3f5jwoKCanp5O0q+fxcJoKpNnzMLD0xXL2ZPeAw9nTkTGcGqVPf8YP4Hr+XV0qzQUPLqGq42pUvJoaqwl8shuLGZNZZKxBUuXePPbr+NxXhVE/PV4Zv/4E17LQxR4dD2v5EqQ1wt4lHIsOJCZv03CfVkgp4+f4PSpU5w8Gcnlq6moRIO/LFHIEpb0gPTAR3jgs8HDfMYkVgSHk52dyaPUexwP285so2lMmDCdsIQcslMT8bS2wWT+OvLKK0k8F4blzJkKPJo7O0k5tZcZk2ewaUc4RaXF1NcX4zBjKvPs1pN4J4NHtxOYO/EHFg0reah6u0g5sxujadPxW7+XxzkF3L92mokTfsHGN4zbt++yzsuWv/5gzMnYm+Tk5JL+4DZxcVdo7OpHM7znll6PpqeRzcvdGf/3v/LLhIksWL6D2sY2OupKOL7Kmd9+m0lCej6P7l5j1SKL98Lj3JVkrh0J4Mefx7E8NIYnOU+IPboTU6OpeAftp6rgIWsX2zLP3o3k9Dyyb8VgOms6zquDuXkvFbeZ/8Bkni1Jdx+RdfcGayzN+YtSbVXN9bP7sDSehvXiAB49LSAnM4PrScncTC9A+xGG+TPljOS5ypy89MDYeeDzwGPnUox/+5EJE6cwf/48LOfOZY6ZOQvsXTlwOp769j7qSrJY52LL5N9m4emzGO9FDsyYYszyNSG09fZSnnqRubNnMmuWMd6L/YhPecjqebOYPdMcBxdPPFwdMJ0+EY8lu19WW2nVAzQXpeG6cB6zZppg57QIRydHpk78BYdl4WTlV5CfcpGFs2djZm6No5MTTg52LPJZSn5910h4iICr1/Ag+gDmMyby6+RphF7JpL1HRV9bHbEhfkwcPwEHVw98fDwwM52FhYWotup/a7VV9K10SrJv4TJ3JtOM5+Dg4oqNlTlmpsZKyaOuIo8ta7yYYTQTR3dvFnt5Mmv6ZDzX7+bxs1KOBS1jxrTJzJu/ADdHB+abCXgYkVZaR21lAYe3+mFibISNoyuODg44OHuy/lDyHx8nI6Ejc6rSA9IDLzzwGeChJzv5PHu2bmDDhsFp06bNhB89w/3MfJo7epVusaquVtKT49gSGEhg4AbOxsVz9GA4URdv0afRMNBRx8WI3WzaEMiefWFkF1aSeSOG3Vu3sGFTEGEno7l4OoJTkTdpbO0eTGC9Dr26jyd3rrEnaAubt2zlVOw1LhzdzbGLd3ne2kNfVxuPkuPYtmUzgevXs33nXpLuZ9H1loGLTdWFnNu/hx279lDU1MeARod2oIfqkixCg4MIXB/I3ojzxFw4Q9iB/dR1aajKTyf8wBGir2cr403uJ0cTEn6MzJJaejpaeJgQyZaNG9kUtJ1zF2M5cfAA566l0NXZxtNHN9i+dTMbN2zk0OkYYs8c5OyVZOpaOmmqzCcidCsbAjewP+woN6/FsWFDKBVNHahUfdRXFnHm8F42BAayfsNmDp+OpajyuWzvkAFQBkDpgY/2wGeAx+iLTWLAnhjk97bR5kPLxXyoOCrWF9P76vD1Oh36YYP/hrYfmivLxTrD9j20bNRzvV4ZwPdH9iHOTWz3+nXoEeeme8u5i2107zlvMahQJ3pYvTpAUN5AL3006jSWmknNpAcUD3xV8JA38OhBK7WSWkkPSA98SQ9IeMhchMxJSg9ID0gPfLAHJDykaT7YNF8ytyOPLXPb0gNfhwckPCQ8JDykB6QHpAc+2AMSHtI0H2wamfP7OnJ+Mh1kOnxJD0h4SHhIeEgPSA9ID3ywBz4bPMRjScR7LiorK8nLy+PJkyff5PT06VOKi4tpbm5WHj//MTkD8fj6pqYmZX9iv9+qZu+6LnHdhYWFNDQ00N/f/3FdqWWA+OAA8TH+ldt+2yWjzwIPEQTr6+sVaIhAUFZWRkVFxTc5lZeXK8E+Pz9fuc6uri5lHMaH3Ehi3EZnZyclJSWI/Yi52O+3qtm7rktc95AORUVFtLe3K89G+xA95brfdhCT6ftl0nfM4SEeglhbW6vkmkWQELlHERxFgn+LH3Fd4mVXouQhctTPnj37oByz0Kavr08Brch1t7a2olarv1m93ucBoae4fgGN3NxcZeru7n7pIRk4vkzgkLpL3ccUHmL0c0dHByIIVlVVKTf8+4LFt7Jc3FwiyD1+/Fi59iEAvO+mE+ARue3MzEylmk+sLz8o8BQZDwHk0tLSj64SfF86yOUyOEoPvNsDYwoPkYsWN7poAxC56e/tI0pdorouJydHqYYajRlFDlvAtrGxUame+d40e9f1isxIS0uLoqco2Y1GT7nOuwOA1Efq80c9MObwyMrKUgKoAMn39hGJIqApSh8i6I0mkUTDsCh1iHYisb78/K6A0EOUzARcq6urR6XnaDSX68gAKj3w4R4YU3iInPejR4+U+n+RON/jR0AzLS1NKUmMxqB1dXVkZGRIcLzFLEJDUXUlqvZGo6dc58ODgtRMajYaD4w5PB4+fKjkut8SC/70PwuRRXWKmL/pI34XABXVUKNJEAGP9PT0N+3qu/htSCOh6ds+Eh4yuA35RM6/nBckPN4WoUb5uyhdiU4BojrlTR9hbgmPNynz5t9ESU10b35XG5mEx5cLGDJYS+2HPPDVwKO28CHHDx8m+vpjNAZ4Uz5eN9BNeso1wsOPcje7BI12sB1F3ddNbWEaoTu3c/zCTRpaOt8cmcbgV1F9cvToUWU8xpt2/zng0dpQSeyZo4QePEZZqxq17k3qvensvr7fRLdu8R55AVyh3Zs+Eh4ygA0FMDn/cl74auBRmH6JtauWsnz1Rh6XNSpv6Hs1cDSUZbFn0xp8/VYSffMxA2oNBp2a8rw0QrYEsm37dtasC+RC0gNaOntf3fyTfhfVKiJ3HBYWxpIlS9i/fz9tbW1KFdbwA70PHnqdFrWqj+7efjQaLR9ebaXjyc0LrPLzxtPHj8gbT+nue3MpaPh5fW3/C51EV9wLFy4oem7atOmtPc4kPL5cwJDBWmo/5IGvBh7PHsWyaqknru6e7Dp5hbbuPvQvMp4Ggx7dQA9XI7bh7e6Mh7cf56+no1LgoeLxnavs3RHCg8c5XDl/lKMnz1LQMFT6MKBW9dPd1UlHZxe9/SrlbX0fGzxFbyiRO/bx8cHW1hZfX1/u3LmjVF8JcYc+4v93VVv193ZRkHGblIxCelTqD4OHwYCmt4Vje7bi4+mqnMOqHRE0tnX9rp1eT39vD2qNBtWAiu7uLto7OukfUKMbEhgxjkJPf18vXV2ddHV306f6vAMTRXWVGFDp7++v6Llo0SLi4uKUsTLD9RS6SnjIADYUwOT8y3nhq4KH/8oleHu54+y+lEfFDfRrBquldJoBGgsfsGLZEhyd7PH2XfoSHjqNmtaGGu7fjCfqQjQX465RWFFP/4BGCYiagV6Kn6QSF32es+cvkvIwm+7+AeWVrEMB/kPnQ+MN1q9fj5OTkxLsHB0dWbVqFc+fPx8xGPKd8NDraKwpI2ybPzdz6+ju13wQPESp5XnBQzb5r2RTUDBR4duwc/QirawBlXYQYFq1ise3EskqrKCoIIfLMZGcPBvJvawCOnsHQarXaejpaCLtbhKxF6O4GHuJB48LlNKQeMXvWH+ERqIUt3v3blxdXRU97e3t8fLyUsYIieeiDf9IeHy5gCGDtdR+yANfFTy2bd3G+ctxrPVxZUtIJJUN7SJPTG93G+dCA1nmH8jBsN1sClj9Eh7VufcI3bIGnyWrORAWzqb1a1i+ajPxd3Lp7+8l7coxVixdyroNQezetYMVy3w5Hv+E9p4/XrUjnjt15coVvL298fDwwN3dXZlE6SMqKkppQB8Kdu+Ch07dTeGT26wOOEhTV69SEviQaiutRk1KVAgr16zjfFIqtYX38LS1Y8/pFBraRbWdgb6eNg6s9MLH3RXfZSsIDNrG+pVLWeTuR1xKNl39Ktqfl7F780oWL1nC5q3b2LZlA17unmwOv0Rt81AJbuiKPv1cgOPevXssW7ZshJ5C2yNHjigPRRx+VAkPGcCGApicfzkvfFXwCA7eQcKDx1w/sx9fv9UkpubQ0dlJzZNkfBa5sSPyFrfiIwlaL+DxiL7OBo6FbmPthmBSHhfQ1NxMdWkuocFbCN5zmNL6Fs7vXcka/908yMqj4Xk9FaUlNLb1oNb+8Ry1yAmLEc7iAY9iBP3QJBrPxVNwxaNIhj7vgkd7UzXxJw5y/PJ9+lQDSgPxaOFh0GtQdVUTtGIxAUFHyKtqpLOtgbAtfqwM3EFmcR0GAY/uVkKXurJyxRou30qjpraWisJ0Vnp5snXvBQpKKrh1NgxXdy9ibqVTWVNHdVkBl4/swcNnKYnpRfQMjO0AT9FjTYysF88+G9JyaC5KcqKKcPhHwuPLBQwZrKX2Qx74yuCxk5tZhbRW57BpuR9Be4+Smv6IU3s2471iE3mVjWTfucSWgFVEJj6kvfopQetX4rc6gNMXYolPiCf+SgzB69awbtNOsksbiDu8hVWrVhN+4jypGU+ped6sNMb/3ioxPCx9+v/fDg8txZkphOzeQ2Z5E2rt4MMiRwsPdX83xamX8Fzkxt7Tl3lWWkVlRSmxx3bh4ePHxRuP6FHrFHjsW+rKpu1nKa9tBfRo1V2Er/Fm87aTpKVlcGDnRnw27KW2sRXRUUun7qO5/CGL3VzYH3WX5u7fYfjpFfrwPUp4yAA2FMDk/Mt54auDR0puOXqdmtRLh1m9ehV+q9ey0s+X8Au36ejuo+DBlRfwSKWpOI1Na5exyMOTtYFrWRuwlnUBAQQGbiD00HGKa9upyEtj2+YNLF++nJWr1rJldwSFte2o1H88Ny1yymIsgsgVi2dXDU3i0SKiSkssH/q8DR4aVRdJF8+yN/QcnRq9UmUl1h0dPAx0tjzn9L7NuLu5s27DJvbsC2VvyG62bVyHh5szmw+ep7ql+yU8tu2+SFVDl1KVpdX0cmytD0HbT/Ig9SF7gwMIOHCG5naxXKyiobejjFWL3Ag5l0JDxx+v4hvS4V1z0Vgu3vUiBlIOaSm0FZMokQwvyYn9SHh8uYAhg7XUfsgDXxU8tgfvICW3Qmno7mkoZs/WAOzsnfBZuoXStj40esMIeLRWZLMlYDV7jpylVfUCBi9GfCujvkUc1OsR40BK8h4TdTIMbxcndh6M43nLi0D5rqj2lmUioImeQKLNw9PT8+Uk2jwiIyOVgDe06dvg0VFXxOkjh7j88NmIkeejgodBS115Dv6ejqxYtYWjx05xPvL84HT+PNvX+bB89QauPS6mt7sVUfJ4GzxSHz5i745A/LZF0NDSMXguugG6nufhu8iNXZEpNHSOLTx6e3u5ffu20uYxXE/x/6FDhxSgDOkp5hIeMoANBTA5/3Je+CrhIQKEXqsm9/ZFQvfsIuZujtJGIaqahkoe56+n0d/VRPiuTSxfGci1R3lKD6u+rnaK83LIyS9SelVVleRR19isdD+tKsph+xpfdh+M+ih4iJyyaNtYt26d0tvKzs4O0dtKlG7EILfRlDxybp7l4MkoKhq7Phgeqq4W0q4cxsXZmXMpBTS1dSECsJhE43P+/VjWrFxJ8KEomjsG2zzeBo+nuQUkHQvBwdmHa49yae3spqOpluun9uDi4snlB3n0qv94+9DwoP+2/wXoRcljx44dSm8roaeDg4MC5YKCAlnykG9AHHGPSGB8OWAM1/7rgUdaLMHBO5WSx1CQ6e1qo6G+jrauXoaGTjxLvUJQ4JrB3lYDKipy7xMaFMiK1QGEhIayd/dOgoK2cerCZVo6Wzi9bwfbd+wiZF8ou4K3sXLZSq7cf/bRA+lEI+7du3eV0ocY57F48WJu3Ljx/nEeei3a/hbCd24nJvE+3QPaETfGaEoeTVW5hAatw2NpEBVNXWheGVHe2VjGgR0bWBO4lYyCCvYuc2Xb3phh1VZ9HFu/mK07TlNU0UBTVZ7SY81/7Xp27NrNrh3bWbNyObv2n6G6sU1pBxlKk7GaCyCLp+WuXr1a6arr5uamDBgU1YPCsMM/suTxdQSP4YFE/v/9pclXA4+G8iyuXk2gsK5leJx47f+Gilwux0aRllehPJ5koK+b8oIszh2P4PCRg4SFhRN95TplNQ309fdRkPmAk0cjOHjwIOGHI7ic/ID27n60wwbIvXaQUfwgcssipx8SEqIMFNy7d6/yAEjx+/CPuKmGDxLUazV01+URevAEmUU1yoDF4TfeqOBRXUhsdCQxyY+UwX7Djyf+12t6eHw3mXORF8kpredm9Amu3MimtWuw15IYH/IoPpLLSQ9p7uhDo1ZRU/SE6DNHOXTwIIcOhRMZk6B0lVapf2+/efU4n/K70ECMMD979qwC4sDAQKW6angpbuh4Eh7fX6Aafo/I/7+O9P9q4DEUGP74fPDptnq9EHbkXkS7h8jZjsWAN/Fe7fDwcKUefuRRB78Jow+Hh06robe9gZr6Zrp6B7vnDr8ZRgOPNx3nk/wm2ot0OvSfYWDg285XvHHy2LFjyrgPocubPhIeX0fwGO5b+f/3lybfEDzeFGbG/jcx5kO86EnksorFWQAAIABJREFUmt/0ETfVcHgoN5le//Ix7q/edF8UHm+6gM/8myhpiA4Jog3kbR8Jj+8vUL16n8jvX94DEh5vi1Cj/F2YWFRVvVpdNbS5WP4aPN7RAPq9w+N9egpdJTy+fOCQwVumwZjDQwTOofdNDwXU72kuqsvkmwQ/XYqLoCXhIQOXhNeX98CYwkMETvE+bjHYS/z/vX2EwUV1lnit7BBA32d6MdBQvPNcvFxKrCs/vysg9BADBuU7zL984Hifj+Xybz+NxhwexcXFlJSUvLVN4PfQ8O39J+rvBQxEsBMjz0dzQ4l3goj1xTiS7xG473KBqBoU+uTk5IwaxqPRXK7z7Qc6mcafPo3HFB7iZheNnyIY1tTUfFfBUJhVNPpmZWUpD/wbKkm8z8Ri/Ih44GJ2drbSFVisLz/ifSMG5QGJAhwiQyJKdO/TUi7/9AFDaio1HfLAmMJDHET0RqqurlYAIrphipte5KjFsm/xI65LVK2IHli5ubnK62nFqO+hax4S/m1zsZ4YPyK2zcvLU3LaYn/fql7v84C4buEhUXITL4sS8BD/j1bPt+ksf5dBUHrg4zww5vAQCSSAIR7bIQKiyDUKiIiSyLc4CVCKkkN+fr5yrR0dHR8c6Ia6q4oxJGI/4lHv36JWo70mcf0CHOJRJa2trQpM5I3/cTe+1E/q97Ee+CzwECcpco/d3d1KYBW9ZUSjsGhI/tYm0UFABDnRZiGqoD4mgQR0RZuJCJxiv9+aVqO5HuETAVDxtF1RghNVoR+jqdxWBk3pgU/jgc8GD5lgnybBpI5SR+kB6YGvwQMSHu8YsPc1JJA8BxkopAekB75GD0h4SHjIaiDpAekB6YEP9oCEhzTNB5vma8wFyXOSuXPpgc/rAQkPCQ8JD+kB6QHpgQ/2gISHNM0Hm0bm8D5vDk/qLfX+Gj0g4SHhIeEhPSA9ID3wwR6Q8JCm+WDTfI25IHlOMncuPfB5PSDhIeEh4SE9ID0gPfDBHpDwkKb5YNPIHN7nzeFJvaXeX6MHJDwkPCQ8pAekB6QHPtgDnwkeerq72il9lkVs5ElC9u5l34FwLiWlUFJdj0arfXHiero7WrkZdZRde8O4lf4Mlfb1Zxk11ZSxb+MKDp2Ip7Gxgcw7V1nnv4aUJxX0qQafQPspSd3WWMfBzcvZHx7D89auUYms12robG3iTuJlDuwNYe++g8QmplBa/Rzt9/R8JpG23d0YtINPUv6U6SL3JXPk0gNfzgOfBR4dzTVcjz6Cs/1CzM3nMn++NfOt5jHfeiF+gTup7ehDqzegHeilIvcu7gst8Fi5k8eFNah1r8JDT3leOh6m41mx/jCVleVcOLQZSwsLDsfco7vv4x5G+LoZ9dSV5+NtMg7flSGU17aMCh7tTdXEROzCzMQMK6vB611o68i6nZH0abXov/mcjh5DdxeG4iLYuxdDYRGGzm4Mui9n9tfTVp6L1ER64I96YIzhoUevVZFx6SALzGfx6+QZLF2zg2vJt0iIOcs6H0cWem6lvrOXAY2GjqYa4o9sw8F9JTezimju7FWCrF6nY6Cvl/a2VlpamslOvYHzrHGsCAinqrqajJSr+K9ez63MCnr7VPT39NDeKtZtobWtXXn/Q29fPwNqDRr1AB3t7cqyltY2Ort70elHGkg8uXWgv5eO9jblePnZD3Ez+hHfFYPw0Om0qPp7aG1tUfbT0dlFv2rwtbFDCVH4KB4HSyN+Hj+fc5eSSI6PZpv/EnYdT0Kl0aLVaujt6aa15cU+unpQa0QJTI9WPUBnW6uyrLW1jfb2Drq7xTH6EY947+rpZUCrV54w29fTqTytuF+lQqNWKY8sF/vt7GhXtuvrU6NW9SnfFT1a2+juFe8X0TOg6qenuwtx/p3tbcrxlGsZGCq96env7Xmhg9CyDdWAWjn3/r5e5frF63Vb2zrp6x94BYg6DI8SYc0y+D/+d1i6DK6kYFC/mhkYqf2QfnIudZEe+Lo9MLbw0OsYaCtljYc9v00yYlVIFP0i6Cm5br0ShPr6BgaDYHcLtxJi2B4UxIaNmwjef4THRdVKkFT391H44AZ7g4MIDNzA2lVLmWM0jmUB4dTUN5KXcZ8jBw/zMK9RCchpCZfYGxTEpo2b2b4jlFMnT3L5xj1qm9qoL3vKgZA9rA9cz8atO4i4eJ3OAd0IgGgGVJSkp7B/13YC128gYO0qzGb8iI8Cj2b6u1t5cucSwUGbWL9+PfvCjpNZWI3+JYT0ZN2IZMGcKcxbHERlQxsarU4J2EOg6utsJDH2LEGbNhK4YTOHT8dQ09iGVqumra6UEzuD2bJhE0FBwRw4eISoqLOkPs7iwMH9HI+7TkPXAFqNmkcJxzl28gRPSiporcpm69ZtpKTe5ljYbnYEHyQju46KnAccPrCb9QEBbNq6k9jkVHr7VdSVZnHqRASnomM5uW8nmwPXExp2mpzyRiVN9Jo+Mm7GKjoEbd7CtuBdZBTW0NHRRsa9RLZt2cRaf3+27Azj3pNSNCNKiVoMWclgMw7+23+D/2cChpibGPqHqii/7htDBi6ZPtID7/bAmMJDr9PQUvgAD1tzzBx9uV/wfESQFokjShX6gS7O7vbBfI4x82zsWbHMF9PpM5hnu4LrabnUFz3AZvo0TEzm4+bmgbOdNRP+MY6l6wQ86kk+H4G16VyOJxSQfj0adxsb5tk4sXz5MqzmGDF7jjmrgsJ4mHoH9wUzMJ5jjrun2M9CjI1MWLM3htaOHqU6Sqfuo7k8HSdjI0xMrHB19cDNcSG//PQjnstCKCkt437cSSyNjLBy8GCJrzfzrebi6LGE3JouNC/aaEof32CR1Sx+HDceU8sF7D10hownhfT0D6Ab6OTYFg/mWlhg7+zOcj9vjKfPYHVoNJmZj9m/xIMpM83x9VuGq6MtpibGLHB0JSY+GWtrKzwDQylr7kM9oOLCLh9c3BeR8PAx1TkJTJgwgcmTJ2JqaornUn+SM57gu8AcG1tHXF1dsZ9vxtTpM7mRX0/G/cs42lgwbfoMXL18cbJZwOyZpnj57aOhu5f7Fw+x0MwUy3kL8fFZjKvNPNbtPEBC9EG8nG2wtHbAb7EHRkZG2CzbTm5F88gqvZJMcLGElWth5kIMd3MxfE/tPd981eS7g4sMvt+2PmMKD51WQ13WdZznzWK+xyqya7qG5c4HhdVp1bSXpeGycA5WTp4k3M+ioqyII0HLMZ41l2Vr93L54Hp+/tvPBIXF8fRZEXfiLzB/yjiWKyWPOq6dPsicqbM4FJtH/OldzJ1rxdrQ8+TkZLFlqS1mVguIuZZMwtFN/Dr+Z9buO0d2fiH3E2OwtzTnVyM3CmqblXaX3o4mUo5vZcLPvxC4R6xXxMNbV1gw+Ud8loeQmZZK6ApnJvwynm2HL3Dl8iU2LHbC1NSSc8k5qAY0SgDtbm/kUcJ5fNzsmGMyCyOjWVjZuLH7dDzPn91hvvksZs53IeLcRa5ejsbdairzHb05HR2Ft4sN0xYs5dHjLBIi92NpYcKa0OM0VD7BytIM5zU7KW7sQ63q50yQK7aODly+94jK7Mv89a9/xczai8i4RHLy8qlv6SDj7k1S7j0k/eE9zh8M4O8//sT+xHzu3ojCZqElFl4BynVm343Hc6EZC5zcya97znZXM8zmWLL/dLzyEq+cjFTyymqpqSzmYcot7t1PIzvjAausZ2I1352b2ZUj4dHdgaHgCYaaOgzpeRhaO0cul8FV6iE98Kf1wJjCQ/Q4ai64yyKbOZjZ+XAnt+41eGgH+qlMjWG+6XSWbNxFTYcanVZLZvJ55hvPwcHehyA/T/72wxTu5lXQp9FRnpuGx4s2j5r63+ERHpvHvcRT2C60xsZxFadPR+Cx0IRFyzdy7+F9zgY68fM/fuHqkzq6VFoaqwrZ4+PEX/5iRHpZPQN6A+0NVUSs8+PnH6eSmJZPr0ZHXVke3rN+ZMmKEO5dv8zShXMZP2Ei7j5++C1diou9LY52LkQmZr6Eh0Gvo7+3i/LCXJIun2ftkkXMnDaNaUbW3Ll6HOMZU5hhao6Ljy9Llvhiu2AuLl6LiU64ypbVixj3mxUHjhxjm783Dk7OHEu4j6qlgIXzzXFS4NH7VnisOXqLmuZuxDmI9o7CnEyuXY7jREQYgas8FXjsic8lJfkCdo52uASfR6vV0fu8kE1LHbB2cCK7vAjbSb9itcCPh/kVIwze1dpAbvo9YiMjOXH0MM7G05lv6cKNjJIR68mc57ed85Tp+32n75jCQwQvVXMxK7wcmDLdlHXh8bR3dNHb10dPTzftbW00PK+nLPUi8+dMZ/H6YCpaepSgmJF0BqvZZjg6LiFoiYDHNG4+LaGzt4+izHu4zBxsMB8Jj3yq8x+y3H0hP/30KxMnTWaBvS8JD/KoLH1G5GZnfh73D2IeV9DW08/z8jy2eznyw99mk1H+HLUCj2qOrBXwmM6V1Kd09PZR8SyLRTMGG8wf3LrGWqf5jJ9gwomoyyRcu0b81ask37hDUUWz0rYhqmb6entoa2qho7NbeYd7cdZ91jmaMXHSJJKunGbWjKnYeCzlfNwVEhMTuXrlMin3H1FSlEf6xSD+8tdx/DZxEkbG89i+/xwltS2o24qxmW+O3dIt5Fa10tvdyfGNzix0GFny2BKVobSJ6LUDtFU/wdnajBlGxrh4+bF2qctLeNy+LuBhj0vwBQUefY0lbF7m9AIexdhPnoiV9WKlPWNArUY0kver+ngQfQBnqzlMnDybtYGbsZv5G3PnSnjIYPp9B9PvLf3HFh6iSKrXkHR0FyZTfmX8rxPx376PuIR4zp85yuqlizB3Wsyz/DQcrOcyzcKRQ3EpVJbksn6pA1NmmLFmYziJ+9bw97/9jeXB4dy7d49zIVuZ8fNQm8ewkkdMHhkJUdibzsF4riPBu/ZwKPwIl5PuUVVRxqNLB/j57z9hu2YfqZlPSLh4DFPjGfxm6ktpfTM6g4G+9gbuRWxi3M8/sWRzKHfu3efioV1M//uPeC0LIS87gyObfPjl10lsOhJLbmEhd5LiiYyKI7++U2k01mv7uXHpBHPnGBO4M5wbt28Rtmcz06YbMc3Sj5qKDGzmGDPN0oWDUcmUlZVwNeoUl6/cJ/dxJvvdnfjrT9NYvX4zofsOcvZ8DBm5pag7ynGdb4GRuRPH426Tl3GLxTbGmFvbjKi2GoKHpreNohuHmPDLODYeu0p2dhZRIYPVVqLk8VZ4OLqSU9PMbt+5zJg5k437T1FQUsKNq1EkJN1ivY8npsYLiIhJpbLoCavsTbCaJ+HxvQUPeb3fNyzHHh4GAx3N9Vw+tY/55iZMmjSR6dOnMX3GDOZYWrMq9Bwd3Z08uHoEu4XzlGA1x9SEaTOMcfMPI7+0iobShziZTmfG9OmYms1lrrkFxjOmsnR9BNX19SPaPG5Hn8LRbA6z58zFxcWZBfPNMTExYcfhUxSWFLHV3wtj41nMnm3MLOPZzLG04ejVLDp7VUovMJ26n5aqTBZZzGLmjOmYzLFgrsVcZk2dhPeK/ZRU1FKUeQsflwVKQ7PYt5mFJW6L/UktbBpsMNepyb4dxSI7S6ZPnYbRzJlMmz4TS+tFXLzxhAFVL6lXI7C1nsf0mTOZM8eMOWZzWbl2H3fvprLLYT6/TjbCzsERO1trLMxNsVpgS3ZNC9Eh3sw1ncnk6bOwmGfFHKNpzLVx4PL9NCqfXFXaPLZED5Y8RON/fd4NZs+czPSZRljMs2bePEumTRpP6LU8bidHYedkj8uOV0oejm4UNfdQ+OgK7naWyvmbmJljZjmfDTt2czBwBZYzpzFl+mysFthgPnsmNrY+3MgoldVWsg5feuA78cBngYfoddXR0sDj1NucPXmMI0eOcOzEKRJuPaCifrCqp7OtieyHtzh9QiyP4FxUPEUV9UrvJFVfF0/uX1eWnTodyY07D0i4Esvt+7l0dndTlpdN7PlosorqOeJnzTxzB/YfO8/1pASO7FnFpF/Hsyr4EHVt3dRXPCM+5hzHjkZw/OQ5kh9k0dqtetlLSoyzUKt6yH10i7OnjnPy9Dmu30klMT6WGylPaO/qo6+7g9KcNM6dPE5ExFFOnYvmYfYz2rsH0IneRHod3e3NFGY/JOrsaY4dieDkqUjup+fQ2tGntPuI6818cIPTx49xNOIo56Mu8ay0mtSr53CeMwMXv+0kXEsk5vwx/JyMmTRlJvdK26ipKib5ygWOHj3GuZh47t5K5nL8NUpr6+loKufEiRM8LKqnZ0CLXq+lv6edlKRLnDx2lNPnorid+oj4uPNkVjRTVVlE/LUEEtMLlPMWJZXU29e4ci2J9n4Nqp52ch4kssrLlt8mTcZjw0GellZRVZxLUvQ5IiKOcy76Mg9Tb5OYcJuK+jYZOL6TwCFLHd93qUOk/2eBx3CjiQF4onFWDFJ70yjroeVvWqYT3Xrf2tVTj043wLnARdjPX4iH93oOh4Wy2tcWS8sFREQm0TM0QE0v1h08h+Hn9ur/7z6eQTkX5Tpeju94g6HEsbRvP29xPeI4g8fWk38vHq8FFlhae7E75CA7Ni7F0W4B9s6rqWzvR60bPK7Sxfldxx0RxPSDXaLfqt0bzvvF9n1tdcQe24P5XEs2RFyis6dPOdfB8xYDFd++7at6yu9SK+mBb8cDnx0eY2keEdCaKguIPnmEdatX4OXlxaoN24hNTKWhpftPkSvu7Wgm/WY8wZsDWezthe+K1ew7eoGnxc/RvoTM5zNgW00xF8L2sTV4D8lpecpI8rFMQ7nvz5e2Umup9cd44JuChxBCq9Gg6u+jp7ubrq4uunt6Bh+p8QUC7x9JGFGiEIP/ent6lEeSdHd309fX/+LRJZ/f7LoXevb29iqPd3l7ye/zn9sf0VduI9NJeuDTeOCbg4c0xqcxhtRR6ig9ID3wLg9IeIxoG5BmeZdZ5DLpD+kB6YEhD0h4SHj8KdqChgwr5zJ4SQ98HR4Ye3i86LpqEG0O38P0B3o0yZvh67gZZDrIdJAeGL0HxhYeOi36whz0R3aiD1qKPsjv65u2+KEX09vO7X3LX263FP3utejvJWHo6UJ8hBFFN1zRiP+lpqHuxsoJveePvHFGf+NIraRW37sHxhYeajX6w8EYYk5gSL+D4fG9b3fKuIvh1hX0u/0x1FYqY0BUKpXy8qa21la+1CRefNXXJ17+pHsPOgZh973fEPL6JRSkB0bngbGFx4AK/abFGJ6mg/79weu90e1rXsGgh64O9AHuGEoLGBgYfGOhePij6DYsut5+7kkcV8CjTbwBUKVSgPYuCeVNM7qbRuokdZIeGOsR5gIeG30w5D5+V8z6dpb19aBf546uJJ+eHvH61nZU/f3vGBX/CW9CpW1JP9iupNVi0GjQq9UM9PXR0dZGd1cXWq32nVrLG+ITpofsiCE7YnzjHhj7ksd3CA9tcZ5SXdXZ2fkSHGJw3ZhNWi16lQpddzfaxkY0FRVoysqUubq2lu7mZtoaG1GrVBIe3/gNLTMAMgPwuTwg4fHOcPqBC1+UPLRFebS0tPD8+XNaRXtHW9snnZR9trbS1daGWkwFBaiuXKEvJISewEC61679fQoMpGP7dtrOnqU/JwddV5dSKsFgeO3iPpfp5HFkgJMe+PN7QMLjtRD6ET8MVVsV51FVVcW5c+dYu3YtAQEBn3RaHxDA9sBAYoKCqNy9m44tW2hbvpxmd3eeu7lR5+WlTPVeXjR4eNDi5karnx+d27fTFxXFQFYWuo4ODK9UY8kb+s9/Q8s0lGn4uTwg4fERrHht0yF4lORTUFDAypUr+c///E/+67/+65NN/+9//Rc//o//gdPf/875KVMoNTOjysGBouXLyQsOJv/wYQpOnaLw9GmKTp+m+ORJKg4coCYwkEYfH9p9fOjeupW+lBQ0zc3ohwHkc5lOHkcGOOmBP78HJDxeI8BH/DAMHs+ePcPX15d//dd/5d/+7d/493//94+f/u3f+I///t+x+Z//k+iJE6mdM4dKd3ee7N5NWmwsjx88IDcvj4KiIopKSgan4mKK8/IovXuXytOneb5mDe0LF9K5Zg2916+jFgDR65WLljf0n/+Glmko0/BzeUDC4yNY8dqmw+CRn5+Pt7c3//RP/8Q///M/8y//8i8fPf2f//IvWPzHfxA5fjwV5uaULl5M5tGjZN25Q35uLiXFxVRUVFBRWUnlK1NFeTnleXlUXrtGw6ZNtNvb07l+PT1376Lu7n7ju1U+lwnlcWTAkx7483lAwuM1AnzEDy/gIXpb1dTUkJiYyOHDh4mIiPj4KTyco8HBJFlbU2hhQamfH1knTpDz8CHFhYUKNAQwRFvLW6eKCiqfPaM6OZnGjRtp9/am49Aheior0YgeW7InkuxeKj0gPTBKD0h4fAQrXtt0CB4vels1NDQoXXY7Ojo+ft7URFtyMq2+vtT6+ChtGWV5eTQ1NtLe3j6q/YteX2L9mtJSaq9coXn1atr8/Wm/fZt+Ufr4k7zzROZS/3y5VJlm316aSXi8RoCP+GEYPESgFl1q1WKg3sDAx08tLfQePEj7okVU7dpFdVYW4gVN+v5+DL29GMRcrR6cxPeeHgwqFQYxeFCjUZbrVCpl0KJ4VEpNXh4N+/bRumQJLYcO0VlTg3jxk7zJv72bXKapTNOx8ICEx0ew4rVNX4GHGOshwCEeDTJ8+mCY9Pejqq6me9UqWlxcqI2MpLmhQQn25OdDcjI8eADV1VBeDklJEB8PWVkgBgY2NEBqKjx7pkBEAK2hupr6mBhali2jddUqWnNz0QrYjLLIKteTAUl64Pv2gITHawT4iB+GwUOUOgQ8hkOjv79fqWLKy8sjOzubrKws0tPTEd/j4uKUKSUlhadPn5KWlqYsv3TpEhFhYcTs2EGlkxPPPT1pSEhAvJ5WlCoEELhwAY4dw3D7Nty5A4GBEBwMiYlQXw+xsbB7N1y5Al1dykMSxfnV37pFy4oVtC1aRFN6OlpRepHwkBpID0gPjMIDEh4fwYrXNn0FHs3NzQhgDE3ieVfl5eXs378ff39/Vq9ejYeHB8uXL8fOzg4HBwe8vLxYt24dixYtws/PDzc3NxwWLMB/3jxyLCyo8/am+cYNZZ8IeFRUQFQUnDgBaWmQnQ2HD8P+/RAdDenpgyDZuBHOnFFgIp6wK9pJnt+9q8Cj3dmZhocP0Uh4yKAxiqAhMxjfd4ljKP0lPF4jwEf88BZ4iEeiC4CI0kJRURE7duzA09NTAcOCBQtwdnbGyclJ+S7+FwCZN2+eAhNXV1fcnJxYa2NDjqUlDZ6etCYnK20XiMesP34M+/ZBeDhkZkJBAZw9C4cOQUwM5OUpJRPDgQODkKmvR6fV0iYen3LjBi3Ll9MqRqY/eiThIQOnhKf0wKg9IOHxEax4bdNX4NHU1KS8S0M0bItJlDwaGxt59OgRSUlJXLt2TZlEVVVCQoLStVf8lpyczNWrV5X5xYsXOXL4MJH79lHu7a08aqTt0iX6u7pQ4JGRMVjCEKAQICkpgbi4wXaP4mJQq6GjA548UUAiGtdFm0djVRXPo6Jo9vOjcfVq6rOy0Mg2j1HfOEO5LzmXufDv1QMSHq8R4CN+eAM8hsAxNBcAESWQrq6uEZP47U2/i/U6xfT8OR0REXR4edEWHk5vZSXKow1F6UM8YkRM4n9RlTX8f3E54iGI4qm+Wi0DKpXykMaaJ09oCg6mxcuLmv37eV5cjGZgQAZPmfOUHpAeGJUHJDw+ghWvbToKeAxB5EPnPWIsx8OHdKxYQauYLl+mo76ezo4OxKPfRzOJdo6hcR51ly7R4utL47JlVCUk0Pz8ufKq3O81FyWvW5YgpAc+zAMSHq8R4CN+eAUeoopKlDQ+ySRKHzU1dOzbR7unJ83+/ggAVIsR42JkeXX14PSmEeZDy8R6BQXUJCXRFBhIs6cntaGh1ObkKPARDenyBvqwG0jqJfX6Xj0g4fERrHht0yF4FA++z6O2tlapIhLVUR8NEFHV1d5O+717tAcF0e7iQqO/PzWxsVRkZVFeXEx5WZkylZWXMzQpv5WWKssrnz6lJjGRxs2baXN0pEFsf+0azfX1SoO+eEDi93ojyOuWEPj/2zvvv6iStG//U+/zPruzO+/s7M445gSIJCUzhCYnQbISzFnBiAHFjAHMihEQAQGRnDNNA50D7fV+ziGaZmgdZ3e1fjifbrr7nFP3Xd+q6667qg5CA7ZpQMDjPQJ8xgeT8BhvqJX3eEgrq6SludKeinfnOD71b1V/P8o7d1CmpKByc2MoIoKe3FzapafmVlbSOgsiMjgaGuTPOx48oOfECQYTExl2c5PTVZ3nztHX2CjPtUj/olY0Htsaj/CX8Ne3rAEBj89gxXunTsLD2vhKftaU9Fj2J0+eyBsCq6ur+SOOl1VVVDx+zIvcXGrCwmiVQODlxWBcHL1799J95gxdly7Rdfmy/Nqdn0/vvn0MrVuH0tubAWlZblIS7QUFMjjGRkfl1VffciMQtgsICA3YrgEBj/cI8BkfTMLjTVOdvLNcejCitFu8uLhYXnYrLc/9I46i69cpvHCB24cOUbZlC00JCfSEhdEfEIDSx4dhb+/pQ/pbmtvol0YoGzfSceIEnY8fM9DWhnoSHOL/edjecERnI3z2rWtAwOMzWPHeqVPwaK6T/8GS9GgSKWXV0dFBc3MzjY2Nf9wh/ZOnujqaq6poLS6m8+xZevfsYUj6l7RJSSgTE+VjMDWVXmlS/OxZOp8+pbexkeHBQXnfidlsnv5HUJIt33pjEPYLIAgNzF0DAh7vEeAzPpgFj6nOWIrqpVVM0pzCH31I/4ND2vCn02pRK5WMdHWhbGlhsKGB/tev6a+ro7++nv7mZga7u1END6PRauWHNU6trJptrWg4c284wlfCV9+6BgQ8Zveen/t+Ch5NdSKKFxuthAaEBr5qDXx5eKTZMHiIAAAgAElEQVSF8qbyGYxbPrdr/s8+X9rZPTKMNTGAN80CHt96VCbsFyOTr10DXxYeZhPWvP1Yj2znzdnDvDl35Cs+DvPm1D6se9J409v5VUccX3ujEPaJjl9o4Pc18GXhIe1Y7mjBWnAK67GdWI/u+LqPvANYX5byRqcR8BApC6EBoYGvWgNfFh5CPF+1eER09vvRmfCR8NHXqgEBDwE4ATihAaEBoQGbNSDgIURjs2i+1khK2CVGCUIDc9eAgIeAh4CH0IDQgNCAzRoQ8BCisVk0Ijqbe3QmfCV89bVqQMBDwEPAQ2hAaEBowGYNCHgI0dgsmq81khJ2iVGC0MDcNSDgIeAh4CE0IDQgNGCzBgQ8hGhsFo2IzuYenQlfCV99rRoQ8BDwEPAQGhAaEBqwWQMCHkI0Novma42khF1ilCA0MHcNCHgIeAh4CA0IDQgN2KwBAQ8hGptFI6KzuUdnwlfCV1+rBgQ8BDwEPIQGhAaEBmzWgICHEI3NovlaIylhlxglCA3MXQMCHgIeAh5CA0IDQgM2a0DAQ4jGZtGI6Gzu0ZnwlfDV16oBAQ8BDwEPoQGhAaEBmzUg4CFEY7NovtZIStglRglCA3PXgICHgIeAh9CA0IDQgM0aEPAQorFZNCI6m3t0JnwlfPW1akDAQ8BDwENoQGhAaMBmDQh4CNHYLJqvNZISdolRgtDA3DUg4CHgIeAhNCA0IDRgswYEPIRobBaNiM7mHp0JXwlffa0aEPAQ8BDwEBoQGhAasFkDAh5CNDaL5muNpIRdYpQgNDB3DQh4CHgIeAgNCA0IDdisAQEPIRqbRSOis7lHZ8JXwldfqwYEPAQ8BDyEBoQGhAZs1sCfAo/x8XG0Wi0dHR1UVFRQWlpKeXk5DQ0NqFQqpO8/l87jFjPasRG6uzppb++gb2AIncGM9QuIwmI2Y9DrMY9bMZlMWCyWzyy/FatZT0tzO13dA4x/Qpmt4xYMOg19PV20tbXT3dvPmEZnk/0jykF6enoZVI580B6r1UpfRzO9/f2M6YwYDTpaGhsYGdPIvvjcOpTO722t4Vr+aRo7lVitE1GrxWxCPTpMd0c7bW1t9A+p0BlMchkluzsbXtHXP4jO9Pk6mrLBoNfR29lKe9cgWp3xg/6Y+u0f/modR6/TMtjfz8DAgHwoh1VodHqb6vMPL9cn6PKDZbBa6O1uZdveowyMaTGPi9HJB/30R/n7C13ni8NDAoNSqaSmpkYGR21tLXV1dbx69YqqqioqKyvp7u6WO+FPcuC4GWVfB/cLTrI1ayPr4+OJiY4lMSmVfQePUt3SM93R2Hp9jUpJS0MTPUOj052HWTtCdek9du/eQ27eWfJzD1FW9QrLZEdn6z3k31vHGdd0k5qQzO6cKxhsbExjqkFePLrN/h1bWR8fR2xsDOviE9m2K4d7T2rQm34botZxM0Z1Lyd3bSYzfS+l9f3T9s62R6rLO7kpbNybT0vXAH2vH6Dw9eLQjQqUGhN67RjNNeV0DoxhNNvakUsA1XA1O4vI6CQq2pRY31gZ6m2j6HK+XLdxMbHExcaSkJzOgdxL1DT3YTYbyI33Ye/pIvrHJoAyu8yf+n5E2cehXRvYtDOf3ln1/6nXe+s8qwWjfpTS0kqUI+r3gWA1Uf/iERkJiaRnbGLz5s1kZWWxc88Biu6VMKYzMP45evtCnclbNv7WPawWWuvL+XXtKo7frGBYrf+g3uZ8vd+6l/jui/n2i8JDilQ1Go08ynjx4gVdXV0MDQ3Jx+CgFOX2yCB59OgRw8PDnxTBq5W9XDi8DceVS1m20oHI2DQ2p29E4eXCakdHNh25wPCYbsaBUqObY8PrfP2ULSmbuF/dPn2+QdXDuZ1JhMTE4rXWHbe1Ply5+xzTHK/5oQYhRc/jY60E+vqRmHEQjWWOkZjVilmvoaToBF5uzixZsgIfRRhbtm0iPMgPp9VueAWk0acxvj2aeaesFpOe7sqr+Lr7sP/odfqU2ml7p8trfcO4xcKFbQpC4vZRVddBV1UhTqtXk5b/hP5RA4PdzWxf70fe01ZGdeb3r/EbDVnygbrnFTEKf9an7adfrUc3OsjZnWE4rbJjhb0LUfHpbM9Mx2ONC05rfInJuo7RpGO7zwKSd5+ibeiP64QGetvYlBhITHIObT1Km2yZ9tlH7LVaDKg6ynH2jKPidcfbdSOdY9Xz+NopFv3t7wTGZbF9x16SYkJYZbeCZStWca+6E61hxr9SO/u9e37w+7m0hXe08sHrfMTOj/9WCgpa2Z4UiF9sBq87Bj6t/Dbfd47tSlx3TvXxReEhRapSaqqsrIyWlhYZFhIwZh+dnZ08f/5cHpVIoPm44D5U8VZKr+SwxmEF9opkKpoHMJgmUkiaESXVjx5QVteD1mCSOz6j0YhOo5MPo8nM+LgVqeFJaSgp/SR9b9Dp0Ov0mM1mXj44R0RwHNef1cnfj0u/NRkYVQ4yNDDEQEcrbR29qHWGyXJbkdJnJoNBvo5OZ8BoMk3c5x1BWq3jmE0mDDotWrUavbKRAB/fGXhIYDCbMBr0cnn0eiNmi0Uu75SPrBYzA6+f4LdmFQ5r/bjy6CWWyVGLxailpaGO64+rMJktso3S/SQ7dVodOr2UbhvHOj6OXjNGQ8l9btwoobNXJX8+cY8J3xj1erQaLRqNjvxtgYTE7aW6ZVj2UVdbB9rJsrXVVRLuMp/s23X0jegmri/5zGKetkOnN2KSfP9Ohyelpmru5BPgryD3ZjkG7Sill/ezaP4vhMRnUdHYPR2h68cGePmilMqGDswmHTt8FpC48wSNvWNIPjfoDZjNlol7WK1IYDIZjZN+1E/XiWSjVA9S/RsNBnQ6HQaDUT63v+dteEz9Tvpe0o2kbal+pPSWdtZ5sl1Wq3w/KZ05lTaVzpfslj4z60ZoK7vMD0sDePiiHqPZjGV26laCx/VT2P88nzNlvYzpLUj1WfnwKo6L/0FMRj4dfaqJ+xsMaNVaudxyfco2SfUmlc2AVivZZJDrXfb7+Djjk/6QdKDV6DAaTRP3l9uCCZOku8m2IPlTslf21fikr6S2YpDaih6jUfK1Wf69Xm9A1ql5Jo0rBRyS7yfqRSf7XrLVpFFRfyeXefb+3C+vfx+g77SXKc2L1w/1g/+ez74oPKSGcv/+fTk91draKuerpZz17EP6/PXr1/LvpPTVnMVhHcdqHCJZ4YuTq4JbL1oxmmc616kGYjRZMBs1vCy5S2pUEPPnz2f+/GUkbc/ldXsfevUo94/tJjxuK9s3peCwYjnLljtx+sIZIhVrmT9/IZ7+YSSlZlLXN0JzfRXHdm1k5ZLF/DLvZ+zdw7lbWoPBInUYeqoeXSdB4cWSRQtZsmwFUWk7qG7tQzcJtSn7xvo6uHBwB/bLl7Jw4UJ8A0P5Zd7SCXiYLBg1Q1w6sQ9319UsWLwUx7UKLtx9jko9MyowmwwU5m5glbMbW0/eRmuYyc3LcDKb0RuMMnCeXdxNYkoquUf24bxyIYvdQ3lQ1UBfez15u1JYufCf/PKvefgEJXLzYQ1mqdM1aXlw/TSBXo4sWLQYB48A/FwW4RW+k+rmAVT9jfy6yJ4b5U28KH5AVpSCn7/7Cyvdg4mOTedSYRkazQglN/IJ83Ri8cIFLHdYTdrOIzT3jb6V2jKbjFw7lo4i/gDPm/oZGephU+BinNYGcqv0NRLsp3wnw0DqwEymaXgEhEWSuD6G5YtX47xqNXtPFdHZr8Kk19BdV8am9Qrsly1m2VI7otN2U9s0hMFoYXSwi9vnj+LlaMfSBUtZYefDkXN3qK2rf2vkoRro4saZfSy19+JhfS/dnS1cPrkfZ4flLFgwnxWufhw+f4vu4TGMuj7inFdz4up9Ro3jjJsNjDY9xk8RzbU7xVTdP02kryN/+etP+AWFkrV9D6UNndP2ySMPCR4//cKZkm4ZHlJ9dja+JMp7CdHJB3leVsrZwztxWLFM1rSDs4KiR5VoDGb02hHu5u3Dc7UjixYtw8HVm20795Nz8DzNze3UVz1lc0LEZFtYQnTaXqqaujDotRSc2Ep0xj52bk7FfrkdS1bE0Do4iuXNG1S97ZxMiSc6aRvxAe4sW7yUtZ4RFNwoIi0mgOVLF+Pg6suRC/fl1KvVaqGp8jE7k8NYtmgBi+dL99pPxasOzBYT6sF6vBYv4/ydZ2jMnzh6EpCZ0c2f7IsvDo+ioiJevnyJBImPHc3Nzdy5cwfpdaqD+N1XqwXTSAsB3q4ErttA08BMp/ruuRb9KBeO7yMqfhPnLl/l5J4M3Fw82HHoOsOqYa7v3cjypStxXhPI9r2HOZiTS2VtFfu2RODk5EbG7qPcunmbLpWO50VHSU5J5NDJ81y/eIa1q+yIzMyhsbOfvlfFeLu64BuZTv6lK1w6fZQAV3uCk7ZR194/GYVaeWM1cfNIGj7ua4nK2s+NoiKO7cpgyfxlMjwGVCqun9yJu1cAW/afoLDoGoe3x+Pi5MPz1+0yqCQbpQnr4+k+rPUM5V5Fw2/67l5uGi6OK3B082Tn/sPkHD9PZVUl53NScXNzIzf/MjcLr5MaF01weDJljf1UP7iKv9daFJFxFFwvouDcMRyW/YJnmASPfoZ6anD87m/kF1fTXP+ai4d3s/L774jedIRzBbepLK+lqfQqTivtUCTs4ELBVU7l7MTXzZmYrUfpHlRNl9lkNHB6i4Kk/Rdo6huT0xphS/6CX+wR6tsHp3/3dt1ap+Hh6LiaiIxsrl65wpb4YBycvLh45zldra/ICHcnKDyWs5euUHDuJBGBgQSmHGFwaIDbx/fiu8aV9Zm7KSq8wdncQ5w8f5P6xkYZHtEpOVRV13I5LxsXNw8yjxTS09PBiQNbWePqQdauYxQVXWfvhnA8vAPYduY+WnUnfvPnsf/MdYb144ybdKhe3cLOyY8TF+/TVfeYIxnB/O2nVew8eIK7xY/pHJy1SGFy5GH30zxOPmlnaFSDcqCHB9eOs3Lhv0jZdZWnt86SkpLGvqP5FF27SLCbA6Ex23jZ2EbPq9s4rXBk877jFBbd4PDONJYvWkjG4ULaOru5e/kYoVEbOHP5OmcP78B7jQcJWXkoNWryDiSwwt4RZ28Few7lcujoVUY1ExP1Q52N7IsMYv4yB7YeOMm53GwUrqtZ6WBPVMouzp3PJyEyEBdXb8raR+lurmJzQiiBwWFcuHKdoivn8ffwIG3XKTqHNOg1SlKc53Hk0h2GtDOjlbfr+N8TVYsy/L7fvzg8bty4MT3y+Bg8mpqauH37tpzammulSdGnYbAOPw8nghIy6FJ/XHxS4+3p6qKhqY3+/j4ayu/g6bKG+A05DAwPUyjBY4UTB0/fpLtPydiYGpPZTMnNIwQEhHHtSa08LJeG20N9HbQ0NdLV00dfdxs5iR54hWbxqLyOmwc2smC5Jzee1jCq1TOm7KPoQBoLV7pT8KASs5xjtmDVdRPk4kBgXCa1bX1yimGouRyfNe4kZuTQ0dNJktciHJ3DuFx0j4oXZTy4dY6Vf/07+wvKUOombDUatByIscfHT8HDmtaPdLATIriXm8oaZxfSc28wODwmr5BqLC8ixMsV+8gsSp5XUFHxgrOHt+DsvIajBaWc3BzGGnd/LhdXyYsODFoVB5M9+DVq1yQ8qln93V/JL36JSmeg+eUzfl30PQdu1tKn0jHc00Lehgh+XOLH84YONHoDyp4WTqdH8c/lfjyvb59eaGAy6DicsIakAxdpHdQy2PUa3x//B0XUcVq6ZxYsvK2PGXj4xm/neUM3Oq2a1tKrLFmyij2H83lefJ7FP/6d2H3nKH5WRsnj+5zevZ7vfvampq6CpKhgPP2iqGrpldOC6lGVXP9dnS1kJvgTELaRgzsz8fL6lZjNp+kZ0aNse0l8iB/eYRm09I7IabnepgrSInxwWhtBl7Id31/msf/0dZR6C+NGHaramyx38OHE5WcY1EO8vnOYH5b8yiMpbSWns2YtMJiEx5Lv/x9R6Xs5dPQ4+3Zm4e3lgYtnIPdruuT5w7aWVto7exno7SJv9zq8vKO4V1JF/b0j/O1fzjwof41qRElt2U1W/evvFFZ1MKLWMNDXy+uGFgaGhmh6+ZSoIH/8FOn0jqnJ25+A/eq17M+/S++Q5AvN9GpICR77oxW4BMfR1NHDcF87BdmJfP/DIu7XdqIaHeFufjbOK5Zy5lErj68dxMVpFRHbjlL2opKqyhcczAjC49d4nr7ukRdYbPNbSMbRK3SPzIya367j3+/ExO//PT764vAoLi6W5zQkQHwIHtJcSHV1NXfv3pXnQuYsBKsFy0gbQT5uKOI2yB3Ox861mIxIy1Abq19QcO4UOzOTWbZoBfFpB6bh4RkUQcmrtzvg8ru5KBRR3CiZjOqt46jHRuhsbaT4xjUOZ2/HY/VSPIOzuPeokty0dawNT6Who0/uyC0GDQPVhSyYZ8fxgmL00nzEuAnLcB2r7OzZmp3PqEkaicyeMM+htb2J4AX/B7uVdvj5BxEZGUloiAK7JUtIPvOYvrGJhialyU5keuHpHc7diqbp/PqH/CDBQxGWxLPa3mnIVD++gKurAz/buRAZEUFkZBT+fp54e/tw8Oxt9q5zJighh1etE5H/zIT53vfgMWqw0P6qHMWy7zl45zVKjZn+tjp2hCvwSthF/+TyX7NORcPDk/z9u2XcetGAYXJCVhpF7V/nTMLeszT3axjqayd8+V/xj8qlseNjE9Yz8Ejak0eb0oB13IR56BV2KxzZtf8Y968f4X//8h2OPgoUYZFEhocQ4OvJksVreFp6j/CgQMJST6Ibf/OW/wZ728lY78dKO0d+/vGfeCnipleh9VUXExnoT9Kx29PnWPVKju5MxW7VKqo6W/GeNzXyeBceJZh0KlqKT/HDkgBKXjZPX2O63ibhseD//i//mreAhYsW4+jqTsrWbB5VNGAwmdCqR+ltb+HR7SIO5ewncO0qPLwieVBaQ3f1TX765y+kZl+gqqaSs9kJsnbK2gbQ6g2MqZS01lVz/fJZdm/ZyOqVq/AL2kDf6AQ8/IMzeF7fNa2TqXJJ8MhZF0ZA6nb6hoYZN4zwpDCXf/zoSuPQmJzqLLmSi8fKxWQXVHMpN4sVq+xZ4eJBVGSkrC9fD2f8A6N5WNOGQTfGjuDlbDx6lU6VgMeUn/9bXr8oPKRJxfr6enk+42OpKwkqEjik1Vi2TZhbeWNSsSnMG4fVnlx4WPee2KcqYbS7kd3xYSxduJLEDVns25bOyqV2E/BQTow8vIMjKK17Bx53cgkOjp6Eh5U3Zg35B7fjtNIBn9A4du3eQ7iX3QQ8HlZyTIJHRAr1HRMdtMUowaPofXioXrPKbjVbcs6hNkurayR4tBHo96s88mhtbyZ48f8Qvf0qtc3dDCmHJo7BQcb0RiyTk81mo4HCY5lyB5dxqOA3l/hK8AgOT6WsbmZlS/WTi/j7e7M1r5ChwUGUk/dRDg/L7w8luRG8Lofa1onOW4bHDmm11Yfh0fbq+Xvw2B6uwCNxJwPT8Bih4cEp/v63ZdyW4DE5wS+B8FSGN/H7z8kpSNVQH5mhDixz9KDwSe37Hayc350FD2m1lVI/DWf7Fasn4FF4lO9/+Ik71a30DE76UTnE4JASVXsF0YoAwhIPvwcPabVVVoI//mHpxIf7Y+e4lo0n7skTu30vHxAZFED8oVvT5bIahjm8MwX7WfDIzi9k2DCZtqq7yfJVvvLIw6SdBY+qj8NDmvPIe9qJSitN0ksT3eMTCyasJu4f34ufox2ev4azY9ce1gd7yPB4WNnCmKqfDf4/snyVHatd1qCIiCOv8AnSYgV1Xyu5GQks/HkxcSmZ7NmexZrVTm/BIyhkIxW/AQ//lG30Dg1jNU7Bw4nGwUl4FOTiuXIJ2RdruHR8E97+AeTfLWF4SsPKIYZHRmQA6rUqNq79iUOXbjMo0lYf7b+m+rH/tNcvCo+ppbrSaispLSXt62hsbJTTUxI0pD0f0shEgkd/f7/tS3WtFqrv5+HubM9SO3duldbIG9zUoyO0Nbzi3OEcrhWXU/XwGmF+v7LxxA15w1Xz83t4ubjNCR5BQdFceVSNZnQU02gnceEBBEcn8bpDShd0cDjJHa/gTJ6W1fEgJ4OfFrpw6WElKo2ekYFuzmVEscjem8LHNfKkowwKTTcejvb4RadT09KDyaCl9ukVXOwd5DmPrr4etoSvxs0zgEeV9Wj1etTS6rEXFQypRifSX9KqmnELAy0vCPVyYdkSN3IvFct7EjRqNT0dzRQXXeJI7hXUeiN3jqUSIsNjZv6gt/EZCQHeLAvJomNAhU6vl1MgzY2NdPYpObElBBdXLy7df4lWp0XZ/ZpkzwV4h+344MhDgkfQsu/Zd7OWjsFRhrqauLgxiu9+XsujulZ5f8JARz05Uf785KDgZWPn9CobacL8+tGNhCTtp7KlF6NOTXXhUZYvWYyTfxLFz18xPKpBqx6jpa6S83mnuXK3BtPkUt2kD8HjUD4vSm7iOO9H1mVfpb1PiU6nZqCvm/LqBkYHW0mLCcbVI5Cnr9rltJWyp5POrh7qGhvISgwkImGfPHLOzozCwd6BC0/r6Wt5SUKYH+5+Mbxql1anSaOuUuKCPHH2SmJA1YXPL/OIzcylqWsY7cggD89u5ZclbrPgcYIflvjx8PkreTQgTd5Pdw5Tq61+mj89YT793RsrbyxjbAoLIDgykfL6Tob6ezi9Yz1enpEUv6hnsLWURf/8GzGb93Hu0lVu3X1AxasGeWNnW/VT4gIDiNl3noEhJa0vnxET+OuH4SGtCDSqqSgro7mjl47mennkMRd45Fyq5fmdfLzXriFyx2n6VWpMJgOdrU20tXehUmtQDzbiOm8pZ24+Qy0mzGfq/0+e+J7Rlm3pry8KD6lQUrQk7emQRh4PHjyQYSHt63j48KH8d0lJibzzXFpO+ClGjCp7KMrfh4ebEy7uXvLmuKSEBMKDg/D1CyTvdin1FQ+I9fXCzS+Ezds3sSktEbslK0nNyGZAOTFh7hMc+d7Io+7ZJXy9PPAOiiItNZ1nr+qIiw5htZMLaZmb2bE5Ew+H5fhFbKX8VRdDLVXEKzzwCggjZcNGNiQn4LHagXU7T9HaOzxpn7R01EDR4SzWujgTGBpLVkY666ODWPzLMlIzDqFUq6m4exYv97UoQqPYmJHJxtQUIkKjKGnswTS1iVBaWmlUU3I9nxjftTiuciYsOp7k5CRiIkPx8Q0ga89xxvQm7h5PJiQylbLXMyMPaR/F3Qs5rHV1Ijw2kYyMDFKSEohNyaK8ZYDap1fx91yDh1cQ6ZlZpCbGYLd0Pl4Ruyfg0V3Dqsk5Dylt1d1YRbTzT6wNimJ9ciYXrtyjteYxCk9nfIKjSNuYTlJcFO4uLqQfvUb/sHq6zuWluvfOEOQfzIlbFfI8gmGkl/zsrXi5uuHq5ktcQhLJiQmEBfnir4gj73KVDI9tfotIltNWs0ceTuw+fJGu7jaOZkbiutaLuKRUMjLSSU5aT/T2U6hGh3l2NQ9fjzX4BUeSmZlFSnw8yVlHKal5JU+YRyUfpLm9m5aqx6T5e+HsEU5JbQOX83LwdncnNCqBrMxMYoJ98fSLIO9OBQajmmMpYbg4uRO+LpmsjWlEBbnz40JXThQ8w2xQ0/n8AgsXriAkIpptu/ZR3jxrY6bVwONreRNLdUsnVlvNtA0rb8a1ZMeGssbZlfUbstiyfROBrvb4+MZy71k1nXWP+PnHn3Hz8CY4LJyw8EhCI6PYLS2SKL1PWqAfjh4BbNq2ia0ZKTivXEVI6MaJtNWBRIJC0qmo78Y6bkTbV43nGjcSd52lurqGA+vCCZBGHoOTI4+iE/zjR7eZtJU08rBbwqFrdfS2N3FoSwLuHh7EJ6WRlZlBQlwMGw7k09HbT92dUyyy9+Hu87rP2ic14xvbOj9x3uf564vDQ6ogKTIbGRmRISGNPqTHk0hpKmn0IYFF2nvwyRud3lgZHR6g8kkRG9dHowgMJCAgkNj4JC7fesrQmI7RgV5unT5EqCKQoJBgdh87z6l9WZzOv8GoWsOLq2fYtucAjV2zGvCbNwz1tnM8extBQQqiEjKobu/l2YMi1keGy58lbthC0ZVzHDh4kda+MaSls80vn7IzPV4uR3BIGFuyT9PWN4z+naW6Uk49P3sXwYGBKIIjOXW5iH0pmeSduYVe2gtgUFNy9wrJ8TEEBgQSEhrDiYu36R0aee9xDgb1MI1VJeRsySAwIICAgABCw9ZzNL+Qlq4+eb9FbfFZ9uScpKln9uTzOKrBbu5fOkZMUJB8n5jEdK7eLWNgTI9BO8yDK3nEhoWikG05xcX8w2w9fJWO/lHUwx1khYbyqKYNnXl8YoHAoU2EBisIi0zm1tOXaLRq6kpuk74+gqDAAELCo8nOu07PsOatpbrSKGqkrZLo4AASNh5FqZ7IgY8O9vL0zhU2xEfIdkl1G5G6iaLicvqHxrBYjBTsTyH36n0G1KaJFKC6k9TkdApulqAz6Bnubeb0/q1EhAQTqAghPnM3D140otEbZe2U3C0gNjJM9l141EZuPKqktb2T/Nzd5OTeZGBYjVEzSkdVMTFBYRy9XUNHdydPbpwhNiJYLldY5Hqu3StjaEQn76Poaqhka0ayrMWw8FgKCq8TEZ/J3ZJ6xi0mNKpOsjMTCVEEkbZ1Hy/bJubJ5A7NauZ12UM2xMbxoGHoA49dsdBcXszW+EgCgxREJ2dRWHiRg/ulielqrm3byHLXIApu3qOk9BnXCs4S5O6EnW8kj0pe8PRaPhGKQAKCAtl0II8zh/eQnX0WlU7P/cJT7NxzlpbuYXn+yDjcQnJsNIcu36e5pY1bh/az5+QFVGNqrGYtr8vvERW1m36NHssbK/Ult9mSmsDd6l70RiO97fVcOLSDsMl2Ka1qe1LxmpaWJrKTQvGMzqS2/e12J2V1d/0AAAMpSURBVDr1z+vU/yz//SnwkIyR4CBtJpJGGHq9Xj4+DxofcLC84cs0sUFscmPTlCOl+49bxmdtgPvA+R8YLkqb6KRcv3XW9aTPpE1oU89emrrH1Kt0L4u0Me93nnk1USbpdx9f4y7dS7rW7PtP3ee9V8lGacOjeWID5Hvff8C+qd9M2CTl1d8ti+S337dl6jrSq8U8cZ2pDXLSZ1M+kepg9m9n3ksRtZ6zu9ejCIqhpH7wLf9K50v6mfD7u2WcW11O2CHNG3zg93Kdmm0OYiS/Sf6Wyjdjy8T15bqzvLMBcFYdSN9Pz2PM+vzd63zsb0kT7+pwuLeNQ6mxuAcnUVLdyJBSSXPtC7Iig/COTKa2tUd+woJUD2bzR3zxTlmk337Ivo+V673P5bZnwWyWNuVOzPG1vSolwH4pBwqeMzT6xz0Z4L17v2OL+P4D2v9EH/1p8JiqNEmEU8fUZ+L1j6vQ/25fWulvreHi2cvU9YxMT0b/d9v059attCmyqayQ0F89+GXeL/zrh5+YP38JviHR3KpoQaP/457/9en1Ms5AZwuHso4xMKrF8l7A8uf67NPt+LbL+afDQ1TUty2436t/k/S4D40GnXFmR/nvnSO+n9GUlP6TFht0tDbJC1SePy+nqqqalvYuOU33n9FRWzEZjKgGZz8KZ8YGUZ//Hb4Q8PjEIZsQ+H+HwL/1evqsdJNoG++lIr91Pc22X8BDNBDRQIQGhAaEBmzWgICHEI3NopkdfYj3YgQmNPBtakDAQ8BDwENoQGhAaMBmDQh4CNHYLBoRaX6bkaaod1HvszUg4CHgIeAhNCA0IDRgswYEPIRobBbN7OhDvBfRqNDAt6kBAQ8BDwEPoQGhAaEBmzUg4CFEY7NoRKT5bUaaot5Fvc/WgICHgIeAh9CA0IDQgM0aEPAQorFZNLOjD/FeRKNCA9+mBgQ8BDwEPIQGhAaEBmzWgICHEI3NohGR5rcZaYp6F/U+WwMCHgIeAh5CA0IDQgM2a0DAQ4jGZtHMjj7EexGNCg18mxoQ8BDwEPAQGhAaEBqwWQMCHkI0NotGRJrfZqQp6l3U+2wN/H9Ord8n2o/lZQAAAABJRU5ErkJggg==;" vertex="1" parent="2">
                    <mxGeometry x="380" y="120" width="322.67" height="465" as="geometry"/>
                </mxCell>
                <mxCell id="9" value="&lt;font color=&quot;#ffffff&quot;&gt;NEXT LEVEL&lt;/font&gt;" style="rounded=1;whiteSpace=wrap;html=1;align=center;fillColor=#0050ef;strokeColor=#001DBC;fontColor=#ffffff;" vertex="1" parent="2">
                    <mxGeometry x="100" y="470" width="230" height="30" as="geometry"/>
                </mxCell>
                <mxCell id="10" value="&lt;font color=&quot;#ffffff&quot;&gt;GO BACK&lt;/font&gt;" style="rounded=1;whiteSpace=wrap;html=1;align=center;fillColor=#0050ef;strokeColor=#001DBC;fontColor=#ffffff;" vertex="1" parent="2">
                    <mxGeometry x="100" y="510" width="230" height="30" as="geometry"/>
                </mxCell>
                <mxCell id="6" value="&lt;b&gt;&lt;font style=&quot;font-size: 15px&quot;&gt;aut.dig&lt;/font&gt;&lt;/b&gt;" style="text;html=1;strokeColor=none;fillColor=none;align=center;verticalAlign=middle;whiteSpace=wrap;rounded=0;" parent="1" vertex="1">
                    <mxGeometry x="235" y="315" width="40" height="20" as="geometry"/>
                </mxCell>
                <mxCell id="7" value="" style="shape=mxgraph.mockup.markup.scratchOut;shadow=0;dashed=0;html=1;strokeColor=#999999;strokeWidth=2;" parent="1" vertex="1">
                    <mxGeometry x="160" y="310" width="55" height="30" as="geometry"/>
                </mxCell>
            </root>
        </mxGraphModel>
    </diagram>
</mxfile>